<svg xmlns="http://www.w3.org/2000/svg" xmlns:xlink="http://www.w3.org/1999/xlink" width="500" zoomAndPan="magnify" viewBox="0 0 375 374.999991" height="500" preserveAspectRatio="xMidYMid meet" version="1.0"><defs><g/></defs><g fill="#ff0000" fill-opacity="1"><g transform="translate(18.652322, 181.6321)"><g><path d="M 45.613281 0 L 45.613281 -9.996094 L 13.121094 -9.996094 L 13.121094 -33.742188 L 37.179688 -33.742188 L 37.179688 -27.492188 L 47.175781 -27.492188 L 47.175781 -37.492188 L 40.929688 -43.742188 L 9.371094 -43.742188 L 3.125 -37.492188 L 3.125 -6.25 L 9.371094 0 Z M 45.613281 0 "/></g></g></g><g fill="#ff0000" fill-opacity="1"><g transform="translate(75.640024, 181.6321)"><g><path d="M 42.492188 0 L 48.738281 -6.25 L 48.738281 -37.492188 L 42.492188 -43.742188 L 9.371094 -43.742188 L 3.125 -37.492188 L 3.125 -6.25 L 9.371094 0 Z M 38.742188 -9.996094 L 13.121094 -9.996094 L 13.121094 -33.742188 L 38.742188 -33.742188 Z M 38.742188 -9.996094 "/></g></g></g><g fill="#ff0000" fill-opacity="1"><g transform="translate(134.189889, 181.6321)"><g><path d="M 14.683594 -43.742188 L 0.3125 -43.742188 L 0.3125 -33.742188 L 5 -33.742188 L 5 0 L 14.996094 0 L 14.996094 -26.683594 C 19.496094 -20.558594 23.996094 -14.433594 28.554688 -8.3125 C 33.054688 -14.433594 37.617188 -20.558594 42.179688 -26.683594 L 42.179688 0 L 52.175781 0 L 52.175781 -43.742188 L 42.492188 -43.742188 C 37.804688 -37.492188 33.179688 -31.179688 28.554688 -24.933594 Z M 14.683594 -43.742188 "/></g></g></g><g fill="#ff0000" fill-opacity="1"><g transform="translate(196.176511, 181.6321)"><g><path d="M 38.117188 -10.621094 L 44.367188 -16.871094 L 44.367188 -37.492188 L 38.117188 -43.742188 L 0.3125 -43.742188 L 0.3125 -33.742188 L 34.367188 -33.742188 L 34.367188 -20.621094 L 14.996094 -20.621094 L 14.996094 -30.617188 L 5 -30.617188 L 5 0 L 14.996094 0 L 14.996094 -10.621094 Z M 38.117188 -10.621094 "/></g></g></g><g fill="#ff0000" fill-opacity="1"><g transform="translate(249.1026, 181.6321)"><g><path d="M 38.117188 -10.621094 L 44.367188 -16.871094 L 44.367188 -37.492188 L 38.117188 -43.742188 L 0.3125 -43.742188 L 0.3125 -33.742188 L 34.367188 -33.742188 L 34.367188 -20.621094 L 14.996094 -20.621094 L 14.996094 -30.617188 L 5 -30.617188 L 5 0 L 14.996094 0 L 14.996094 -10.621094 L 25.433594 -10.621094 C 28.554688 -7.0625 31.617188 -3.5 34.804688 0 L 47.488281 0 C 44.304688 -3.5 41.242188 -7.0625 38.117188 -10.621094 Z M 38.117188 -10.621094 "/></g></g></g><g fill="#ff0000" fill-opacity="1"><g transform="translate(303.903279, 181.6321)"><g><path d="M 43.117188 0 L 43.117188 -9.996094 L 14.996094 -9.996094 L 14.996094 -16.871094 L 36.867188 -16.871094 L 36.867188 -26.871094 L 14.996094 -26.871094 L 14.996094 -33.742188 L 43.117188 -33.742188 L 43.117188 -43.742188 L 0.3125 -43.742188 L 0.3125 -33.742188 L 5 -33.742188 L 5 0 Z M 43.117188 0 "/></g></g></g><g fill="#00ffff" fill-opacity="1"><g transform="translate(24.854394, 180.870584)"><g><path d="M 45.613281 0 L 45.613281 -9.996094 L 13.121094 -9.996094 L 13.121094 -33.742188 L 37.179688 -33.742188 L 37.179688 -27.492188 L 47.175781 -27.492188 L 47.175781 -37.492188 L 40.929688 -43.742188 L 9.371094 -43.742188 L 3.125 -37.492188 L 3.125 -6.25 L 9.371094 0 Z M 45.613281 0 "/></g></g></g><g fill="#00ffff" fill-opacity="1"><g transform="translate(81.842097, 180.870584)"><g><path d="M 42.492188 0 L 48.738281 -6.25 L 48.738281 -37.492188 L 42.492188 -43.742188 L 9.371094 -43.742188 L 3.125 -37.492188 L 3.125 -6.25 L 9.371094 0 Z M 38.742188 -9.996094 L 13.121094 -9.996094 L 13.121094 -33.742188 L 38.742188 -33.742188 Z M 38.742188 -9.996094 "/></g></g></g><g fill="#00ffff" fill-opacity="1"><g transform="translate(140.391961, 180.870584)"><g><path d="M 14.683594 -43.742188 L 0.3125 -43.742188 L 0.3125 -33.742188 L 5 -33.742188 L 5 0 L 14.996094 0 L 14.996094 -26.683594 C 19.496094 -20.558594 23.996094 -14.433594 28.554688 -8.3125 C 33.054688 -14.433594 37.617188 -20.558594 42.179688 -26.683594 L 42.179688 0 L 52.175781 0 L 52.175781 -43.742188 L 42.492188 -43.742188 C 37.804688 -37.492188 33.179688 -31.179688 28.554688 -24.933594 Z M 14.683594 -43.742188 "/></g></g></g><g fill="#00ffff" fill-opacity="1"><g transform="translate(202.378584, 180.870584)"><g><path d="M 38.117188 -10.621094 L 44.367188 -16.871094 L 44.367188 -37.492188 L 38.117188 -43.742188 L 0.3125 -43.742188 L 0.3125 -33.742188 L 34.367188 -33.742188 L 34.367188 -20.621094 L 14.996094 -20.621094 L 14.996094 -30.617188 L 5 -30.617188 L 5 0 L 14.996094 0 L 14.996094 -10.621094 Z M 38.117188 -10.621094 "/></g></g></g><g fill="#00ffff" fill-opacity="1"><g transform="translate(255.304673, 180.870584)"><g><path d="M 38.117188 -10.621094 L 44.367188 -16.871094 L 44.367188 -37.492188 L 38.117188 -43.742188 L 0.3125 -43.742188 L 0.3125 -33.742188 L 34.367188 -33.742188 L 34.367188 -20.621094 L 14.996094 -20.621094 L 14.996094 -30.617188 L 5 -30.617188 L 5 0 L 14.996094 0 L 14.996094 -10.621094 L 25.433594 -10.621094 C 28.554688 -7.0625 31.617188 -3.5 34.804688 0 L 47.488281 0 C 44.304688 -3.5 41.242188 -7.0625 38.117188 -10.621094 Z M 38.117188 -10.621094 "/></g></g></g><g fill="#00ffff" fill-opacity="1"><g transform="translate(310.105351, 180.870584)"><g><path d="M 43.117188 0 L 43.117188 -9.996094 L 14.996094 -9.996094 L 14.996094 -16.871094 L 36.867188 -16.871094 L 36.867188 -26.871094 L 14.996094 -26.871094 L 14.996094 -33.742188 L 43.117188 -33.742188 L 43.117188 -43.742188 L 0.3125 -43.742188 L 0.3125 -33.742188 L 5 -33.742188 L 5 0 Z M 43.117188 0 "/></g></g></g><g fill="#88ff55" fill-opacity="1"><g transform="translate(21.753358, 181.251342)"><g><path d="M 45.613281 0 L 45.613281 -9.996094 L 13.121094 -9.996094 L 13.121094 -33.742188 L 37.179688 -33.742188 L 37.179688 -27.492188 L 47.175781 -27.492188 L 47.175781 -37.492188 L 40.929688 -43.742188 L 9.371094 -43.742188 L 3.125 -37.492188 L 3.125 -6.25 L 9.371094 0 Z M 45.613281 0 "/></g></g></g><g fill="#88ff55" fill-opacity="1"><g transform="translate(78.741061, 181.251342)"><g><path d="M 42.492188 0 L 48.738281 -6.25 L 48.738281 -37.492188 L 42.492188 -43.742188 L 9.371094 -43.742188 L 3.125 -37.492188 L 3.125 -6.25 L 9.371094 0 Z M 38.742188 -9.996094 L 13.121094 -9.996094 L 13.121094 -33.742188 L 38.742188 -33.742188 Z M 38.742188 -9.996094 "/></g></g></g><g fill="#88ff55" fill-opacity="1"><g transform="translate(137.290925, 181.251342)"><g><path d="M 14.683594 -43.742188 L 0.3125 -43.742188 L 0.3125 -33.742188 L 5 -33.742188 L 5 0 L 14.996094 0 L 14.996094 -26.683594 C 19.496094 -20.558594 23.996094 -14.433594 28.554688 -8.3125 C 33.054688 -14.433594 37.617188 -20.558594 42.179688 -26.683594 L 42.179688 0 L 52.175781 0 L 52.175781 -43.742188 L 42.492188 -43.742188 C 37.804688 -37.492188 33.179688 -31.179688 28.554688 -24.933594 Z M 14.683594 -43.742188 "/></g></g></g><g fill="#88ff55" fill-opacity="1"><g transform="translate(199.277548, 181.251342)"><g><path d="M 38.117188 -10.621094 L 44.367188 -16.871094 L 44.367188 -37.492188 L 38.117188 -43.742188 L 0.3125 -43.742188 L 0.3125 -33.742188 L 34.367188 -33.742188 L 34.367188 -20.621094 L 14.996094 -20.621094 L 14.996094 -30.617188 L 5 -30.617188 L 5 0 L 14.996094 0 L 14.996094 -10.621094 Z M 38.117188 -10.621094 "/></g></g></g><g fill="#88ff55" fill-opacity="1"><g transform="translate(252.203637, 181.251342)"><g><path d="M 38.117188 -10.621094 L 44.367188 -16.871094 L 44.367188 -37.492188 L 38.117188 -43.742188 L 0.3125 -43.742188 L 0.3125 -33.742188 L 34.367188 -33.742188 L 34.367188 -20.621094 L 14.996094 -20.621094 L 14.996094 -30.617188 L 5 -30.617188 L 5 0 L 14.996094 0 L 14.996094 -10.621094 L 25.433594 -10.621094 C 28.554688 -7.0625 31.617188 -3.5 34.804688 0 L 47.488281 0 C 44.304688 -3.5 41.242188 -7.0625 38.117188 -10.621094 Z M 38.117188 -10.621094 "/></g></g></g><g fill="#88ff55" fill-opacity="1"><g transform="translate(307.004315, 181.251342)"><g><path d="M 43.117188 0 L 43.117188 -9.996094 L 14.996094 -9.996094 L 14.996094 -16.871094 L 36.867188 -16.871094 L 36.867188 -26.871094 L 14.996094 -26.871094 L 14.996094 -33.742188 L 43.117188 -33.742188 L 43.117188 -43.742188 L 0.3125 -43.742188 L 0.3125 -33.742188 L 5 -33.742188 L 5 0 Z M 43.117188 0 "/></g></g></g></svg>