<svg xmlns="http://www.w3.org/2000/svg" xmlns:xlink="http://www.w3.org/1999/xlink" width="500" zoomAndPan="magnify" viewBox="0 0 375 374.999991" height="500" preserveAspectRatio="xMidYMid meet" version="1.0"><defs><g/></defs><g fill="#ff0000" fill-opacity="1"><g transform="translate(19.714986, 205.069806)"><g><path d="M 38.3125 0 L 38.3125 -8.398438 L 11.023438 -8.398438 L 11.023438 -28.34375 L 31.230469 -28.34375 L 31.230469 -23.09375 L 39.625 -23.09375 L 39.625 -31.492188 L 34.378906 -36.738281 L 7.871094 -36.738281 L 2.625 -31.492188 L 2.625 -5.25 L 7.871094 0 Z M 38.3125 0 "/></g></g></g><g fill="#ff0000" fill-opacity="1"><g transform="translate(67.574644, 205.069806)"><g><path d="M 35.691406 0 L 40.9375 -5.25 L 40.9375 -31.492188 L 35.691406 -36.738281 L 7.871094 -36.738281 L 2.625 -31.492188 L 2.625 -5.25 L 7.871094 0 Z M 32.539062 -8.398438 L 11.023438 -8.398438 L 11.023438 -28.34375 L 32.539062 -28.34375 Z M 32.539062 -8.398438 "/></g></g></g><g fill="#ff0000" fill-opacity="1"><g transform="translate(116.746218, 205.069806)"><g><path d="M 12.332031 -36.738281 L 0.261719 -36.738281 L 0.261719 -28.34375 L 4.199219 -28.34375 L 4.199219 0 L 12.597656 0 L 12.597656 -22.410156 C 16.375 -17.265625 20.152344 -12.125 23.984375 -6.980469 C 27.765625 -12.125 31.597656 -17.265625 35.425781 -22.410156 L 35.425781 0 L 43.824219 0 L 43.824219 -36.738281 L 35.691406 -36.738281 C 31.753906 -31.492188 27.871094 -26.191406 23.984375 -20.941406 Z M 12.332031 -36.738281 "/></g></g></g><g fill="#ff0000" fill-opacity="1"><g transform="translate(168.804003, 205.069806)"><g><path d="M 32.015625 -8.921875 L 37.265625 -14.171875 L 37.265625 -31.492188 L 32.015625 -36.738281 L 0.261719 -36.738281 L 0.261719 -28.34375 L 28.867188 -28.34375 L 28.867188 -17.320312 L 12.597656 -17.320312 L 12.597656 -25.71875 L 4.199219 -25.71875 L 4.199219 0 L 12.597656 0 L 12.597656 -8.921875 Z M 32.015625 -8.921875 "/></g></g></g><g fill="#ff0000" fill-opacity="1"><g transform="translate(213.252693, 205.069806)"><g><path d="M 32.015625 -8.921875 L 37.265625 -14.171875 L 37.265625 -31.492188 L 32.015625 -36.738281 L 0.261719 -36.738281 L 0.261719 -28.34375 L 28.867188 -28.34375 L 28.867188 -17.320312 L 12.597656 -17.320312 L 12.597656 -25.71875 L 4.199219 -25.71875 L 4.199219 0 L 12.597656 0 L 12.597656 -8.921875 L 21.363281 -8.921875 C 23.984375 -5.929688 26.558594 -2.9375 29.234375 0 L 39.886719 0 C 37.210938 -2.9375 34.640625 -5.929688 32.015625 -8.921875 Z M 32.015625 -8.921875 "/></g></g></g><g fill="#ff0000" fill-opacity="1"><g transform="translate(259.275677, 205.069806)"><g><path d="M 44.246094 0 L 27.082031 -36.738281 L 9.761719 -36.738281 L 9.761719 -28.34375 L 13.699219 -28.34375 L 0.523438 0 L 9.710938 0 L 12.648438 -6.296875 L 32.066406 -6.296875 L 35.058594 0 Z M 28.132812 -14.695312 L 16.53125 -14.695312 L 22.148438 -28.5 L 22.515625 -28.5 Z M 28.132812 -14.695312 "/></g></g></g><g fill="#ff0000" fill-opacity="1"><g transform="translate(309.654214, 205.069806)"><g><path d="M 32.015625 -8.921875 L 37.265625 -14.171875 L 37.265625 -31.492188 L 32.015625 -36.738281 L 0.261719 -36.738281 L 0.261719 -28.34375 L 28.867188 -28.34375 L 28.867188 -17.320312 L 12.597656 -17.320312 L 12.597656 -25.71875 L 4.199219 -25.71875 L 4.199219 0 L 12.597656 0 L 12.597656 -8.921875 L 21.363281 -8.921875 C 23.984375 -5.929688 26.558594 -2.9375 29.234375 0 L 39.886719 0 C 37.210938 -2.9375 34.640625 -5.929688 32.015625 -8.921875 Z M 32.015625 -8.921875 "/></g></g></g><g fill="#00ffff" fill-opacity="1"><g transform="translate(24.924521, 204.430167)"><g><path d="M 38.3125 0 L 38.3125 -8.398438 L 11.023438 -8.398438 L 11.023438 -28.34375 L 31.230469 -28.34375 L 31.230469 -23.09375 L 39.625 -23.09375 L 39.625 -31.492188 L 34.378906 -36.738281 L 7.871094 -36.738281 L 2.625 -31.492188 L 2.625 -5.25 L 7.871094 0 Z M 38.3125 0 "/></g></g></g><g fill="#00ffff" fill-opacity="1"><g transform="translate(72.784178, 204.430167)"><g><path d="M 35.691406 0 L 40.9375 -5.25 L 40.9375 -31.492188 L 35.691406 -36.738281 L 7.871094 -36.738281 L 2.625 -31.492188 L 2.625 -5.25 L 7.871094 0 Z M 32.539062 -8.398438 L 11.023438 -8.398438 L 11.023438 -28.34375 L 32.539062 -28.34375 Z M 32.539062 -8.398438 "/></g></g></g><g fill="#00ffff" fill-opacity="1"><g transform="translate(121.955752, 204.430167)"><g><path d="M 12.332031 -36.738281 L 0.261719 -36.738281 L 0.261719 -28.34375 L 4.199219 -28.34375 L 4.199219 0 L 12.597656 0 L 12.597656 -22.410156 C 16.375 -17.265625 20.152344 -12.125 23.984375 -6.980469 C 27.765625 -12.125 31.597656 -17.265625 35.425781 -22.410156 L 35.425781 0 L 43.824219 0 L 43.824219 -36.738281 L 35.691406 -36.738281 C 31.753906 -31.492188 27.871094 -26.191406 23.984375 -20.941406 Z M 12.332031 -36.738281 "/></g></g></g><g fill="#00ffff" fill-opacity="1"><g transform="translate(174.013538, 204.430167)"><g><path d="M 32.015625 -8.921875 L 37.265625 -14.171875 L 37.265625 -31.492188 L 32.015625 -36.738281 L 0.261719 -36.738281 L 0.261719 -28.34375 L 28.867188 -28.34375 L 28.867188 -17.320312 L 12.597656 -17.320312 L 12.597656 -25.71875 L 4.199219 -25.71875 L 4.199219 0 L 12.597656 0 L 12.597656 -8.921875 Z M 32.015625 -8.921875 "/></g></g></g><g fill="#00ffff" fill-opacity="1"><g transform="translate(218.462227, 204.430167)"><g><path d="M 32.015625 -8.921875 L 37.265625 -14.171875 L 37.265625 -31.492188 L 32.015625 -36.738281 L 0.261719 -36.738281 L 0.261719 -28.34375 L 28.867188 -28.34375 L 28.867188 -17.320312 L 12.597656 -17.320312 L 12.597656 -25.71875 L 4.199219 -25.71875 L 4.199219 0 L 12.597656 0 L 12.597656 -8.921875 L 21.363281 -8.921875 C 23.984375 -5.929688 26.558594 -2.9375 29.234375 0 L 39.886719 0 C 37.210938 -2.9375 34.640625 -5.929688 32.015625 -8.921875 Z M 32.015625 -8.921875 "/></g></g></g><g fill="#00ffff" fill-opacity="1"><g transform="translate(264.485211, 204.430167)"><g><path d="M 44.246094 0 L 27.082031 -36.738281 L 9.761719 -36.738281 L 9.761719 -28.34375 L 13.699219 -28.34375 L 0.523438 0 L 9.710938 0 L 12.648438 -6.296875 L 32.066406 -6.296875 L 35.058594 0 Z M 28.132812 -14.695312 L 16.53125 -14.695312 L 22.148438 -28.5 L 22.515625 -28.5 Z M 28.132812 -14.695312 "/></g></g></g><g fill="#00ffff" fill-opacity="1"><g transform="translate(314.863748, 204.430167)"><g><path d="M 32.015625 -8.921875 L 37.265625 -14.171875 L 37.265625 -31.492188 L 32.015625 -36.738281 L 0.261719 -36.738281 L 0.261719 -28.34375 L 28.867188 -28.34375 L 28.867188 -17.320312 L 12.597656 -17.320312 L 12.597656 -25.71875 L 4.199219 -25.71875 L 4.199219 0 L 12.597656 0 L 12.597656 -8.921875 L 21.363281 -8.921875 C 23.984375 -5.929688 26.558594 -2.9375 29.234375 0 L 39.886719 0 C 37.210938 -2.9375 34.640625 -5.929688 32.015625 -8.921875 Z M 32.015625 -8.921875 "/></g></g></g><g fill="#88ff55" fill-opacity="1"><g transform="translate(22.319754, 204.749987)"><g><path d="M 38.3125 0 L 38.3125 -8.398438 L 11.023438 -8.398438 L 11.023438 -28.34375 L 31.230469 -28.34375 L 31.230469 -23.09375 L 39.625 -23.09375 L 39.625 -31.492188 L 34.378906 -36.738281 L 7.871094 -36.738281 L 2.625 -31.492188 L 2.625 -5.25 L 7.871094 0 Z M 38.3125 0 "/></g></g></g><g fill="#88ff55" fill-opacity="1"><g transform="translate(70.179411, 204.749987)"><g><path d="M 35.691406 0 L 40.9375 -5.25 L 40.9375 -31.492188 L 35.691406 -36.738281 L 7.871094 -36.738281 L 2.625 -31.492188 L 2.625 -5.25 L 7.871094 0 Z M 32.539062 -8.398438 L 11.023438 -8.398438 L 11.023438 -28.34375 L 32.539062 -28.34375 Z M 32.539062 -8.398438 "/></g></g></g><g fill="#88ff55" fill-opacity="1"><g transform="translate(119.350985, 204.749987)"><g><path d="M 12.332031 -36.738281 L 0.261719 -36.738281 L 0.261719 -28.34375 L 4.199219 -28.34375 L 4.199219 0 L 12.597656 0 L 12.597656 -22.410156 C 16.375 -17.265625 20.152344 -12.125 23.984375 -6.980469 C 27.765625 -12.125 31.597656 -17.265625 35.425781 -22.410156 L 35.425781 0 L 43.824219 0 L 43.824219 -36.738281 L 35.691406 -36.738281 C 31.753906 -31.492188 27.871094 -26.191406 23.984375 -20.941406 Z M 12.332031 -36.738281 "/></g></g></g><g fill="#88ff55" fill-opacity="1"><g transform="translate(171.408771, 204.749987)"><g><path d="M 32.015625 -8.921875 L 37.265625 -14.171875 L 37.265625 -31.492188 L 32.015625 -36.738281 L 0.261719 -36.738281 L 0.261719 -28.34375 L 28.867188 -28.34375 L 28.867188 -17.320312 L 12.597656 -17.320312 L 12.597656 -25.71875 L 4.199219 -25.71875 L 4.199219 0 L 12.597656 0 L 12.597656 -8.921875 Z M 32.015625 -8.921875 "/></g></g></g><g fill="#88ff55" fill-opacity="1"><g transform="translate(215.85746, 204.749987)"><g><path d="M 32.015625 -8.921875 L 37.265625 -14.171875 L 37.265625 -31.492188 L 32.015625 -36.738281 L 0.261719 -36.738281 L 0.261719 -28.34375 L 28.867188 -28.34375 L 28.867188 -17.320312 L 12.597656 -17.320312 L 12.597656 -25.71875 L 4.199219 -25.71875 L 4.199219 0 L 12.597656 0 L 12.597656 -8.921875 L 21.363281 -8.921875 C 23.984375 -5.929688 26.558594 -2.9375 29.234375 0 L 39.886719 0 C 37.210938 -2.9375 34.640625 -5.929688 32.015625 -8.921875 Z M 32.015625 -8.921875 "/></g></g></g><g fill="#88ff55" fill-opacity="1"><g transform="translate(261.880444, 204.749987)"><g><path d="M 44.246094 0 L 27.082031 -36.738281 L 9.761719 -36.738281 L 9.761719 -28.34375 L 13.699219 -28.34375 L 0.523438 0 L 9.710938 0 L 12.648438 -6.296875 L 32.066406 -6.296875 L 35.058594 0 Z M 28.132812 -14.695312 L 16.53125 -14.695312 L 22.148438 -28.5 L 22.515625 -28.5 Z M 28.132812 -14.695312 "/></g></g></g><g fill="#88ff55" fill-opacity="1"><g transform="translate(312.258981, 204.749987)"><g><path d="M 32.015625 -8.921875 L 37.265625 -14.171875 L 37.265625 -31.492188 L 32.015625 -36.738281 L 0.261719 -36.738281 L 0.261719 -28.34375 L 28.867188 -28.34375 L 28.867188 -17.320312 L 12.597656 -17.320312 L 12.597656 -25.71875 L 4.199219 -25.71875 L 4.199219 0 L 12.597656 0 L 12.597656 -8.921875 L 21.363281 -8.921875 C 23.984375 -5.929688 26.558594 -2.9375 29.234375 0 L 39.886719 0 C 37.210938 -2.9375 34.640625 -5.929688 32.015625 -8.921875 Z M 32.015625 -8.921875 "/></g></g></g></svg>