<svg xmlns="http://www.w3.org/2000/svg" xmlns:xlink="http://www.w3.org/1999/xlink" width="80" zoomAndPan="magnify" viewBox="0 0 60 60" height="80" preserveAspectRatio="xMidYMid meet" version="1.0"><defs><clipPath id="f367811b4a"><path d="M 41.320312 25.0625 L 43.238281 25.0625 L 43.238281 25.710938 L 41.320312 25.710938 Z M 41.320312 25.0625 " clip-rule="nonzero"/></clipPath><clipPath id="b3921844d5"><path d="M 46.121094 25.0625 L 47.878906 25.0625 L 47.878906 25.710938 L 46.121094 25.710938 Z M 46.121094 25.0625 " clip-rule="nonzero"/></clipPath><clipPath id="130d1e7378"><path d="M 23.152344 33.894531 L 35.152344 33.894531 L 35.152344 38.351562 L 23.152344 38.351562 Z M 23.152344 33.894531 " clip-rule="nonzero"/></clipPath><clipPath id="444dc37f46"><path d="M 23.152344 33.894531 L 35.152344 33.894531 L 35.152344 38.9375 L 23.152344 38.9375 Z M 23.152344 33.894531 " clip-rule="nonzero"/></clipPath><clipPath id="2e8497b4df"><path d="M 9.800781 23.179688 L 17.359375 23.179688 L 17.359375 30.738281 L 9.800781 30.738281 Z M 9.800781 23.179688 " clip-rule="nonzero"/></clipPath></defs><path fill="#9e9e9e" d="M 42.992188 25.496094 L 41.503906 25.496094 L 41.503906 25.386719 C 41.503906 25.261719 41.609375 25.15625 41.734375 25.15625 L 42.761719 25.15625 C 42.886719 25.15625 42.992188 25.261719 42.992188 25.386719 Z M 42.992188 25.496094 " fill-opacity="1" fill-rule="nonzero"/><g clip-path="url(#f367811b4a)"><path stroke-linecap="round" transform="matrix(0.0220576, 0, 0, 0.0220576, 39.949122, 25.065202)" fill="none" stroke-linejoin="round" d="M 137.95997 19.534829 L 70.487475 19.534829 L 70.487475 14.576221 C 70.487475 8.90924 75.268991 4.127724 80.935972 4.127724 L 127.511474 4.127724 C 133.178455 4.127724 137.95997 8.90924 137.95997 14.576221 Z M 137.95997 19.534829 " stroke="#000000" stroke-width="8.324" stroke-opacity="1" stroke-miterlimit="10"/></g><path fill="#9e9e9e" d="M 47.71875 25.496094 L 46.230469 25.496094 L 46.230469 25.386719 C 46.230469 25.261719 46.335938 25.15625 46.460938 25.15625 L 47.488281 25.15625 C 47.613281 25.15625 47.71875 25.261719 47.71875 25.386719 Z M 47.71875 25.496094 " fill-opacity="1" fill-rule="nonzero"/><g clip-path="url(#b3921844d5)"><path stroke-linecap="round" transform="matrix(0.0220576, 0, 0, 0.0220576, 39.949122, 25.065202)" fill="none" stroke-linejoin="round" d="M 352.242697 19.534829 L 284.770202 19.534829 L 284.770202 14.576221 C 284.770202 8.90924 289.551718 4.127724 295.218699 4.127724 L 341.794201 4.127724 C 347.461182 4.127724 352.242697 8.90924 352.242697 14.576221 Z M 352.242697 19.534829 " stroke="#000000" stroke-width="8.324" stroke-opacity="1" stroke-miterlimit="10"/></g><path fill="#374046" d="M 44.617188 25.457031 L 41.828125 25.457031 L 41.828125 28.5 L 47.410156 28.5 L 47.410156 25.457031 Z M 44.617188 25.457031 " fill-opacity="1" fill-rule="nonzero"/><path stroke-linecap="round" transform="matrix(0.0220576, 0, 0, 0.0220576, 39.949118, 25.065201)" fill="none" stroke-linejoin="round" d="M 327.804004 145.448144 L 95.457774 145.448144 " stroke="#000000" stroke-width="14.566" stroke-opacity="0.15" stroke-miterlimit="10"/><path stroke-linecap="round" transform="matrix(0.0220576, 0, 0, 0.0220576, 39.949118, 25.065201)" fill="none" stroke-linejoin="round" d="M 211.630889 17.763974 L 85.186371 17.763974 L 85.186371 155.896641 L 338.252501 155.896641 L 338.252501 17.763974 Z M 211.630889 17.763974 " stroke="#000000" stroke-width="8.324" stroke-opacity="1" stroke-miterlimit="10"/><path fill="#374046" d="M 43.175781 26.75 C 43.152344 26.042969 42.578125 25.472656 41.871094 25.457031 C 41.222656 25.4375 40.675781 25.878906 40.53125 26.480469 L 40.496094 26.691406 L 40.050781 29.480469 C 39.976562 29.964844 40.292969 30.421875 40.773438 30.515625 C 41.199219 30.605469 41.625 30.378906 41.789062 29.980469 L 42.699219 27.828125 C 43 27.570312 43.191406 27.183594 43.175781 26.75 Z M 43.175781 26.75 " fill-opacity="1" fill-rule="nonzero"/><path stroke-linecap="round" transform="matrix(0.0220576, 0, 0, 0.0220576, 39.949118, 25.065201)" fill="none" stroke-linejoin="round" d="M 68.185427 28.920843 C 73.675315 26.972818 79.51939 26.087352 85.540557 26.087352 C 86.071837 26.087352 86.603116 26.087352 86.957303 26.087352 C 114.760929 26.618632 137.074668 48.93237 138.137227 76.735997 C 138.31432 83.111351 137.428854 89.663798 135.303736 95.507872 " stroke="#ffffff" stroke-width="8.324" stroke-opacity="0.2" stroke-miterlimit="10"/><path stroke-linecap="round" transform="matrix(0.0220576, 0, 0, 0.0220576, 39.949118, 25.065201)" fill="none" stroke-linejoin="round" d="M 69.247986 226.37972 C 63.403912 233.286353 54.726347 237.536589 45.517502 237.536589 C 43.392385 237.536589 41.44436 237.359496 39.319242 236.828216 C 23.026671 233.640539 12.401081 218.233434 15.057478 201.76377 L 17.890969 183.523174 " stroke="#000000" stroke-width="14.566" stroke-opacity="0.15" stroke-miterlimit="10"/><path stroke-linecap="round" transform="matrix(0.0220576, 0, 0, 0.0220576, 39.949118, 25.065201)" fill="none" stroke-linejoin="round" d="M 146.283512 76.381811 C 145.220953 44.327948 119.188258 18.472346 87.134396 17.763974 C 57.736931 16.878508 32.943888 36.890035 26.391441 64.162382 L 24.797602 73.725413 L 4.608982 200.169932 C 1.244212 222.129484 15.588758 242.849384 37.371217 247.276713 C 56.674372 251.172762 75.977526 240.901359 83.415439 222.837856 L 124.678146 125.259524 C 138.491413 113.571375 146.991885 96.039152 146.283512 76.381811 Z M 146.283512 76.381811 " stroke="#000000" stroke-width="8.324" stroke-opacity="1" stroke-miterlimit="10"/><path fill="#374046" d="M 46.058594 26.75 C 46.082031 26.042969 46.660156 25.472656 47.363281 25.457031 C 48.011719 25.4375 48.558594 25.878906 48.707031 26.480469 L 48.738281 26.691406 L 49.183594 29.480469 C 49.257812 29.964844 48.941406 30.421875 48.464844 30.515625 C 48.039062 30.605469 47.613281 30.378906 47.445312 29.980469 L 46.539062 27.828125 C 46.234375 27.570312 46.042969 27.183594 46.058594 26.75 Z M 46.058594 26.75 " fill-opacity="1" fill-rule="nonzero"/><path stroke-linecap="round" transform="matrix(0.0220576, 0, 0, 0.0220576, 39.949118, 25.065201)" fill="none" stroke-linejoin="round" d="M 387.661493 111.446257 L 389.078238 121.009288 " stroke="#ffffff" stroke-width="8.324" stroke-opacity="0.45" stroke-miterlimit="10"/><path stroke-linecap="round" transform="matrix(0.0220576, 0, 0, 0.0220576, 39.949118, 25.065201)" fill="none" stroke-linejoin="round" d="M 380.577767 67.527153 L 385.182189 95.507872 " stroke="#ffffff" stroke-width="8.324" stroke-opacity="0.45" stroke-miterlimit="10"/><path stroke-linecap="round" transform="matrix(0.0220576, 0, 0, 0.0220576, 39.949118, 25.065201)" fill="none" stroke-linejoin="round" d="M 336.304476 26.087352 C 336.835755 26.087352 337.367035 26.087352 337.721221 26.087352 C 361.982984 26.087352 382.879978 42.379923 388.724052 65.756221 L 406.079182 173.960143 " stroke="#ffffff" stroke-width="8.324" stroke-opacity="0.2" stroke-miterlimit="10"/><path stroke-linecap="round" transform="matrix(0.0220576, 0, 0, 0.0220576, 39.949118, 25.065201)" fill="none" stroke-linejoin="round" d="M 403.245691 224.254602 C 398.818362 230.629956 392.088822 235.234378 383.942537 236.828216 C 381.817419 237.359496 379.869394 237.536589 377.744276 237.536589 C 365.347755 237.536589 354.190885 230.098676 349.40937 218.58762 L 312.042713 130.041039 " stroke="#000000" stroke-width="14.566" stroke-opacity="0.15" stroke-miterlimit="10"/><path stroke-linecap="round" transform="matrix(0.0220576, 0, 0, 0.0220576, 39.949118, 25.065201)" fill="none" stroke-linejoin="round" d="M 276.978266 76.381811 C 278.040825 44.327948 304.250613 18.472346 336.127383 17.763974 C 365.524848 16.878508 390.317891 36.890035 397.047431 64.162382 L 398.464176 73.725413 L 418.652797 200.169932 C 422.017567 222.129484 407.67302 242.849384 386.067655 247.276713 C 366.7645 251.172762 347.461345 240.901359 339.846339 222.837856 L 298.760725 125.259524 C 284.947459 113.571375 276.269894 96.039152 276.978266 76.381811 Z M 276.978266 76.381811 " stroke="#000000" stroke-width="8.324" stroke-opacity="1" stroke-miterlimit="10"/><path fill="#04a9f4" d="M 45.515625 26.855469 L 43.707031 26.855469 C 43.585938 26.855469 43.488281 26.757812 43.488281 26.636719 L 43.488281 25.542969 C 43.488281 25.421875 43.585938 25.324219 43.707031 25.324219 L 45.515625 25.324219 C 45.636719 25.324219 45.734375 25.421875 45.734375 25.542969 L 45.734375 26.636719 C 45.734375 26.757812 45.632812 26.855469 45.515625 26.855469 Z M 45.515625 26.855469 " fill-opacity="1" fill-rule="nonzero"/><path stroke-linecap="round" transform="matrix(0.0220576, 0, 0, 0.0220576, 39.949118, 25.065201)" fill="none" stroke-linejoin="round" d="M 211.276703 28.566657 L 217.82915 28.566657 " stroke="#ffffff" stroke-width="8.324" stroke-opacity="0.45" stroke-miterlimit="10"/><path stroke-linecap="round" transform="matrix(0.0220576, 0, 0, 0.0220576, 39.949118, 25.065201)" fill="none" stroke-linejoin="round" d="M 232.527882 28.566657 L 245.455683 28.566657 L 245.455683 32.816893 " stroke="#ffffff" stroke-width="8.324" stroke-opacity="0.45" stroke-miterlimit="10"/><path stroke-linecap="round" transform="matrix(0.0220576, 0, 0, 0.0220576, 39.949118, 25.065201)" fill="none" stroke-linejoin="round" d="M 206.672281 20.066185 L 252.362317 20.066185 C 253.247782 20.066185 253.956155 20.774558 253.956155 21.660023 L 253.956155 38.129688 " stroke="#ffffff" stroke-width="8.324" stroke-opacity="0.2" stroke-miterlimit="10"/><path stroke-linecap="round" transform="matrix(0.0220576, 0, 0, 0.0220576, 39.949118, 25.065201)" fill="none" stroke-linejoin="round" d="M 217.82915 70.71483 L 170.899462 70.71483 L 170.899462 46.453066 " stroke="#000000" stroke-width="14.566" stroke-opacity="0.15" stroke-miterlimit="10"/><path stroke-linecap="round" transform="matrix(0.0220576, 0, 0, 0.0220576, 39.949118, 25.065201)" fill="none" stroke-linejoin="round" d="M 252.362317 81.163326 L 170.368182 81.163326 C 164.878294 81.163326 160.450965 76.735997 160.450965 71.246109 L 160.450965 21.660023 C 160.450965 16.170135 164.878294 11.742806 170.368182 11.742806 L 252.362317 11.742806 C 257.852205 11.742806 262.279534 16.170135 262.279534 21.660023 L 262.279534 71.246109 C 262.279534 76.735997 257.675112 81.163326 252.362317 81.163326 Z M 252.362317 81.163326 " stroke="#000000" stroke-width="8.324" stroke-opacity="1" stroke-miterlimit="10"/><path stroke-linecap="round" transform="matrix(0.0220576, 0, 0, 0.0220576, 39.949118, 25.065201)" fill-opacity="1" fill="#9e9e9e" fill-rule="nonzero" stroke-linejoin="round" d="M 167.888878 148.812914 C 167.888878 151.292219 167.711785 153.771523 167.180505 156.250827 C 166.649226 158.730131 165.940853 161.032343 165.055387 163.334554 C 164.169922 165.459672 162.930269 167.761883 161.513524 169.709908 C 160.273872 171.835026 158.680034 173.605957 156.909102 175.376889 C 155.13817 177.14782 153.367239 178.741659 151.242121 180.158404 C 149.117003 181.398056 146.991885 182.637708 144.689674 183.523174 C 142.564556 184.40864 140.085251 185.117013 137.78304 185.648292 C 135.303736 186.179572 132.824432 186.356665 130.345127 186.356665 C 127.865823 186.356665 125.563612 186.179572 123.084308 185.648292 C 120.605004 185.117013 118.302792 184.40864 116.000581 183.523174 C 113.69837 182.637708 111.573252 181.398056 109.625227 180.158404 C 107.500109 178.741659 105.552085 177.14782 103.958246 175.376889 C 102.187315 173.605957 100.593476 171.835026 99.176731 169.709908 C 97.937079 167.761883 96.697427 165.459672 95.811961 163.334554 C 94.749402 161.032343 94.041029 158.730131 93.686843 156.250827 C 93.155563 153.771523 92.97847 151.292219 92.97847 148.812914 C 92.97847 146.510703 93.155563 144.031399 93.686843 141.552095 C 94.041029 139.249884 94.749402 136.770579 95.811961 134.645461 C 96.697427 132.34325 97.937079 130.041039 99.176731 128.093014 C 100.593476 125.967896 102.187315 124.196965 103.958246 122.426033 C 105.552085 120.655101 107.500109 119.061263 109.625227 117.644518 C 111.573252 116.404866 113.69837 115.165213 116.000581 114.279748 C 118.302792 113.394282 120.605004 112.685909 123.084308 112.15463 C 125.563612 111.62335 127.865823 111.446257 130.345127 111.446257 C 132.824432 111.446257 135.303736 111.62335 137.78304 112.15463 C 140.085251 112.685909 142.564556 113.394282 144.689674 114.279748 C 146.991885 115.165213 149.117003 116.404866 151.242121 117.644518 C 153.367239 119.061263 155.13817 120.655101 156.909102 122.426033 C 158.680034 124.196965 160.273872 125.967896 161.513524 128.093014 C 162.930269 130.041039 164.169922 132.34325 165.055387 134.645461 C 165.940853 136.770579 166.649226 139.249884 167.180505 141.552095 C 167.711785 144.031399 167.888878 146.510703 167.888878 148.812914 Z M 167.888878 148.812914 " stroke="#000000" stroke-width="8.324" stroke-opacity="1" stroke-miterlimit="10"/><path fill="#374046" d="M 43.3125 28.347656 C 43.3125 28.414062 43.300781 28.476562 43.277344 28.535156 C 43.25 28.59375 43.214844 28.648438 43.171875 28.695312 C 43.125 28.738281 43.070312 28.773438 43.011719 28.800781 C 42.953125 28.824219 42.890625 28.835938 42.824219 28.835938 C 42.761719 28.835938 42.699219 28.824219 42.640625 28.800781 C 42.578125 28.773438 42.527344 28.738281 42.480469 28.695312 C 42.433594 28.648438 42.398438 28.59375 42.375 28.535156 C 42.351562 28.476562 42.339844 28.414062 42.339844 28.347656 C 42.339844 28.285156 42.351562 28.222656 42.375 28.164062 C 42.398438 28.101562 42.433594 28.050781 42.480469 28.003906 C 42.527344 27.957031 42.578125 27.921875 42.640625 27.898438 C 42.699219 27.875 42.761719 27.863281 42.824219 27.863281 C 42.890625 27.863281 42.953125 27.875 43.011719 27.898438 C 43.070312 27.921875 43.125 27.957031 43.171875 28.003906 C 43.214844 28.050781 43.25 28.101562 43.277344 28.164062 C 43.300781 28.222656 43.3125 28.285156 43.3125 28.347656 Z M 43.3125 28.347656 " fill-opacity="1" fill-rule="nonzero"/><path stroke-linecap="round" transform="matrix(0.0220576, 0, 0, 0.0220576, 39.949118, 25.065201)" fill="none" stroke-linejoin="round" d="M 135.835016 136.2393 C 138.31432 137.301859 140.439438 139.07279 141.856183 141.375001 " stroke="#ffffff" stroke-width="8.324" stroke-opacity="0.2" stroke-miterlimit="10"/><path stroke-linecap="round" transform="matrix(0.0220576, 0, 0, 0.0220576, 39.949118, 25.065201)" fill="none" stroke-linejoin="round" d="M 126.626171 160.146877 C 124.32396 159.261411 122.375935 157.844666 120.95919 155.896641 " stroke="#000000" stroke-width="14.566" stroke-opacity="0.15" stroke-miterlimit="10"/><path stroke-linecap="round" transform="matrix(0.0220576, 0, 0, 0.0220576, 39.949118, 25.065201)" fill="none" stroke-linejoin="round" d="M 152.481773 148.812914 C 152.481773 151.823498 151.950493 154.656989 150.887934 157.313386 C 149.648282 160.146877 148.054444 162.449088 146.106419 164.574206 C 143.981301 166.522231 141.501997 168.116069 138.845599 169.355721 C 136.189202 170.41828 133.355711 170.94956 130.345127 170.94956 C 127.511637 170.94956 124.678146 170.41828 122.021749 169.355721 C 119.188258 168.116069 116.886047 166.522231 114.760929 164.574206 C 112.635811 162.449088 111.041973 160.146877 109.979414 157.313386 C 108.916855 154.656989 108.385575 151.823498 108.385575 148.812914 C 108.385575 145.979424 108.916855 143.145933 109.979414 140.489536 C 111.041973 137.656045 112.635811 135.353834 114.760929 133.228716 C 116.886047 131.103598 119.188258 129.686853 122.021749 128.447201 C 124.678146 127.384642 127.511637 126.853362 130.345127 126.853362 C 133.355711 126.853362 136.189202 127.384642 138.845599 128.447201 C 141.501997 129.686853 143.981301 131.103598 146.106419 133.228716 C 148.054444 135.353834 149.648282 137.656045 150.887934 140.489536 C 151.950493 143.145933 152.481773 145.979424 152.481773 148.812914 Z M 152.481773 148.812914 " stroke="#000000" stroke-width="8.324" stroke-opacity="1" stroke-miterlimit="10"/><path stroke-linecap="round" transform="matrix(0.0220576, 0, 0, 0.0220576, 39.949118, 25.065201)" fill-opacity="1" fill="#9e9e9e" fill-rule="nonzero" stroke-linejoin="round" d="M 329.752029 148.812914 C 329.752029 151.292219 329.397843 153.771523 329.043656 156.250827 C 328.512377 158.730131 327.804004 161.032343 326.918538 163.334554 C 325.855979 165.459672 324.79342 167.761883 323.376675 169.709908 C 321.95993 171.835026 320.543184 173.605957 318.772253 175.376889 C 317.001321 177.14782 315.053296 178.741659 313.105272 180.158404 C 310.980154 181.398056 308.855036 182.637708 306.552825 183.523174 C 304.250613 184.40864 301.948402 185.117013 299.469098 185.648292 C 297.166887 186.179572 294.687583 186.356665 292.208278 186.356665 C 289.728974 186.356665 287.24967 186.179572 284.947459 185.648292 C 282.468154 185.117013 280.165943 184.40864 277.863732 183.523174 C 275.561521 182.637708 273.436403 181.398056 271.311285 180.158404 C 269.36326 178.741659 267.415236 177.14782 265.644304 175.376889 C 263.873372 173.605957 262.456627 171.835026 261.039882 169.709908 C 259.623136 167.761883 258.560577 165.459672 257.498018 163.334554 C 256.612553 161.032343 255.90418 158.730131 255.3729 156.250827 C 255.018714 153.771523 254.664528 151.292219 254.664528 148.812914 C 254.664528 146.510703 255.018714 144.031399 255.3729 141.552095 C 255.90418 139.249884 256.612553 136.770579 257.498018 134.645461 C 258.560577 132.34325 259.623136 130.041039 261.039882 128.093014 C 262.456627 125.967896 263.873372 124.196965 265.644304 122.426033 C 267.415236 120.655101 269.36326 119.061263 271.311285 117.644518 C 273.436403 116.404866 275.561521 115.165213 277.863732 114.279748 C 280.165943 113.394282 282.468154 112.685909 284.947459 112.15463 C 287.24967 111.62335 289.728974 111.446257 292.208278 111.446257 C 294.687583 111.446257 297.166887 111.62335 299.469098 112.15463 C 301.948402 112.685909 304.250613 113.394282 306.552825 114.279748 C 308.855036 115.165213 310.980154 116.404866 313.105272 117.644518 C 315.053296 119.061263 317.001321 120.655101 318.772253 122.426033 C 320.543184 124.196965 321.95993 125.967896 323.376675 128.093014 C 324.79342 130.041039 325.855979 132.34325 326.918538 134.645461 C 327.804004 136.770579 328.512377 139.249884 329.043656 141.552095 C 329.397843 144.031399 329.752029 146.510703 329.752029 148.812914 Z M 329.752029 148.812914 " stroke="#000000" stroke-width="8.324" stroke-opacity="1" stroke-miterlimit="10"/><path fill="#374046" d="M 46.882812 28.347656 C 46.882812 28.414062 46.871094 28.476562 46.84375 28.535156 C 46.820312 28.59375 46.785156 28.648438 46.738281 28.695312 C 46.691406 28.738281 46.640625 28.773438 46.582031 28.800781 C 46.519531 28.824219 46.457031 28.835938 46.394531 28.835938 C 46.328125 28.835938 46.265625 28.824219 46.207031 28.800781 C 46.148438 28.773438 46.09375 28.738281 46.050781 28.695312 C 46.003906 28.648438 45.96875 28.59375 45.945312 28.535156 C 45.917969 28.476562 45.90625 28.414062 45.90625 28.347656 C 45.90625 28.285156 45.917969 28.222656 45.945312 28.164062 C 45.96875 28.101562 46.003906 28.050781 46.050781 28.003906 C 46.09375 27.957031 46.148438 27.921875 46.207031 27.898438 C 46.265625 27.875 46.328125 27.863281 46.394531 27.863281 C 46.457031 27.863281 46.519531 27.875 46.582031 27.898438 C 46.640625 27.921875 46.691406 27.957031 46.738281 28.003906 C 46.785156 28.050781 46.820312 28.101562 46.84375 28.164062 C 46.871094 28.222656 46.882812 28.285156 46.882812 28.347656 Z M 46.882812 28.347656 " fill-opacity="1" fill-rule="nonzero"/><path stroke-linecap="round" transform="matrix(0.0220576, 0, 0, 0.0220576, 39.949118, 25.065201)" fill="none" stroke-linejoin="round" d="M 299.292005 137.124766 C 301.062936 138.187325 302.479682 139.60407 303.719334 141.375001 " stroke="#ffffff" stroke-width="8.324" stroke-opacity="0.2" stroke-miterlimit="10"/><path stroke-linecap="round" transform="matrix(0.0220576, 0, 0, 0.0220576, 39.949118, 25.065201)" fill="none" stroke-linejoin="round" d="M 287.072577 159.438504 C 284.947459 158.375945 283.35362 156.605014 282.113968 154.656989 " stroke="#000000" stroke-width="14.566" stroke-opacity="0.15" stroke-miterlimit="10"/><path stroke-linecap="round" transform="matrix(0.0220576, 0, 0, 0.0220576, 39.949118, 25.065201)" fill="none" stroke-linejoin="round" d="M 314.344924 148.812914 C 314.344924 151.823498 313.813644 154.656989 312.573992 157.313386 C 311.511433 160.146877 309.917595 162.449088 307.792477 164.574206 C 305.844452 166.522231 303.365148 168.116069 300.70875 169.355721 C 297.87526 170.41828 295.218862 170.94956 292.208278 170.94956 C 289.197695 170.94956 286.541297 170.41828 283.707806 169.355721 C 281.051409 168.116069 278.572105 166.522231 276.62408 164.574206 C 274.498962 162.449088 272.905124 160.146877 271.842565 157.313386 C 270.602912 154.656989 270.071633 151.823498 270.071633 148.812914 C 270.071633 145.979424 270.602912 143.145933 271.842565 140.489536 C 272.905124 137.656045 274.498962 135.353834 276.62408 133.228716 C 278.572105 131.103598 281.051409 129.686853 283.707806 128.447201 C 286.541297 127.384642 289.197695 126.853362 292.208278 126.853362 C 295.218862 126.853362 297.87526 127.384642 300.70875 128.447201 C 303.365148 129.686853 305.844452 131.103598 307.792477 133.228716 C 309.917595 135.353834 311.511433 137.656045 312.573992 140.489536 C 313.813644 143.145933 314.344924 145.979424 314.344924 148.812914 Z M 314.344924 148.812914 " stroke="#000000" stroke-width="8.324" stroke-opacity="1" stroke-miterlimit="10"/><path stroke-linecap="round" transform="matrix(0.0220576, 0, 0, 0.0220576, 39.949118, 25.065201)" fill-opacity="1" fill="#9e9e9e" fill-rule="nonzero" stroke-linejoin="round" d="M 116.886047 63.808196 L 94.926495 63.808196 L 94.926495 42.025737 L 76.508806 42.025737 L 76.508806 63.808196 L 54.726347 63.808196 L 54.726347 82.225885 L 76.508806 82.225885 L 76.508806 104.008344 L 94.926495 104.008344 L 94.926495 82.225885 L 116.886047 82.225885 Z M 116.886047 63.808196 " stroke="#000000" stroke-width="8.324" stroke-opacity="1" stroke-miterlimit="10"/><path stroke-linecap="round" transform="matrix(0.0220576, 0, 0, 0.0220576, 39.949118, 25.065201)" fill-opacity="1" fill="#04a9f4" fill-rule="nonzero" stroke-linejoin="round" d="M 320.188998 76.735997 C 320.188998 78.329836 319.834812 79.746581 319.303532 81.163326 C 318.772253 82.580071 317.886787 83.819724 316.824228 84.882283 C 315.761669 85.944842 314.522017 86.830307 313.105272 87.361587 C 311.688526 88.069959 310.271781 88.247053 308.677942 88.247053 C 307.261197 88.247053 305.667359 88.069959 304.250613 87.361587 C 302.833868 86.830307 301.594216 85.944842 300.531657 84.882283 C 299.469098 83.819724 298.583632 82.580071 298.052353 81.163326 C 297.521073 79.746581 297.166887 78.329836 297.166887 76.735997 C 297.166887 75.319252 297.521073 73.725413 298.052353 72.308668 C 298.583632 71.069016 299.469098 69.829364 300.531657 68.766805 C 301.594216 67.527153 302.833868 66.81878 304.250613 66.110407 C 305.667359 65.579128 307.261197 65.224941 308.677942 65.224941 C 310.271781 65.224941 311.688526 65.579128 313.105272 66.110407 C 314.522017 66.81878 315.761669 67.527153 316.824228 68.766805 C 317.886787 69.829364 318.772253 71.069016 319.303532 72.308668 C 319.834812 73.725413 320.188998 75.319252 320.188998 76.735997 Z M 320.188998 76.735997 " stroke="#000000" stroke-width="8.324" stroke-opacity="1" stroke-miterlimit="10"/><path stroke-linecap="round" transform="matrix(0.0220576, 0, 0, 0.0220576, 39.949118, 25.065201)" fill-opacity="1" fill="#8bc34a" fill-rule="nonzero" stroke-linejoin="round" d="M 345.159134 49.640743 C 345.159134 51.234582 344.804948 52.651327 344.273668 54.068072 C 343.565296 55.484818 342.856923 56.72447 341.794364 57.787029 C 340.554712 58.849588 339.492153 59.735053 338.075407 60.266333 C 336.658662 60.974706 335.064824 61.151799 333.648078 61.151799 C 332.05424 61.151799 330.637495 60.974706 329.220749 60.266333 C 327.804004 59.735053 326.564352 58.849588 325.501793 57.787029 C 324.439234 56.72447 323.553768 55.484818 323.022489 54.068072 C 322.314116 52.651327 322.137023 51.234582 322.137023 49.640743 C 322.137023 48.223998 322.314116 46.807253 323.022489 45.390507 C 323.553768 43.973762 324.439234 42.557017 325.501793 41.494458 C 326.564352 40.431899 327.804004 39.723526 329.220749 39.015153 C 330.637495 38.483874 332.05424 38.129688 333.648078 38.129688 C 335.064824 38.129688 336.658662 38.483874 338.075407 39.015153 C 339.492153 39.723526 340.554712 40.431899 341.794364 41.494458 C 342.856923 42.557017 343.565296 43.973762 344.273668 45.390507 C 344.804948 46.807253 345.159134 48.223998 345.159134 49.640743 Z M 345.159134 49.640743 " stroke="#000000" stroke-width="8.324" stroke-opacity="1" stroke-miterlimit="10"/><path stroke-linecap="round" transform="matrix(0.0220576, 0, 0, 0.0220576, 39.949118, 25.065201)" fill-opacity="1" fill="#8bc34a" fill-rule="nonzero" stroke-linejoin="round" d="M 351.357395 95.507872 C 351.357395 97.101711 351.180302 98.518456 350.471929 99.935201 C 349.940649 101.351947 349.055184 102.591599 347.992625 103.654158 C 346.930066 104.716717 345.690413 105.602183 344.273668 106.133462 C 342.856923 106.664742 341.440178 107.018928 339.846339 107.018928 C 338.429594 107.018928 336.835755 106.664742 335.596103 106.133462 C 334.179358 105.602183 332.762613 104.716717 331.700054 103.654158 C 330.637495 102.591599 329.929122 101.351947 329.220749 99.935201 C 328.68947 98.518456 328.335284 97.101711 328.335284 95.507872 C 328.335284 93.914034 328.68947 92.497289 329.220749 91.080543 C 329.929122 89.663798 330.637495 88.424146 331.700054 87.361587 C 332.762613 86.299028 334.179358 85.413562 335.596103 84.882283 C 336.835755 84.351003 338.429594 83.996817 339.846339 83.996817 C 341.440178 83.996817 342.856923 84.351003 344.273668 84.882283 C 345.690413 85.413562 346.930066 86.299028 347.992625 87.361587 C 349.055184 88.424146 349.940649 89.663798 350.471929 91.080543 C 351.180302 92.497289 351.357395 93.914034 351.357395 95.507872 Z M 351.357395 95.507872 " stroke="#000000" stroke-width="8.324" stroke-opacity="1" stroke-miterlimit="10"/><path stroke-linecap="round" transform="matrix(0.0220576, 0, 0, 0.0220576, 39.949118, 25.065201)" fill-opacity="1" fill="#f44336" fill-rule="nonzero" stroke-linejoin="round" d="M 376.327531 68.589712 C 376.327531 70.006457 375.973344 71.423202 375.442065 72.839947 C 374.910785 74.256693 374.02532 75.496345 372.962761 76.558904 C 371.900202 77.798556 370.660549 78.506929 369.243804 79.215301 C 367.827059 79.746581 366.23322 80.100767 364.816475 80.100767 C 363.222637 80.100767 361.805891 79.746581 360.389146 79.215301 C 358.972401 78.506929 357.732749 77.798556 356.67019 76.558904 C 355.607631 75.496345 354.722165 74.256693 354.190885 72.839947 C 353.659606 71.423202 353.305419 70.006457 353.305419 68.589712 C 353.305419 66.995873 353.659606 65.579128 354.190885 64.162382 C 354.722165 62.745637 355.607631 61.505985 356.67019 60.443426 C 357.732749 59.380867 358.972401 58.495401 360.389146 57.964122 C 361.805891 57.255749 363.222637 57.078656 364.816475 57.078656 C 366.23322 57.078656 367.827059 57.255749 369.243804 57.964122 C 370.660549 58.495401 371.900202 59.380867 372.962761 60.443426 C 374.02532 61.505985 374.910785 62.745637 375.442065 64.162382 C 375.973344 65.579128 376.327531 66.995873 376.327531 68.589712 Z M 376.327531 68.589712 " stroke="#000000" stroke-width="8.324" stroke-opacity="1" stroke-miterlimit="10"/><path stroke-linecap="round" transform="matrix(0.0220576, 0, 0, 0.0220576, 39.949118, 25.065201)" fill="none" stroke-linejoin="round" d="M 221.902293 116.581959 L 242.976379 116.581959 " stroke="#000000" stroke-width="8.324" stroke-opacity="1" stroke-miterlimit="10"/><path stroke-linecap="round" transform="matrix(0.0220576, 0, 0, 0.0220576, 39.949118, 25.065201)" fill="none" stroke-linejoin="round" d="M 180.285399 116.581959 L 201.359486 116.581959 " stroke="#000000" stroke-width="8.324" stroke-opacity="1" stroke-miterlimit="10"/><g clip-path="url(#130d1e7378)"><path fill="#fc5658" d="M 35.140625 36.105469 L 35.140625 36.113281 C 35.140625 36.117188 35.140625 36.117188 35.140625 36.121094 C 35.140625 37.347656 34.136719 38.34375 32.894531 38.34375 L 25.410156 38.34375 C 24.171875 38.34375 23.167969 37.34375 23.167969 36.121094 C 23.167969 36.113281 23.167969 36.109375 23.167969 36.105469 C 23.167969 36.097656 23.167969 36.09375 23.167969 36.089844 C 23.1875 34.875 24.179688 33.894531 25.410156 33.894531 L 32.894531 33.894531 C 32.894531 33.894531 32.894531 33.894531 32.898438 33.894531 C 34.128906 33.894531 35.128906 34.882812 35.140625 36.105469 Z M 35.140625 36.105469 L 35.140625 36.113281 C 35.140625 36.117188 35.140625 36.117188 35.140625 36.121094 C 35.140625 37.347656 34.136719 38.34375 32.894531 38.34375 L 25.410156 38.34375 C 24.171875 38.34375 23.167969 37.34375 23.167969 36.121094 C 23.167969 36.113281 23.167969 36.109375 23.167969 36.105469 C 23.167969 36.097656 23.167969 36.09375 23.167969 36.089844 C 23.1875 34.875 24.179688 33.894531 25.410156 33.894531 L 32.894531 33.894531 C 32.894531 33.894531 32.894531 33.894531 32.898438 33.894531 C 34.128906 33.894531 35.128906 34.882812 35.140625 36.105469 Z M 35.140625 36.105469 " fill-opacity="1" fill-rule="nonzero"/></g><path fill="#1f1347" d="M 26.554688 35.179688 L 26.96875 35.179688 C 27.09375 35.179688 27.195312 35.214844 27.269531 35.289062 C 27.34375 35.363281 27.378906 35.464844 27.378906 35.589844 L 27.378906 35.789062 C 27.378906 35.917969 27.34375 36.015625 27.269531 36.089844 C 27.195312 36.164062 27.09375 36.199219 26.96875 36.199219 L 26.820312 36.199219 L 26.820312 36.894531 L 26.554688 36.894531 C 26.554688 36.894531 26.554688 35.179688 26.554688 35.179688 Z M 26.953125 35.957031 C 27.003906 35.957031 27.042969 35.941406 27.070312 35.914062 C 27.097656 35.886719 27.113281 35.847656 27.113281 35.796875 L 27.113281 35.585938 C 27.113281 35.53125 27.097656 35.496094 27.070312 35.46875 C 27.042969 35.441406 27 35.425781 26.953125 35.425781 L 26.816406 35.425781 L 26.816406 35.957031 Z M 27.96875 35.179688 L 28.230469 35.179688 L 28.230469 36.652344 L 28.699219 36.652344 L 28.699219 36.898438 L 27.96875 36.898438 Z M 29.816406 36.519531 L 29.535156 36.519531 L 29.480469 36.898438 L 29.214844 36.898438 L 29.503906 35.179688 L 29.859375 35.179688 L 30.144531 36.898438 L 29.878906 36.898438 Z M 29.78125 36.265625 L 29.679688 35.546875 L 29.574219 36.265625 Z M 31.484375 35.179688 L 31.128906 36.179688 L 31.128906 36.898438 L 30.867188 36.898438 L 30.867188 36.179688 L 30.515625 35.179688 L 30.792969 35.179688 L 30.996094 35.835938 L 31.203125 35.179688 C 31.203125 35.179688 31.484375 35.179688 31.484375 35.179688 Z M 31.484375 35.179688 " fill-opacity="1" fill-rule="nonzero"/><g clip-path="url(#444dc37f46)"><path fill="#1f1347" d="M 32.898438 33.894531 C 32.894531 33.894531 32.894531 33.894531 32.898438 33.894531 L 25.410156 33.894531 C 24.179688 33.894531 23.1875 34.875 23.167969 36.089844 C 23.167969 36.09375 23.167969 36.097656 23.167969 36.105469 C 23.167969 36.109375 23.167969 36.113281 23.167969 36.121094 C 23.167969 36.179688 23.171875 36.234375 23.171875 36.289062 L 23.167969 36.289062 L 23.167969 36.679688 C 23.167969 36.6875 23.167969 36.691406 23.167969 36.695312 C 23.167969 36.703125 23.167969 36.707031 23.167969 36.710938 C 23.167969 37.9375 24.171875 38.9375 25.410156 38.9375 L 32.894531 38.9375 C 34.136719 38.9375 35.140625 37.941406 35.140625 36.710938 C 35.140625 36.710938 35.140625 36.710938 35.140625 36.707031 L 35.140625 36.289062 L 35.132812 36.289062 C 35.136719 36.234375 35.140625 36.179688 35.140625 36.121094 C 35.140625 36.117188 35.140625 36.117188 35.140625 36.113281 L 35.140625 36.105469 C 35.128906 34.882812 34.128906 33.894531 32.898438 33.894531 Z M 23.476562 36.105469 L 23.476562 36.09375 C 23.484375 35.585938 23.691406 35.113281 24.050781 34.753906 C 24.414062 34.398438 24.898438 34.203125 25.410156 34.203125 L 32.898438 34.203125 C 33.410156 34.203125 33.894531 34.398438 34.257812 34.757812 C 34.621094 35.117188 34.828125 35.59375 34.828125 36.105469 L 34.828125 36.121094 C 34.828125 37.175781 33.960938 38.035156 32.894531 38.035156 L 25.410156 38.035156 C 24.34375 38.035156 23.476562 37.175781 23.476562 36.121094 Z M 23.476562 36.105469 " fill-opacity="1" fill-rule="nonzero"/></g><g clip-path="url(#2e8497b4df)"><path fill="#8492a1" d="M 12.523438 30.433594 L 14.636719 30.433594 L 14.636719 28.167969 C 14.636719 28.082031 14.703125 28.015625 14.789062 28.015625 L 17.054688 28.015625 L 17.054688 25.902344 L 14.789062 25.902344 C 14.703125 25.902344 14.636719 25.835938 14.636719 25.75 L 14.636719 23.484375 L 12.523438 23.484375 L 12.523438 25.75 C 12.523438 25.835938 12.453125 25.902344 12.371094 25.902344 L 10.105469 25.902344 L 10.105469 28.015625 L 12.371094 28.015625 C 12.453125 28.015625 12.523438 28.082031 12.523438 28.167969 Z M 14.789062 30.738281 L 12.371094 30.738281 C 12.285156 30.738281 12.21875 30.671875 12.21875 30.585938 L 12.21875 28.320312 L 9.953125 28.320312 C 9.867188 28.320312 9.800781 28.253906 9.800781 28.167969 L 9.800781 25.75 C 9.800781 25.664062 9.867188 25.597656 9.953125 25.597656 L 12.21875 25.597656 L 12.21875 23.332031 C 12.21875 23.246094 12.285156 23.179688 12.371094 23.179688 L 14.789062 23.179688 C 14.871094 23.179688 14.941406 23.246094 14.941406 23.332031 L 14.941406 25.597656 L 17.207031 25.597656 C 17.289062 25.597656 17.359375 25.664062 17.359375 25.75 L 17.359375 28.167969 C 17.359375 28.253906 17.289062 28.320312 17.207031 28.320312 L 14.941406 28.320312 L 14.941406 30.585938 C 14.941406 30.671875 14.871094 30.738281 14.789062 30.738281 " fill-opacity="1" fill-rule="nonzero"/></g><path fill="#fcc033" d="M 13.355469 24.8125 L 13.804688 24.8125 L 13.578125 24.421875 Z M 14.070312 25.117188 L 13.089844 25.117188 C 13.035156 25.117188 12.984375 25.089844 12.957031 25.042969 C 12.929688 24.996094 12.929688 24.9375 12.957031 24.890625 L 13.445312 24.039062 C 13.472656 23.992188 13.523438 23.964844 13.578125 23.964844 C 13.632812 23.964844 13.683594 23.992188 13.710938 24.039062 L 14.203125 24.890625 C 14.230469 24.9375 14.230469 24.996094 14.203125 25.042969 C 14.175781 25.089844 14.125 25.117188 14.070312 25.117188 " fill-opacity="1" fill-rule="nonzero"/><path fill="#3bb0ce" d="M 13.355469 29.105469 L 13.578125 29.496094 L 13.804688 29.105469 Z M 13.578125 29.953125 C 13.523438 29.953125 13.472656 29.925781 13.445312 29.878906 L 12.957031 29.027344 C 12.929688 28.980469 12.929688 28.921875 12.957031 28.875 C 12.984375 28.828125 13.035156 28.800781 13.089844 28.800781 L 14.070312 28.800781 C 14.125 28.800781 14.175781 28.828125 14.203125 28.875 C 14.230469 28.921875 14.230469 28.980469 14.203125 29.027344 L 13.710938 29.878906 C 13.683594 29.925781 13.632812 29.953125 13.578125 29.953125 " fill-opacity="1" fill-rule="nonzero"/><path fill="#97bf1f" d="M 11.042969 26.960938 L 11.433594 27.183594 L 11.433594 26.734375 Z M 11.585938 27.601562 C 11.558594 27.601562 11.53125 27.59375 11.511719 27.582031 L 10.660156 27.09375 C 10.613281 27.0625 10.582031 27.015625 10.582031 26.960938 C 10.582031 26.90625 10.613281 26.855469 10.660156 26.828125 L 11.511719 26.335938 C 11.558594 26.308594 11.617188 26.308594 11.664062 26.335938 C 11.710938 26.363281 11.738281 26.414062 11.738281 26.46875 L 11.738281 27.449219 C 11.738281 27.503906 11.710938 27.554688 11.664062 27.582031 C 11.640625 27.59375 11.613281 27.601562 11.585938 27.601562 " fill-opacity="1" fill-rule="nonzero"/><path fill="#d70c3f" d="M 15.726562 26.734375 L 15.726562 27.183594 L 16.117188 26.960938 Z M 15.574219 27.601562 C 15.546875 27.601562 15.519531 27.59375 15.496094 27.582031 C 15.449219 27.554688 15.421875 27.503906 15.421875 27.449219 L 15.421875 26.46875 C 15.421875 26.414062 15.449219 26.363281 15.496094 26.335938 C 15.542969 26.308594 15.601562 26.308594 15.648438 26.335938 L 16.5 26.828125 C 16.546875 26.855469 16.574219 26.90625 16.574219 26.960938 C 16.574219 27.015625 16.546875 27.0625 16.5 27.09375 L 15.648438 27.582031 C 15.625 27.59375 15.597656 27.601562 15.574219 27.601562 " fill-opacity="1" fill-rule="nonzero"/><path fill="#ff00ff" d="M 18.011719 28.792969 L 17.242188 28.792969 L 17.242188 28.023438 L 18.78125 28.023438 L 18.78125 28.792969 L 20.320312 28.792969 L 20.320312 27.257812 L 18.011719 27.257812 L 18.011719 26.484375 L 17.242188 26.484375 L 17.242188 24.945312 L 18.011719 24.945312 L 18.011719 24.171875 L 21.09375 24.171875 L 21.09375 24.945312 L 21.863281 24.945312 L 21.863281 25.714844 L 20.320312 25.714844 L 20.320312 24.945312 L 18.78125 24.945312 L 18.78125 26.484375 L 21.09375 26.484375 L 21.09375 27.257812 L 21.863281 27.257812 L 21.863281 28.792969 L 21.09375 28.792969 L 21.09375 29.5625 L 18.011719 29.5625 Z M 18.011719 28.792969 " fill-opacity="1" fill-rule="nonzero"/><path fill="#ff00ff" d="M 23.171875 24.171875 L 24.710938 24.171875 L 24.710938 26.484375 L 27.023438 26.484375 L 27.023438 24.171875 L 28.5625 24.171875 L 28.5625 29.5625 L 27.023438 29.5625 L 27.023438 27.257812 L 24.710938 27.257812 L 24.710938 29.5625 L 23.171875 29.5625 Z M 23.171875 24.171875 " fill-opacity="1" fill-rule="nonzero"/><path fill="#ff00ff" d="M 30.636719 25.714844 L 30.636719 24.945312 L 31.40625 24.945312 L 31.40625 24.171875 L 34.488281 24.171875 L 34.488281 24.945312 L 35.257812 24.945312 L 35.257812 25.714844 L 36.023438 25.714844 L 36.023438 28.023438 L 35.257812 28.023438 L 35.257812 28.792969 L 34.488281 28.792969 L 34.488281 29.5625 L 31.40625 29.5625 L 31.40625 28.792969 L 30.636719 28.792969 L 30.636719 28.023438 L 29.867188 28.023438 L 29.867188 25.714844 Z M 33.71875 25.714844 L 33.71875 24.945312 L 32.175781 24.945312 L 32.175781 25.707031 L 31.40625 25.707031 L 31.40625 28.03125 L 32.175781 28.03125 L 32.175781 28.792969 L 33.71875 28.792969 L 33.71875 28.023438 L 34.488281 28.023438 L 34.488281 25.714844 Z M 33.71875 25.714844 " fill-opacity="1" fill-rule="nonzero"/><path fill="#ff00ff" d="M 38.875 26.484375 L 40.414062 26.484375 L 40.414062 24.945312 L 38.875 24.945312 Z M 41.183594 26.484375 L 41.183594 27.257812 L 38.875 27.257812 L 38.875 29.5625 L 37.332031 29.5625 L 37.332031 24.171875 L 41.183594 24.171875 L 41.183594 24.945312 L 41.953125 24.945312 L 41.953125 26.484375 Z M 41.183594 26.484375 " fill-opacity="1" fill-rule="nonzero"/><path fill="#00ffff" d="M 17.722656 28.792969 L 16.953125 28.792969 L 16.953125 28.023438 L 18.496094 28.023438 L 18.496094 28.792969 L 20.03125 28.792969 L 20.03125 27.257812 L 17.722656 27.257812 L 17.722656 26.484375 L 16.953125 26.484375 L 16.953125 24.945312 L 17.722656 24.945312 L 17.722656 24.171875 L 20.804688 24.171875 L 20.804688 24.945312 L 21.574219 24.945312 L 21.574219 25.714844 L 20.03125 25.714844 L 20.03125 24.945312 L 18.496094 24.945312 L 18.496094 26.484375 L 20.804688 26.484375 L 20.804688 27.257812 L 21.574219 27.257812 L 21.574219 28.792969 L 20.804688 28.792969 L 20.804688 29.5625 L 17.722656 29.5625 Z M 17.722656 28.792969 " fill-opacity="1" fill-rule="nonzero"/><path fill="#00ffff" d="M 22.882812 24.171875 L 24.421875 24.171875 L 24.421875 26.484375 L 26.734375 26.484375 L 26.734375 24.171875 L 28.273438 24.171875 L 28.273438 29.5625 L 26.734375 29.5625 L 26.734375 27.257812 L 24.421875 27.257812 L 24.421875 29.5625 L 22.882812 29.5625 Z M 22.882812 24.171875 " fill-opacity="1" fill-rule="nonzero"/><path fill="#00ffff" d="M 30.347656 25.714844 L 30.347656 24.945312 L 31.117188 24.945312 L 31.117188 24.171875 L 34.199219 24.171875 L 34.199219 24.945312 L 34.96875 24.945312 L 34.96875 25.714844 L 35.734375 25.714844 L 35.734375 28.023438 L 34.96875 28.023438 L 34.96875 28.792969 L 34.199219 28.792969 L 34.199219 29.5625 L 31.117188 29.5625 L 31.117188 28.792969 L 30.347656 28.792969 L 30.347656 28.023438 L 29.578125 28.023438 L 29.578125 25.714844 Z M 33.429688 25.714844 L 33.429688 24.945312 L 31.886719 24.945312 L 31.886719 25.707031 L 31.117188 25.707031 L 31.117188 28.03125 L 31.886719 28.03125 L 31.886719 28.792969 L 33.429688 28.792969 L 33.429688 28.023438 L 34.199219 28.023438 L 34.199219 25.714844 Z M 33.429688 25.714844 " fill-opacity="1" fill-rule="nonzero"/><path fill="#00ffff" d="M 38.585938 26.484375 L 40.128906 26.484375 L 40.128906 24.945312 L 38.585938 24.945312 Z M 40.894531 26.484375 L 40.894531 27.257812 L 38.585938 27.257812 L 38.585938 29.5625 L 37.042969 29.5625 L 37.042969 24.171875 L 40.894531 24.171875 L 40.894531 24.945312 L 41.664062 24.945312 L 41.664062 26.484375 Z M 40.894531 26.484375 " fill-opacity="1" fill-rule="nonzero"/><path fill="#7ed957" d="M 17.867188 28.792969 L 17.097656 28.792969 L 17.097656 28.023438 L 18.640625 28.023438 L 18.640625 28.792969 L 20.175781 28.792969 L 20.175781 27.257812 L 17.867188 27.257812 L 17.867188 26.484375 L 17.097656 26.484375 L 17.097656 24.945312 L 17.867188 24.945312 L 17.867188 24.171875 L 20.949219 24.171875 L 20.949219 24.945312 L 21.71875 24.945312 L 21.71875 25.714844 L 20.175781 25.714844 L 20.175781 24.945312 L 18.640625 24.945312 L 18.640625 26.484375 L 20.949219 26.484375 L 20.949219 27.257812 L 21.71875 27.257812 L 21.71875 28.792969 L 20.949219 28.792969 L 20.949219 29.5625 L 17.867188 29.5625 Z M 17.867188 28.792969 " fill-opacity="1" fill-rule="nonzero"/><path fill="#7ed957" d="M 23.027344 24.171875 L 24.566406 24.171875 L 24.566406 26.484375 L 26.878906 26.484375 L 26.878906 24.171875 L 28.417969 24.171875 L 28.417969 29.5625 L 26.878906 29.5625 L 26.878906 27.257812 L 24.566406 27.257812 L 24.566406 29.5625 L 23.027344 29.5625 Z M 23.027344 24.171875 " fill-opacity="1" fill-rule="nonzero"/><path fill="#7ed957" d="M 30.492188 25.714844 L 30.492188 24.945312 L 31.261719 24.945312 L 31.261719 24.171875 L 34.34375 24.171875 L 34.34375 24.945312 L 35.113281 24.945312 L 35.113281 25.714844 L 35.878906 25.714844 L 35.878906 28.023438 L 35.113281 28.023438 L 35.113281 28.792969 L 34.34375 28.792969 L 34.34375 29.5625 L 31.261719 29.5625 L 31.261719 28.792969 L 30.492188 28.792969 L 30.492188 28.023438 L 29.722656 28.023438 L 29.722656 25.714844 Z M 33.574219 25.714844 L 33.574219 24.945312 L 32.03125 24.945312 L 32.03125 25.707031 L 31.261719 25.707031 L 31.261719 28.03125 L 32.03125 28.03125 L 32.03125 28.792969 L 33.574219 28.792969 L 33.574219 28.023438 L 34.34375 28.023438 L 34.34375 25.714844 Z M 33.574219 25.714844 " fill-opacity="1" fill-rule="nonzero"/><path fill="#7ed957" d="M 38.730469 26.484375 L 40.269531 26.484375 L 40.269531 24.945312 L 38.730469 24.945312 Z M 41.039062 26.484375 L 41.039062 27.257812 L 38.730469 27.257812 L 38.730469 29.5625 L 37.1875 29.5625 L 37.1875 24.171875 L 41.039062 24.171875 L 41.039062 24.945312 L 41.808594 24.945312 L 41.808594 26.484375 Z M 41.039062 26.484375 " fill-opacity="1" fill-rule="nonzero"/><path fill="#ff00ff" d="M 13.367188 32.402344 L 14.960938 32.402344 L 14.960938 32.800781 L 12.96875 32.800781 L 12.96875 30.011719 L 14.960938 30.011719 L 14.960938 30.410156 L 13.367188 30.410156 L 13.367188 31.207031 L 14.5625 31.207031 L 14.5625 31.605469 L 13.367188 31.605469 Z M 13.367188 32.402344 " fill-opacity="1" fill-rule="nonzero"/><path fill="#ff00ff" d="M 17.351562 32.402344 L 17.351562 32.800781 L 15.757812 32.800781 L 15.757812 30.011719 L 16.152344 30.011719 L 16.152344 32.402344 Z M 17.351562 32.402344 " fill-opacity="1" fill-rule="nonzero"/><path fill="#ff00ff" d="M 18.546875 32.402344 L 20.140625 32.402344 L 20.140625 32.800781 L 18.148438 32.800781 L 18.148438 30.011719 L 20.140625 30.011719 L 20.140625 30.410156 L 18.546875 30.410156 L 18.546875 31.207031 L 19.742188 31.207031 L 19.742188 31.605469 L 18.546875 31.605469 Z M 18.546875 32.402344 " fill-opacity="1" fill-rule="nonzero"/><path fill="#ff00ff" d="M 20.9375 30.011719 L 22.929688 30.011719 L 22.929688 30.410156 L 22.132812 30.410156 L 22.132812 32.800781 L 21.734375 32.800781 L 21.734375 30.410156 L 20.9375 30.410156 Z M 20.9375 30.011719 " fill-opacity="1" fill-rule="nonzero"/><path fill="#ff00ff" d="M 24.121094 31.605469 L 24.121094 32.800781 L 23.726562 32.800781 L 23.726562 30.011719 L 25.316406 30.011719 L 25.316406 30.410156 L 25.71875 30.410156 L 25.71875 31.207031 L 25.316406 31.207031 L 25.316406 31.605469 Z M 24.121094 31.207031 L 25.3125 31.207031 L 25.3125 30.410156 L 24.121094 30.410156 Z M 25.71875 31.605469 L 25.71875 32.800781 L 25.316406 32.800781 L 25.316406 31.605469 Z M 25.71875 31.605469 " fill-opacity="1" fill-rule="nonzero"/><path fill="#ff00ff" d="M 26.910156 32 L 26.511719 32 L 26.511719 30.804688 L 26.910156 30.804688 L 26.910156 30.410156 L 27.3125 30.410156 L 27.3125 30.011719 L 28.503906 30.011719 L 28.503906 30.410156 L 28.902344 30.410156 L 28.902344 30.804688 L 29.300781 30.804688 L 29.300781 32 L 28.902344 32 L 28.902344 32.402344 L 28.503906 32.402344 L 28.503906 32.800781 L 27.3125 32.800781 L 27.3125 32.402344 L 26.910156 32.402344 Z M 27.3125 32.394531 L 28.503906 32.394531 L 28.503906 32 L 28.898438 32 L 28.898438 30.804688 L 28.503906 30.804688 L 28.503906 30.414062 L 27.3125 30.414062 L 27.3125 30.804688 L 26.914062 30.804688 L 26.914062 32 L 27.3125 32 Z M 27.3125 32.394531 " fill-opacity="1" fill-rule="nonzero"/><path fill="#ff00ff" d="M 32.089844 31.605469 L 32.089844 30.011719 L 32.488281 30.011719 L 32.488281 32.800781 L 32.089844 32.800781 L 32.089844 32 L 31.6875 32 L 31.6875 31.605469 L 31.292969 31.605469 L 31.292969 31.207031 L 30.894531 31.207031 L 30.894531 30.804688 L 30.496094 30.804688 L 30.496094 32.800781 L 30.097656 32.800781 L 30.097656 30.011719 L 30.496094 30.011719 L 30.496094 30.410156 L 30.894531 30.410156 L 30.894531 30.804688 L 31.292969 30.804688 L 31.292969 31.207031 L 31.6875 31.207031 L 31.6875 31.605469 Z M 32.089844 31.605469 " fill-opacity="1" fill-rule="nonzero"/><path fill="#ff00ff" d="M 33.28125 30.011719 L 33.679688 30.011719 L 33.679688 32.800781 L 33.28125 32.800781 Z M 33.28125 30.011719 " fill-opacity="1" fill-rule="nonzero"/><path fill="#ff00ff" d="M 36.867188 30.410156 L 36.867188 30.804688 L 36.46875 30.804688 L 36.46875 30.410156 L 35.273438 30.410156 L 35.273438 30.011719 L 36.46875 30.011719 L 36.46875 30.410156 Z M 35.273438 32.007812 L 35.273438 32.402344 L 36.46875 32.402344 L 36.46875 32.800781 L 35.273438 32.800781 L 35.273438 32.402344 L 34.875 32.402344 L 34.875 32.007812 Z M 34.875 30.804688 L 34.875 32 L 34.476562 32 L 34.476562 30.804688 Z M 36.46875 32.402344 L 36.46875 32 L 36.867188 32 L 36.867188 32.402344 Z M 35.273438 30.804688 L 34.875 30.804688 L 34.875 30.410156 L 35.273438 30.410156 Z M 35.273438 30.804688 " fill-opacity="1" fill-rule="nonzero"/><path fill="#ff00ff" d="M 38.058594 32 L 37.660156 32 L 37.660156 30.804688 L 38.058594 30.804688 L 38.058594 30.410156 L 38.457031 30.410156 L 38.457031 30.011719 L 39.652344 30.011719 L 39.652344 30.410156 L 40.050781 30.410156 L 40.050781 30.804688 L 40.449219 30.804688 L 40.449219 32 L 40.050781 32 L 40.050781 32.402344 L 39.652344 32.402344 L 39.652344 32.800781 L 38.457031 32.800781 L 38.457031 32.402344 L 38.058594 32.402344 Z M 38.457031 32.394531 L 39.652344 32.394531 L 39.652344 32 L 40.046875 32 L 40.046875 30.804688 L 39.652344 30.804688 L 39.652344 30.414062 L 38.457031 30.414062 L 38.457031 30.804688 L 38.0625 30.804688 L 38.0625 32 L 38.457031 32 Z M 38.457031 32.394531 " fill-opacity="1" fill-rule="nonzero"/><path fill="#ff00ff" d="M 41.640625 31.207031 L 42.835938 31.207031 L 42.835938 31.605469 L 43.238281 31.605469 L 43.238281 32.402344 L 42.835938 32.402344 L 42.835938 31.605469 L 41.640625 31.605469 Z M 41.640625 30.011719 L 42.835938 30.011719 L 42.835938 30.410156 L 43.238281 30.410156 L 43.238281 30.804688 L 42.835938 30.804688 L 42.835938 30.410156 L 41.640625 30.410156 Z M 41.640625 32.402344 L 42.835938 32.402344 L 42.835938 32.800781 L 41.640625 32.800781 Z M 41.640625 31.207031 L 41.246094 31.207031 L 41.246094 30.410156 L 41.640625 30.410156 Z M 41.640625 32.402344 L 41.246094 32.402344 L 41.246094 32 L 41.640625 32 Z M 41.640625 32.402344 " fill-opacity="1" fill-rule="nonzero"/><path fill="#00ffff" d="M 13.21875 32.402344 L 14.8125 32.402344 L 14.8125 32.800781 L 12.820312 32.800781 L 12.820312 30.011719 L 14.8125 30.011719 L 14.8125 30.410156 L 13.21875 30.410156 L 13.21875 31.207031 L 14.414062 31.207031 L 14.414062 31.605469 L 13.21875 31.605469 Z M 13.21875 32.402344 " fill-opacity="1" fill-rule="nonzero"/><path fill="#00ffff" d="M 17.203125 32.402344 L 17.203125 32.800781 L 15.609375 32.800781 L 15.609375 30.011719 L 16.003906 30.011719 L 16.003906 32.402344 Z M 17.203125 32.402344 " fill-opacity="1" fill-rule="nonzero"/><path fill="#00ffff" d="M 18.394531 32.402344 L 19.992188 32.402344 L 19.992188 32.800781 L 18 32.800781 L 18 30.011719 L 19.992188 30.011719 L 19.992188 30.410156 L 18.394531 30.410156 L 18.394531 31.207031 L 19.589844 31.207031 L 19.589844 31.605469 L 18.394531 31.605469 Z M 18.394531 32.402344 " fill-opacity="1" fill-rule="nonzero"/><path fill="#00ffff" d="M 20.789062 30.011719 L 22.78125 30.011719 L 22.78125 30.410156 L 21.980469 30.410156 L 21.980469 32.800781 L 21.585938 32.800781 L 21.585938 30.410156 L 20.789062 30.410156 Z M 20.789062 30.011719 " fill-opacity="1" fill-rule="nonzero"/><path fill="#00ffff" d="M 23.972656 31.605469 L 23.972656 32.800781 L 23.574219 32.800781 L 23.574219 30.011719 L 25.167969 30.011719 L 25.167969 30.410156 L 25.566406 30.410156 L 25.566406 31.207031 L 25.167969 31.207031 L 25.167969 31.605469 Z M 23.972656 31.207031 L 25.164062 31.207031 L 25.164062 30.410156 L 23.972656 30.410156 Z M 25.566406 31.605469 L 25.566406 32.800781 L 25.167969 32.800781 L 25.167969 31.605469 Z M 25.566406 31.605469 " fill-opacity="1" fill-rule="nonzero"/><path fill="#00ffff" d="M 26.761719 32 L 26.363281 32 L 26.363281 30.804688 L 26.761719 30.804688 L 26.761719 30.410156 L 27.160156 30.410156 L 27.160156 30.011719 L 28.355469 30.011719 L 28.355469 30.410156 L 28.753906 30.410156 L 28.753906 30.804688 L 29.152344 30.804688 L 29.152344 32 L 28.753906 32 L 28.753906 32.402344 L 28.355469 32.402344 L 28.355469 32.800781 L 27.160156 32.800781 L 27.160156 32.402344 L 26.761719 32.402344 Z M 27.160156 32.394531 L 28.355469 32.394531 L 28.355469 32 L 28.75 32 L 28.75 30.804688 L 28.355469 30.804688 L 28.355469 30.414062 L 27.160156 30.414062 L 27.160156 30.804688 L 26.765625 30.804688 L 26.765625 32 L 27.160156 32 Z M 27.160156 32.394531 " fill-opacity="1" fill-rule="nonzero"/><path fill="#00ffff" d="M 31.941406 31.605469 L 31.941406 30.011719 L 32.335938 30.011719 L 32.335938 32.800781 L 31.941406 32.800781 L 31.941406 32 L 31.539062 32 L 31.539062 31.605469 L 31.140625 31.605469 L 31.140625 31.207031 L 30.746094 31.207031 L 30.746094 30.804688 L 30.34375 30.804688 L 30.34375 32.800781 L 29.949219 32.800781 L 29.949219 30.011719 L 30.34375 30.011719 L 30.34375 30.410156 L 30.746094 30.410156 L 30.746094 30.804688 L 31.140625 30.804688 L 31.140625 31.207031 L 31.539062 31.207031 L 31.539062 31.605469 Z M 31.941406 31.605469 " fill-opacity="1" fill-rule="nonzero"/><path fill="#00ffff" d="M 33.132812 30.011719 L 33.53125 30.011719 L 33.53125 32.800781 L 33.132812 32.800781 Z M 33.132812 30.011719 " fill-opacity="1" fill-rule="nonzero"/><path fill="#00ffff" d="M 36.714844 30.410156 L 36.714844 30.804688 L 36.320312 30.804688 L 36.320312 30.410156 L 35.125 30.410156 L 35.125 30.011719 L 36.320312 30.011719 L 36.320312 30.410156 Z M 35.125 32.007812 L 35.125 32.402344 L 36.320312 32.402344 L 36.320312 32.800781 L 35.125 32.800781 L 35.125 32.402344 L 34.722656 32.402344 L 34.722656 32.007812 Z M 34.722656 30.804688 L 34.722656 32 L 34.328125 32 L 34.328125 30.804688 Z M 36.320312 32.402344 L 36.320312 32 L 36.714844 32 L 36.714844 32.402344 Z M 35.125 30.804688 L 34.722656 30.804688 L 34.722656 30.410156 L 35.125 30.410156 Z M 35.125 30.804688 " fill-opacity="1" fill-rule="nonzero"/><path fill="#00ffff" d="M 37.910156 32 L 37.511719 32 L 37.511719 30.804688 L 37.910156 30.804688 L 37.910156 30.410156 L 38.308594 30.410156 L 38.308594 30.011719 L 39.503906 30.011719 L 39.503906 30.410156 L 39.902344 30.410156 L 39.902344 30.804688 L 40.300781 30.804688 L 40.300781 32 L 39.902344 32 L 39.902344 32.402344 L 39.503906 32.402344 L 39.503906 32.800781 L 38.308594 32.800781 L 38.308594 32.402344 L 37.910156 32.402344 Z M 38.308594 32.394531 L 39.503906 32.394531 L 39.503906 32 L 39.894531 32 L 39.894531 30.804688 L 39.503906 30.804688 L 39.503906 30.414062 L 38.308594 30.414062 L 38.308594 30.804688 L 37.914062 30.804688 L 37.914062 32 L 38.308594 32 Z M 38.308594 32.394531 " fill-opacity="1" fill-rule="nonzero"/><path fill="#00ffff" d="M 41.492188 31.207031 L 42.6875 31.207031 L 42.6875 31.605469 L 43.085938 31.605469 L 43.085938 32.402344 L 42.6875 32.402344 L 42.6875 31.605469 L 41.492188 31.605469 Z M 41.492188 30.011719 L 42.6875 30.011719 L 42.6875 30.410156 L 43.085938 30.410156 L 43.085938 30.804688 L 42.6875 30.804688 L 42.6875 30.410156 L 41.492188 30.410156 Z M 41.492188 32.402344 L 42.6875 32.402344 L 42.6875 32.800781 L 41.492188 32.800781 Z M 41.492188 31.207031 L 41.09375 31.207031 L 41.09375 30.410156 L 41.492188 30.410156 Z M 41.492188 32.402344 L 41.09375 32.402344 L 41.09375 32 L 41.492188 32 Z M 41.492188 32.402344 " fill-opacity="1" fill-rule="nonzero"/><path fill="#7edaf2" d="M 13.292969 32.402344 L 14.886719 32.402344 L 14.886719 32.800781 L 12.894531 32.800781 L 12.894531 30.011719 L 14.886719 30.011719 L 14.886719 30.410156 L 13.292969 30.410156 L 13.292969 31.207031 L 14.488281 31.207031 L 14.488281 31.605469 L 13.292969 31.605469 Z M 13.292969 32.402344 " fill-opacity="1" fill-rule="nonzero"/><path fill="#7edaf2" d="M 17.277344 32.402344 L 17.277344 32.800781 L 15.683594 32.800781 L 15.683594 30.011719 L 16.078125 30.011719 L 16.078125 32.402344 Z M 17.277344 32.402344 " fill-opacity="1" fill-rule="nonzero"/><path fill="#7edaf2" d="M 18.472656 32.402344 L 20.066406 32.402344 L 20.066406 32.800781 L 18.074219 32.800781 L 18.074219 30.011719 L 20.066406 30.011719 L 20.066406 30.410156 L 18.472656 30.410156 L 18.472656 31.207031 L 19.667969 31.207031 L 19.667969 31.605469 L 18.472656 31.605469 Z M 18.472656 32.402344 " fill-opacity="1" fill-rule="nonzero"/><path fill="#7edaf2" d="M 20.863281 30.011719 L 22.855469 30.011719 L 22.855469 30.410156 L 22.058594 30.410156 L 22.058594 32.800781 L 21.660156 32.800781 L 21.660156 30.410156 L 20.863281 30.410156 Z M 20.863281 30.011719 " fill-opacity="1" fill-rule="nonzero"/><path fill="#7edaf2" d="M 24.046875 31.605469 L 24.046875 32.800781 L 23.648438 32.800781 L 23.648438 30.011719 L 25.242188 30.011719 L 25.242188 30.410156 L 25.644531 30.410156 L 25.644531 31.207031 L 25.242188 31.207031 L 25.242188 31.605469 Z M 24.046875 31.207031 L 25.238281 31.207031 L 25.238281 30.410156 L 24.046875 30.410156 Z M 25.644531 31.605469 L 25.644531 32.800781 L 25.242188 32.800781 L 25.242188 31.605469 Z M 25.644531 31.605469 " fill-opacity="1" fill-rule="nonzero"/><path fill="#7edaf2" d="M 26.835938 32 L 26.4375 32 L 26.4375 30.804688 L 26.835938 30.804688 L 26.835938 30.410156 L 27.234375 30.410156 L 27.234375 30.011719 L 28.429688 30.011719 L 28.429688 30.410156 L 28.828125 30.410156 L 28.828125 30.804688 L 29.226562 30.804688 L 29.226562 32 L 28.828125 32 L 28.828125 32.402344 L 28.429688 32.402344 L 28.429688 32.800781 L 27.234375 32.800781 L 27.234375 32.402344 L 26.835938 32.402344 Z M 27.234375 32.394531 L 28.429688 32.394531 L 28.429688 32 L 28.824219 32 L 28.824219 30.804688 L 28.429688 30.804688 L 28.429688 30.414062 L 27.234375 30.414062 L 27.234375 30.804688 L 26.839844 30.804688 L 26.839844 32 L 27.234375 32 Z M 27.234375 32.394531 " fill-opacity="1" fill-rule="nonzero"/><path fill="#7edaf2" d="M 32.015625 31.605469 L 32.015625 30.011719 L 32.410156 30.011719 L 32.410156 32.800781 L 32.015625 32.800781 L 32.015625 32 L 31.613281 32 L 31.613281 31.605469 L 31.21875 31.605469 L 31.21875 31.207031 L 30.820312 31.207031 L 30.820312 30.804688 L 30.417969 30.804688 L 30.417969 32.800781 L 30.023438 32.800781 L 30.023438 30.011719 L 30.417969 30.011719 L 30.417969 30.410156 L 30.820312 30.410156 L 30.820312 30.804688 L 31.21875 30.804688 L 31.21875 31.207031 L 31.613281 31.207031 L 31.613281 31.605469 Z M 32.015625 31.605469 " fill-opacity="1" fill-rule="nonzero"/><path fill="#7edaf2" d="M 33.207031 30.011719 L 33.605469 30.011719 L 33.605469 32.800781 L 33.207031 32.800781 Z M 33.207031 30.011719 " fill-opacity="1" fill-rule="nonzero"/><path fill="#7edaf2" d="M 36.789062 30.410156 L 36.789062 30.804688 L 36.394531 30.804688 L 36.394531 30.410156 L 35.199219 30.410156 L 35.199219 30.011719 L 36.394531 30.011719 L 36.394531 30.410156 Z M 35.199219 32.007812 L 35.199219 32.402344 L 36.394531 32.402344 L 36.394531 32.800781 L 35.199219 32.800781 L 35.199219 32.402344 L 34.796875 32.402344 L 34.796875 32.007812 Z M 34.796875 30.804688 L 34.796875 32 L 34.402344 32 L 34.402344 30.804688 Z M 36.394531 32.402344 L 36.394531 32 L 36.789062 32 L 36.789062 32.402344 Z M 35.199219 30.804688 L 34.796875 30.804688 L 34.796875 30.410156 L 35.199219 30.410156 Z M 35.199219 30.804688 " fill-opacity="1" fill-rule="nonzero"/><path fill="#7edaf2" d="M 37.984375 32 L 37.585938 32 L 37.585938 30.804688 L 37.984375 30.804688 L 37.984375 30.410156 L 38.382812 30.410156 L 38.382812 30.011719 L 39.578125 30.011719 L 39.578125 30.410156 L 39.976562 30.410156 L 39.976562 30.804688 L 40.375 30.804688 L 40.375 32 L 39.976562 32 L 39.976562 32.402344 L 39.578125 32.402344 L 39.578125 32.800781 L 38.382812 32.800781 L 38.382812 32.402344 L 37.984375 32.402344 Z M 38.382812 32.394531 L 39.578125 32.394531 L 39.578125 32 L 39.972656 32 L 39.972656 30.804688 L 39.578125 30.804688 L 39.578125 30.414062 L 38.382812 30.414062 L 38.382812 30.804688 L 37.988281 30.804688 L 37.988281 32 L 38.382812 32 Z M 38.382812 32.394531 " fill-opacity="1" fill-rule="nonzero"/><path fill="#7edaf2" d="M 41.566406 31.207031 L 42.761719 31.207031 L 42.761719 31.605469 L 43.160156 31.605469 L 43.160156 32.402344 L 42.761719 32.402344 L 42.761719 31.605469 L 41.566406 31.605469 Z M 41.566406 30.011719 L 42.761719 30.011719 L 42.761719 30.410156 L 43.160156 30.410156 L 43.160156 30.804688 L 42.761719 30.804688 L 42.761719 30.410156 L 41.566406 30.410156 Z M 41.566406 32.402344 L 42.761719 32.402344 L 42.761719 32.800781 L 41.566406 32.800781 Z M 41.566406 31.207031 L 41.167969 31.207031 L 41.167969 30.410156 L 41.566406 30.410156 Z M 41.566406 32.402344 L 41.167969 32.402344 L 41.167969 32 L 41.566406 32 Z M 41.566406 32.402344 " fill-opacity="1" fill-rule="nonzero"/></svg>