<svg xmlns="http://www.w3.org/2000/svg" xmlns:xlink="http://www.w3.org/1999/xlink" width="80" zoomAndPan="magnify" viewBox="0 0 60 30.000001" height="40" preserveAspectRatio="xMidYMid meet" version="1.0"><defs><clipPath id="4d0e4018d4"><path d="M 46.183594 7.613281 L 48.761719 7.613281 L 48.761719 8.480469 L 46.183594 8.480469 Z M 46.183594 7.613281 " clip-rule="nonzero"/></clipPath><clipPath id="e8c06728d9"><path d="M 52.628906 7.613281 L 54.992188 7.613281 L 54.992188 8.480469 L 52.628906 8.480469 Z M 52.628906 7.613281 " clip-rule="nonzero"/></clipPath><clipPath id="dac1962380"><path d="M 21.789062 19.472656 L 37.902344 19.472656 L 37.902344 25.453125 L 21.789062 25.453125 Z M 21.789062 19.472656 " clip-rule="nonzero"/></clipPath><clipPath id="15a730fafe"><path d="M 21.789062 19.472656 L 37.902344 19.472656 L 37.902344 26.238281 L 21.789062 26.238281 Z M 21.789062 19.472656 " clip-rule="nonzero"/></clipPath><clipPath id="263d5e966d"><path d="M 3.859375 5.082031 L 14.011719 5.082031 L 14.011719 15.234375 L 3.859375 15.234375 Z M 3.859375 5.082031 " clip-rule="nonzero"/></clipPath></defs><path fill="#9e9e9e" d="M 48.425781 8.195312 L 46.429688 8.195312 L 46.429688 8.046875 C 46.429688 7.878906 46.566406 7.738281 46.738281 7.738281 L 48.117188 7.738281 C 48.285156 7.738281 48.425781 7.878906 48.425781 8.046875 Z M 48.425781 8.195312 " fill-opacity="1" fill-rule="nonzero"/><g clip-path="url(#4d0e4018d4)"><path stroke-linecap="round" transform="matrix(0.0296177, 0, 0, 0.0296177, 44.341198, 7.615485)" fill="none" stroke-linejoin="round" d="M 137.910378 19.577073 L 70.514999 19.577073 L 70.514999 14.565284 C 70.514999 8.894048 75.131121 4.146037 80.934246 4.146037 L 127.491132 4.146037 C 133.162367 4.146037 137.910378 8.894048 137.910378 14.565284 Z M 137.910378 19.577073 " stroke="#000000" stroke-width="8.324" stroke-opacity="1" stroke-miterlimit="10"/></g><path fill="#9e9e9e" d="M 54.773438 8.195312 L 52.777344 8.195312 L 52.777344 8.046875 C 52.777344 7.878906 52.914062 7.738281 53.082031 7.738281 L 54.464844 7.738281 C 54.632812 7.738281 54.773438 7.878906 54.773438 8.046875 Z M 54.773438 8.195312 " fill-opacity="1" fill-rule="nonzero"/><g clip-path="url(#e8c06728d9)"><path stroke-linecap="round" transform="matrix(0.0296177, 0, 0, 0.0296177, 44.341198, 7.615485)" fill="none" stroke-linejoin="round" d="M 352.230323 19.577073 L 284.834943 19.577073 L 284.834943 14.565284 C 284.834943 8.894048 289.451065 4.146037 295.25419 4.146037 L 341.811076 4.146037 C 347.482312 4.146037 352.230323 8.894048 352.230323 14.565284 Z M 352.230323 19.577073 " stroke="#000000" stroke-width="8.324" stroke-opacity="1" stroke-miterlimit="10"/></g><path fill="#374046" d="M 50.609375 8.140625 L 46.863281 8.140625 L 46.863281 12.230469 L 54.359375 12.230469 L 54.359375 8.140625 Z M 50.609375 8.140625 " fill-opacity="1" fill-rule="nonzero"/><path stroke-linecap="round" transform="matrix(0.0296177, 0, 0, 0.0296177, 44.341198, 7.615485)" fill="none" stroke-linejoin="round" d="M 327.830821 145.399367 L 95.442057 145.399367 " stroke="#000000" stroke-width="14.566" stroke-opacity="0.15" stroke-miterlimit="10"/><path stroke-linecap="round" transform="matrix(0.0296177, 0, 0, 0.0296177, 44.341198, 7.615485)" fill="none" stroke-linejoin="round" d="M 211.636439 17.730625 L 85.1547 17.730625 L 85.1547 155.818613 L 338.250068 155.818613 L 338.250068 17.730625 Z M 211.636439 17.730625 " stroke="#000000" stroke-width="8.324" stroke-opacity="1" stroke-miterlimit="10"/><path fill="#374046" d="M 48.675781 9.878906 C 48.640625 8.929688 47.867188 8.164062 46.921875 8.140625 C 46.050781 8.117188 45.316406 8.707031 45.121094 9.511719 C 45.121094 9.511719 45.121094 9.511719 45.121094 9.515625 L 45.074219 9.796875 L 44.480469 13.546875 C 44.375 14.191406 44.804688 14.804688 45.445312 14.9375 C 46.015625 15.050781 46.589844 14.75 46.8125 14.214844 L 48.03125 11.328125 C 48.441406 10.980469 48.695312 10.457031 48.675781 9.878906 Z M 48.675781 9.878906 " fill-opacity="1" fill-rule="nonzero"/><path stroke-linecap="round" transform="matrix(0.0296177, 0, 0, 0.0296177, 44.341198, 7.615485)" fill="none" stroke-linejoin="round" d="M 68.140994 28.941206 C 73.68034 26.962868 79.483464 26.039644 85.550368 26.039644 C 86.077924 26.039644 86.605481 26.039644 87.001149 26.039644 C 114.69788 26.69909 137.119043 48.988364 138.042268 76.685095 C 138.306046 83.147666 137.382822 89.610237 135.272595 95.54525 " stroke="#ffffff" stroke-width="8.324" stroke-opacity="0.2" stroke-miterlimit="10"/><path stroke-linecap="round" transform="matrix(0.0296177, 0, 0, 0.0296177, 44.341198, 7.615485)" fill="none" stroke-linejoin="round" d="M 69.196107 226.379333 C 63.392983 233.369461 54.820185 237.458026 45.456052 237.458026 C 43.345825 237.458026 41.367487 237.326137 39.389149 236.930469 C 23.166778 233.633239 12.351864 218.202203 14.989647 201.847943 L 17.89121 183.647234 " stroke="#000000" stroke-width="14.566" stroke-opacity="0.15" stroke-miterlimit="10"/><path stroke-linecap="round" transform="matrix(0.0296177, 0, 0, 0.0296177, 44.341198, 7.615485)" fill="none" stroke-linejoin="round" d="M 146.351287 76.421317 C 145.164284 44.372242 119.050223 18.52196 87.133038 17.730625 C 57.721747 16.939289 32.926578 36.854558 26.332118 64.023733 C 26.332118 64.023733 26.332118 64.023733 26.332118 64.155622 L 24.749448 73.651644 L 4.70229 200.265272 C 1.141282 222.02699 15.649093 242.865483 37.278922 247.217826 C 56.534744 251.042613 75.922456 240.887145 83.44014 222.818325 L 124.58957 125.352209 C 138.437935 113.61407 147.010733 95.940918 146.351287 76.421317 Z M 146.351287 76.421317 " stroke="#000000" stroke-width="8.324" stroke-opacity="1" stroke-miterlimit="10"/><path fill="#374046" d="M 52.542969 9.878906 C 52.578125 8.929688 53.351562 8.164062 54.296875 8.140625 C 55.167969 8.117188 55.902344 8.707031 56.097656 9.511719 C 56.097656 9.511719 56.097656 9.511719 56.097656 9.515625 L 56.144531 9.796875 L 56.738281 13.546875 C 56.84375 14.191406 56.417969 14.804688 55.773438 14.9375 C 55.203125 15.050781 54.628906 14.75 54.40625 14.214844 L 53.1875 11.328125 C 52.777344 10.980469 52.523438 10.457031 52.542969 9.878906 Z M 52.542969 9.878906 " fill-opacity="1" fill-rule="nonzero"/><path stroke-linecap="round" transform="matrix(0.0296177, 0, 0, 0.0296177, 44.341198, 7.615485)" fill="none" stroke-linejoin="round" d="M 387.576627 111.503843 L 389.159298 120.999865 " stroke="#ffffff" stroke-width="8.324" stroke-opacity="0.45" stroke-miterlimit="10"/><path stroke-linecap="round" transform="matrix(0.0296177, 0, 0, 0.0296177, 44.341198, 7.615485)" fill="none" stroke-linejoin="round" d="M 380.5865 67.452852 L 385.070732 95.54525 " stroke="#ffffff" stroke-width="8.324" stroke-opacity="0.45" stroke-miterlimit="10"/><path stroke-linecap="round" transform="matrix(0.0296177, 0, 0, 0.0296177, 44.341198, 7.615485)" fill="none" stroke-linejoin="round" d="M 336.403619 26.039644 C 336.931176 26.039644 337.458733 26.039644 337.8544 26.039644 C 361.990123 26.039644 382.828616 42.262015 388.76363 65.738292 L 406.041115 173.887433 " stroke="#ffffff" stroke-width="8.324" stroke-opacity="0.2" stroke-miterlimit="10"/><path stroke-linecap="round" transform="matrix(0.0296177, 0, 0, 0.0296177, 44.341198, 7.615485)" fill="none" stroke-linejoin="round" d="M 403.139552 224.269106 C 398.787209 230.599788 392.06086 235.347799 383.88373 236.930469 C 381.905392 237.326137 379.795165 237.458026 377.816827 237.458026 C 365.419242 237.458026 354.208661 230.072231 349.460649 218.597871 L 312.136007 130.10022 " stroke="#000000" stroke-width="14.566" stroke-opacity="0.15" stroke-miterlimit="10"/><path stroke-linecap="round" transform="matrix(0.0296177, 0, 0, 0.0296177, 44.341198, 7.615485)" fill="none" stroke-linejoin="round" d="M 277.053481 76.421317 C 278.108594 44.372242 304.222655 18.52196 336.139841 17.730625 C 365.551131 16.939289 390.3463 36.854558 396.94076 64.023733 C 396.94076 64.023733 396.94076 64.023733 396.94076 64.155622 L 398.523431 73.651644 L 418.570588 200.265272 C 422.131597 222.02699 407.755674 242.865483 385.993957 247.217826 C 366.738134 251.042613 347.350422 240.887145 339.832738 222.818325 L 298.683309 125.352209 C 284.966832 113.61407 276.262145 95.940918 277.053481 76.421317 Z M 277.053481 76.421317 " stroke="#000000" stroke-width="8.324" stroke-opacity="1" stroke-miterlimit="10"/><path fill="#04a9f4" d="M 51.8125 10.015625 L 49.386719 10.015625 C 49.226562 10.015625 49.09375 9.886719 49.09375 9.722656 L 49.09375 8.257812 C 49.09375 8.09375 49.226562 7.964844 49.386719 7.964844 L 51.8125 7.964844 C 51.976562 7.964844 52.105469 8.09375 52.105469 8.257812 L 52.105469 9.722656 C 52.105469 9.886719 51.972656 10.015625 51.8125 10.015625 Z M 51.8125 10.015625 " fill-opacity="1" fill-rule="nonzero"/><path stroke-linecap="round" transform="matrix(0.0296177, 0, 0, 0.0296177, 44.341198, 7.615485)" fill="none" stroke-linejoin="round" d="M 211.372661 28.545539 L 217.835231 28.545539 " stroke="#ffffff" stroke-width="8.324" stroke-opacity="0.45" stroke-miterlimit="10"/><path stroke-linecap="round" transform="matrix(0.0296177, 0, 0, 0.0296177, 44.341198, 7.615485)" fill="none" stroke-linejoin="round" d="M 232.474932 28.545539 L 245.531963 28.545539 L 245.531963 32.765993 " stroke="#ffffff" stroke-width="8.324" stroke-opacity="0.45" stroke-miterlimit="10"/><path stroke-linecap="round" transform="matrix(0.0296177, 0, 0, 0.0296177, 44.341198, 7.615485)" fill="none" stroke-linejoin="round" d="M 206.62465 20.10463 L 252.258312 20.10463 C 253.181536 20.10463 253.840982 20.764076 253.840982 21.687301 L 253.840982 38.17345 " stroke="#ffffff" stroke-width="8.324" stroke-opacity="0.2" stroke-miterlimit="10"/><path stroke-linecap="round" transform="matrix(0.0296177, 0, 0, 0.0296177, 44.341198, 7.615485)" fill="none" stroke-linejoin="round" d="M 217.835231 70.750082 L 170.882678 70.750082 L 170.882678 46.35058 " stroke="#000000" stroke-width="14.566" stroke-opacity="0.15" stroke-miterlimit="10"/><path stroke-linecap="round" transform="matrix(0.0296177, 0, 0, 0.0296177, 44.341198, 7.615485)" fill="none" stroke-linejoin="round" d="M 252.258312 81.037439 L 170.355121 81.037439 C 164.947664 81.037439 160.463431 76.685095 160.463431 71.145749 L 160.463431 21.687301 C 160.463431 16.147954 164.947664 11.795611 170.355121 11.795611 L 252.258312 11.795611 C 257.797658 11.795611 262.150001 16.147954 262.150001 21.687301 L 262.150001 71.145749 C 262.150001 76.685095 257.665769 81.037439 252.258312 81.037439 Z M 252.258312 81.037439 " stroke="#000000" stroke-width="8.324" stroke-opacity="1" stroke-miterlimit="10"/><path stroke-linecap="round" transform="matrix(0.0296177, 0, 0, 0.0296177, 44.341198, 7.615485)" fill-opacity="1" fill="#9e9e9e" fill-rule="nonzero" stroke-linejoin="round" d="M 167.849226 148.960375 C 167.849226 151.334381 167.585448 153.840275 167.18978 156.214281 C 166.662223 158.588286 166.002777 160.962292 165.079553 163.204408 C 164.156329 165.578414 162.969326 167.688641 161.650434 169.666979 C 160.199653 171.777206 158.616982 173.623655 156.902423 175.470103 C 155.187863 177.184663 153.341414 178.767333 151.231187 180.086225 C 149.12096 181.405117 147.010733 182.59212 144.768617 183.515344 C 142.5265 184.438569 140.152495 185.229904 137.778489 185.625572 C 135.272595 186.153128 132.898589 186.416907 130.392694 186.416907 C 127.8868 186.416907 125.512794 186.153128 123.138788 185.625572 C 120.632894 185.229904 118.258888 184.438569 116.016772 183.515344 C 113.774656 182.59212 111.664428 181.405117 109.554201 180.086225 C 107.575863 178.767333 105.597525 177.184663 103.882966 175.470103 C 102.168406 173.623655 100.585736 171.777206 99.266844 169.666979 C 97.816063 167.688641 96.760949 165.578414 95.705836 163.204408 C 94.782611 160.962292 94.123165 158.588286 93.595609 156.214281 C 93.199941 153.840275 92.936163 151.334381 92.936163 148.960375 C 92.936163 146.45448 93.199941 143.948586 93.595609 141.57458 C 94.123165 139.200574 94.782611 136.826569 95.705836 134.584453 C 96.760949 132.210447 97.816063 130.10022 99.266844 128.121882 C 100.585736 126.011655 102.168406 124.165206 103.882966 122.318757 C 105.597525 120.604198 107.575863 119.153417 109.554201 117.702635 C 111.664428 116.383744 113.774656 115.196741 116.016772 114.273516 C 118.258888 113.350292 120.632894 112.558957 123.138788 112.163289 C 125.512794 111.635732 127.8868 111.371954 130.392694 111.371954 C 132.898589 111.371954 135.272595 111.635732 137.778489 112.163289 C 140.152495 112.558957 142.5265 113.350292 144.768617 114.273516 C 147.010733 115.196741 149.12096 116.383744 151.231187 117.702635 C 153.341414 119.153417 155.187863 120.604198 156.902423 122.318757 C 158.616982 124.165206 160.199653 126.011655 161.650434 128.121882 C 162.969326 130.10022 164.156329 132.210447 165.079553 134.584453 C 166.002777 136.826569 166.662223 139.200574 167.18978 141.57458 C 167.585448 143.948586 167.849226 146.45448 167.849226 148.960375 Z M 167.849226 148.960375 " stroke="#000000" stroke-width="8.324" stroke-opacity="1" stroke-miterlimit="10"/><path fill="#374046" d="M 48.855469 12.023438 C 48.855469 12.113281 48.839844 12.195312 48.808594 12.277344 C 48.773438 12.355469 48.726562 12.425781 48.664062 12.488281 C 48.605469 12.550781 48.535156 12.597656 48.453125 12.628906 C 48.375 12.664062 48.289062 12.679688 48.203125 12.679688 C 48.117188 12.679688 48.035156 12.664062 47.953125 12.628906 C 47.871094 12.597656 47.800781 12.550781 47.742188 12.488281 C 47.679688 12.425781 47.632812 12.355469 47.597656 12.277344 C 47.566406 12.195312 47.550781 12.113281 47.550781 12.023438 C 47.550781 11.9375 47.566406 11.855469 47.597656 11.773438 C 47.632812 11.695312 47.679688 11.625 47.742188 11.5625 C 47.800781 11.5 47.871094 11.453125 47.953125 11.421875 C 48.035156 11.386719 48.117188 11.371094 48.203125 11.371094 C 48.289062 11.371094 48.375 11.386719 48.453125 11.421875 C 48.535156 11.453125 48.605469 11.5 48.664062 11.5625 C 48.726562 11.625 48.773438 11.695312 48.808594 11.773438 C 48.839844 11.855469 48.855469 11.9375 48.855469 12.023438 Z M 48.855469 12.023438 " fill-opacity="1" fill-rule="nonzero"/><path stroke-linecap="round" transform="matrix(0.0296177, 0, 0, 0.0296177, 44.341198, 7.615485)" fill="none" stroke-linejoin="round" d="M 135.800151 136.299012 C 138.306046 137.354126 140.416273 139.068685 141.867054 141.310802 " stroke="#ffffff" stroke-width="8.324" stroke-opacity="0.2" stroke-miterlimit="10"/><path stroke-linecap="round" transform="matrix(0.0296177, 0, 0, 0.0296177, 44.341198, 7.615485)" fill="none" stroke-linejoin="round" d="M 126.699797 160.039068 C 124.45768 159.247732 122.347453 157.796951 120.896672 155.950502 " stroke="#000000" stroke-width="14.566" stroke-opacity="0.15" stroke-miterlimit="10"/><path stroke-linecap="round" transform="matrix(0.0296177, 0, 0, 0.0296177, 44.341198, 7.615485)" fill="none" stroke-linejoin="round" d="M 152.550079 148.960375 C 152.550079 151.861937 151.890633 154.63161 150.83552 157.401284 C 149.648517 160.039068 148.065847 162.413073 146.087509 164.5233 C 143.977282 166.633527 141.603276 168.216198 138.833603 169.271311 C 136.195819 170.458314 133.294257 170.985871 130.392694 170.985871 C 127.491132 170.985871 124.721459 170.458314 121.951786 169.271311 C 119.182113 168.216198 116.808107 166.633527 114.829769 164.5233 C 112.719542 162.413073 111.136872 160.039068 109.949869 157.401284 C 108.894755 154.63161 108.367199 151.861937 108.367199 148.960375 C 108.367199 145.926923 108.894755 143.15725 109.949869 140.387577 C 111.136872 137.749793 112.719542 135.375788 114.829769 133.265561 C 116.808107 131.155334 119.182113 129.572663 121.951786 128.51755 C 124.721459 127.330547 127.491132 126.80299 130.392694 126.80299 C 133.294257 126.80299 136.195819 127.330547 138.833603 128.51755 C 141.603276 129.572663 143.977282 131.155334 146.087509 133.265561 C 148.065847 135.375788 149.648517 137.749793 150.83552 140.387577 C 151.890633 143.15725 152.550079 145.926923 152.550079 148.960375 Z M 152.550079 148.960375 " stroke="#000000" stroke-width="8.324" stroke-opacity="1" stroke-miterlimit="10"/><path stroke-linecap="round" transform="matrix(0.0296177, 0, 0, 0.0296177, 44.341198, 7.615485)" fill-opacity="1" fill="#9e9e9e" fill-rule="nonzero" stroke-linejoin="round" d="M 329.67727 148.960375 C 329.67727 151.334381 329.413492 153.840275 329.017824 156.214281 C 328.490267 158.588286 327.830821 160.962292 326.775708 163.204408 C 325.852483 165.578414 324.79737 167.688641 323.346589 169.666979 C 322.027697 171.777206 320.445026 173.623655 318.730467 175.470103 C 317.015907 177.184663 315.037569 178.767333 313.059231 180.086225 C 310.949004 181.405117 308.838777 182.59212 306.596661 183.515344 C 304.222655 184.438569 301.980539 185.229904 299.474644 185.625572 C 297.100639 186.153128 294.594744 186.416907 292.220738 186.416907 C 289.714844 186.416907 287.340838 186.153128 284.834943 185.625572 C 282.460938 185.229904 280.086932 184.438569 277.844816 183.515344 C 275.602699 182.59212 273.492472 181.405117 271.382245 180.086225 C 269.272018 178.767333 267.425569 177.184663 265.71101 175.470103 C 263.99645 173.623655 262.41378 171.777206 260.962999 169.666979 C 259.644107 167.688641 258.457104 165.578414 257.53388 163.204408 C 256.610655 160.962292 255.951209 158.588286 255.423652 156.214281 C 254.896096 153.840275 254.632317 151.334381 254.632317 148.960375 C 254.632317 146.45448 254.896096 143.948586 255.423652 141.57458 C 255.951209 139.200574 256.610655 136.826569 257.53388 134.584453 C 258.457104 132.210447 259.644107 130.10022 260.962999 128.121882 C 262.41378 126.011655 263.99645 124.165206 265.71101 122.318757 C 267.425569 120.604198 269.272018 119.153417 271.382245 117.702635 C 273.492472 116.383744 275.602699 115.196741 277.844816 114.273516 C 280.086932 113.350292 282.460938 112.558957 284.834943 112.163289 C 287.340838 111.635732 289.714844 111.371954 292.220738 111.371954 C 294.594744 111.371954 297.100639 111.635732 299.474644 112.163289 C 301.980539 112.558957 304.222655 113.350292 306.596661 114.273516 C 308.838777 115.196741 310.949004 116.383744 313.059231 117.702635 C 315.037569 119.153417 317.015907 120.604198 318.730467 122.318757 C 320.445026 124.165206 322.027697 126.011655 323.346589 128.121882 C 324.79737 130.10022 325.852483 132.210447 326.775708 134.584453 C 327.830821 136.826569 328.490267 139.200574 329.017824 141.57458 C 329.413492 143.948586 329.67727 146.45448 329.67727 148.960375 Z M 329.67727 148.960375 " stroke="#000000" stroke-width="8.324" stroke-opacity="1" stroke-miterlimit="10"/><path fill="#374046" d="M 53.648438 12.023438 C 53.648438 12.113281 53.632812 12.195312 53.601562 12.277344 C 53.566406 12.355469 53.519531 12.425781 53.457031 12.488281 C 53.398438 12.550781 53.324219 12.597656 53.246094 12.628906 C 53.164062 12.664062 53.082031 12.679688 52.996094 12.679688 C 52.910156 12.679688 52.824219 12.664062 52.746094 12.628906 C 52.664062 12.597656 52.59375 12.550781 52.53125 12.488281 C 52.472656 12.425781 52.425781 12.355469 52.390625 12.277344 C 52.355469 12.195312 52.339844 12.113281 52.339844 12.023438 C 52.339844 11.9375 52.355469 11.855469 52.390625 11.773438 C 52.425781 11.695312 52.472656 11.625 52.53125 11.5625 C 52.59375 11.5 52.664062 11.453125 52.746094 11.421875 C 52.824219 11.386719 52.910156 11.371094 52.996094 11.371094 C 53.082031 11.371094 53.164062 11.386719 53.246094 11.421875 C 53.324219 11.453125 53.398438 11.5 53.457031 11.5625 C 53.519531 11.625 53.566406 11.695312 53.601562 11.773438 C 53.632812 11.855469 53.648438 11.9375 53.648438 12.023438 Z M 53.648438 12.023438 " fill-opacity="1" fill-rule="nonzero"/><path stroke-linecap="round" transform="matrix(0.0296177, 0, 0, 0.0296177, 44.341198, 7.615485)" fill="none" stroke-linejoin="round" d="M 299.210866 137.090347 C 301.057314 138.145461 302.508096 139.596242 303.695098 141.310802 " stroke="#ffffff" stroke-width="8.324" stroke-opacity="0.2" stroke-miterlimit="10"/><path stroke-linecap="round" transform="matrix(0.0296177, 0, 0, 0.0296177, 44.341198, 7.615485)" fill="none" stroke-linejoin="round" d="M 287.07706 159.379622 C 284.966832 158.324508 283.252273 156.741838 282.06527 154.7635 " stroke="#000000" stroke-width="14.566" stroke-opacity="0.15" stroke-miterlimit="10"/><path stroke-linecap="round" transform="matrix(0.0296177, 0, 0, 0.0296177, 44.341198, 7.615485)" fill="none" stroke-linejoin="round" d="M 314.246234 148.960375 C 314.246234 151.861937 313.718677 154.63161 312.663564 157.401284 C 311.476561 160.039068 309.893891 162.413073 307.783663 164.5233 C 305.805325 166.633527 303.43132 168.216198 300.661647 169.271311 C 297.891974 170.458314 295.122301 170.985871 292.220738 170.985871 C 289.319176 170.985871 286.417614 170.458314 283.77983 169.271311 C 281.010157 168.216198 278.636151 166.633527 276.525924 164.5233 C 274.547586 162.413073 272.964916 160.039068 271.777913 157.401284 C 270.59091 154.63161 270.063353 151.861937 270.063353 148.960375 C 270.063353 145.926923 270.59091 143.15725 271.777913 140.387577 C 272.964916 137.749793 274.547586 135.375788 276.525924 133.265561 C 278.636151 131.155334 281.010157 129.572663 283.77983 128.51755 C 286.417614 127.330547 289.319176 126.80299 292.220738 126.80299 C 295.122301 126.80299 297.891974 127.330547 300.661647 128.51755 C 303.43132 129.572663 305.805325 131.155334 307.783663 133.265561 C 309.893891 135.375788 311.476561 137.749793 312.663564 140.387577 C 313.718677 143.15725 314.246234 145.926923 314.246234 148.960375 Z M 314.246234 148.960375 " stroke="#000000" stroke-width="8.324" stroke-opacity="1" stroke-miterlimit="10"/><path stroke-linecap="round" transform="matrix(0.0296177, 0, 0, 0.0296177, 44.341198, 7.615485)" fill-opacity="1" fill="#9e9e9e" fill-rule="nonzero" stroke-linejoin="round" d="M 116.808107 63.759954 L 95.04639 63.759954 L 95.04639 41.998237 L 76.450013 41.998237 L 76.450013 63.759954 L 54.688296 63.759954 L 54.688296 82.224442 L 76.450013 82.224442 L 76.450013 103.986159 L 95.04639 103.986159 L 95.04639 82.224442 L 116.808107 82.224442 Z M 116.808107 63.759954 " stroke="#000000" stroke-width="8.324" stroke-opacity="1" stroke-miterlimit="10"/><path stroke-linecap="round" transform="matrix(0.0296177, 0, 0, 0.0296177, 44.341198, 7.615485)" fill-opacity="1" fill="#04a9f4" fill-rule="nonzero" stroke-linejoin="round" d="M 320.181248 76.816985 C 320.181248 78.267766 319.917469 79.850436 319.389913 81.169328 C 318.730467 82.620109 317.939132 83.807112 316.884018 84.994115 C 315.697015 86.049228 314.510012 86.840564 313.059231 87.50001 C 311.740339 88.027566 310.289558 88.291345 308.706888 88.291345 C 307.124217 88.291345 305.673436 88.027566 304.354544 87.50001 C 302.903763 86.840564 301.584871 86.049228 300.529758 84.994115 C 299.474644 83.807112 298.683309 82.620109 298.023863 81.169328 C 297.496306 79.850436 297.232528 78.267766 297.232528 76.816985 C 297.232528 75.234314 297.496306 73.783533 298.023863 72.332752 C 298.683309 71.01386 299.474644 69.694968 300.529758 68.639854 C 301.584871 67.584741 302.903763 66.793406 304.354544 66.13396 C 305.673436 65.606403 307.124217 65.342625 308.706888 65.342625 C 310.289558 65.342625 311.740339 65.606403 313.059231 66.13396 C 314.510012 66.793406 315.697015 67.584741 316.884018 68.639854 C 317.939132 69.694968 318.730467 71.01386 319.389913 72.332752 C 319.917469 73.783533 320.181248 75.234314 320.181248 76.816985 Z M 320.181248 76.816985 " stroke="#000000" stroke-width="8.324" stroke-opacity="1" stroke-miterlimit="10"/><path stroke-linecap="round" transform="matrix(0.0296177, 0, 0, 0.0296177, 44.341198, 7.615485)" fill-opacity="1" fill="#8bc34a" fill-rule="nonzero" stroke-linejoin="round" d="M 345.108306 49.64781 C 345.108306 51.230481 344.844528 52.681262 344.185082 54.132043 C 343.657525 55.450935 342.86619 56.769827 341.679187 57.82494 C 340.624073 58.880054 339.437071 59.803278 337.986289 60.330835 C 336.535508 60.858392 335.084727 61.254059 333.633946 61.254059 C 332.051276 61.254059 330.600494 60.858392 329.149713 60.330835 C 327.830821 59.803278 326.511929 58.880054 325.456816 57.82494 C 324.401702 56.769827 323.610367 55.450935 322.950921 54.132043 C 322.423364 52.681262 322.159586 51.230481 322.159586 49.64781 C 322.159586 48.197029 322.423364 46.746248 322.950921 45.295467 C 323.610367 43.844686 324.401702 42.657683 325.456816 41.602569 C 326.511929 40.547456 327.830821 39.624231 329.149713 39.096674 C 330.600494 38.437228 332.051276 38.17345 333.633946 38.17345 C 335.084727 38.17345 336.535508 38.437228 337.986289 39.096674 C 339.437071 39.624231 340.624073 40.547456 341.679187 41.602569 C 342.86619 42.657683 343.657525 43.844686 344.185082 45.295467 C 344.844528 46.746248 345.108306 48.197029 345.108306 49.64781 Z M 345.108306 49.64781 " stroke="#000000" stroke-width="8.324" stroke-opacity="1" stroke-miterlimit="10"/><path stroke-linecap="round" transform="matrix(0.0296177, 0, 0, 0.0296177, 44.341198, 7.615485)" fill-opacity="1" fill="#8bc34a" fill-rule="nonzero" stroke-linejoin="round" d="M 351.438987 95.54525 C 351.438987 96.996032 351.04332 98.446813 350.515763 99.897594 C 349.988206 101.348375 349.064982 102.535378 348.009868 103.590491 C 346.954755 104.777494 345.767752 105.568829 344.316971 106.096386 C 342.86619 106.755832 341.415408 107.019611 339.964627 107.019611 C 338.381957 107.019611 336.931176 106.755832 335.480395 106.096386 C 334.029613 105.568829 332.842611 104.777494 331.787497 103.590491 C 330.732384 102.535378 329.809159 101.348375 329.281602 99.897594 C 328.622156 98.446813 328.358378 96.996032 328.358378 95.54525 C 328.358378 93.96258 328.622156 92.511799 329.281602 91.061018 C 329.809159 89.742126 330.732384 88.423234 331.787497 87.36812 C 332.842611 86.313007 334.029613 85.389782 335.480395 84.862226 C 336.931176 84.334669 338.381957 84.07089 339.964627 84.07089 C 341.415408 84.07089 342.86619 84.334669 344.316971 84.862226 C 345.767752 85.389782 346.954755 86.313007 348.009868 87.36812 C 349.064982 88.423234 349.988206 89.742126 350.515763 91.061018 C 351.04332 92.511799 351.438987 93.96258 351.438987 95.54525 Z M 351.438987 95.54525 " stroke="#000000" stroke-width="8.324" stroke-opacity="1" stroke-miterlimit="10"/><path stroke-linecap="round" transform="matrix(0.0296177, 0, 0, 0.0296177, 44.341198, 7.615485)" fill-opacity="1" fill="#f44336" fill-rule="nonzero" stroke-linejoin="round" d="M 376.234156 68.507965 C 376.234156 70.090636 375.970378 71.541417 375.442821 72.860309 C 374.783375 74.31109 373.99204 75.629982 372.936926 76.685095 C 371.881813 77.740209 370.562921 78.531544 369.244029 79.19099 C 367.793248 79.718547 366.342467 79.982325 364.759796 79.982325 C 363.309015 79.982325 361.858234 79.718547 360.407453 79.19099 C 358.956672 78.531544 357.769669 77.740209 356.714555 76.685095 C 355.659442 75.629982 354.736217 74.31109 354.208661 72.860309 C 353.549215 71.541417 353.285436 70.090636 353.285436 68.507965 C 353.285436 66.925295 353.549215 65.474514 354.208661 64.023733 C 354.736217 62.704841 355.659442 61.517838 356.714555 60.330835 C 357.769669 59.275721 358.956672 58.484386 360.407453 57.82494 C 361.858234 57.297384 363.309015 57.033605 364.759796 57.033605 C 366.342467 57.033605 367.793248 57.297384 369.244029 57.82494 C 370.562921 58.484386 371.881813 59.275721 372.936926 60.330835 C 373.99204 61.517838 374.783375 62.704841 375.442821 64.023733 C 375.970378 65.474514 376.234156 66.925295 376.234156 68.507965 Z M 376.234156 68.507965 " stroke="#000000" stroke-width="8.324" stroke-opacity="1" stroke-miterlimit="10"/><path stroke-linecap="round" transform="matrix(0.0296177, 0, 0, 0.0296177, 44.341198, 7.615485)" fill="none" stroke-linejoin="round" d="M 221.923797 116.515633 L 243.026068 116.515633 " stroke="#000000" stroke-width="8.324" stroke-opacity="1" stroke-miterlimit="10"/><path stroke-linecap="round" transform="matrix(0.0296177, 0, 0, 0.0296177, 44.341198, 7.615485)" fill="none" stroke-linejoin="round" d="M 180.246811 116.515633 L 201.349082 116.515633 " stroke="#000000" stroke-width="8.324" stroke-opacity="1" stroke-miterlimit="10"/><g clip-path="url(#dac1962380)"><path fill="#fc5658" d="M 37.882812 22.4375 L 37.882812 22.449219 C 37.882812 22.453125 37.882812 22.453125 37.882812 22.457031 C 37.882812 24.109375 36.535156 25.445312 34.871094 25.445312 L 24.816406 25.445312 C 23.15625 25.445312 21.808594 24.105469 21.808594 22.457031 C 21.808594 22.449219 21.808594 22.445312 21.808594 22.4375 C 21.808594 22.429688 21.808594 22.425781 21.808594 22.417969 C 21.832031 20.789062 23.167969 19.472656 24.816406 19.472656 L 34.871094 19.472656 C 34.871094 19.472656 34.871094 19.472656 34.875 19.472656 C 36.527344 19.472656 37.871094 20.796875 37.882812 22.4375 Z M 37.882812 22.4375 L 37.882812 22.449219 C 37.882812 22.453125 37.882812 22.453125 37.882812 22.457031 C 37.882812 24.109375 36.535156 25.445312 34.871094 25.445312 L 24.816406 25.445312 C 23.15625 25.445312 21.808594 24.105469 21.808594 22.457031 C 21.808594 22.449219 21.808594 22.445312 21.808594 22.4375 C 21.808594 22.429688 21.808594 22.425781 21.808594 22.417969 C 21.832031 20.789062 23.167969 19.472656 24.816406 19.472656 L 34.871094 19.472656 C 34.871094 19.472656 34.871094 19.472656 34.875 19.472656 C 36.527344 19.472656 37.871094 20.796875 37.882812 22.4375 Z M 37.882812 22.4375 " fill-opacity="1" fill-rule="nonzero"/></g><path fill="#1f1347" d="M 26.355469 21.195312 L 26.910156 21.195312 C 27.082031 21.195312 27.214844 21.246094 27.3125 21.34375 C 27.414062 21.445312 27.464844 21.582031 27.464844 21.746094 L 27.464844 22.015625 C 27.464844 22.1875 27.414062 22.316406 27.3125 22.417969 C 27.214844 22.515625 27.082031 22.566406 26.910156 22.566406 L 26.710938 22.566406 L 26.710938 23.5 L 26.355469 23.5 C 26.355469 23.5 26.355469 21.195312 26.355469 21.195312 Z M 26.890625 22.238281 C 26.960938 22.238281 27.011719 22.21875 27.046875 22.183594 C 27.085938 22.144531 27.105469 22.089844 27.105469 22.023438 L 27.105469 21.742188 C 27.105469 21.671875 27.085938 21.621094 27.046875 21.582031 C 27.011719 21.546875 26.957031 21.527344 26.890625 21.527344 L 26.707031 21.527344 L 26.707031 22.238281 Z M 28.253906 21.195312 L 28.605469 21.195312 L 28.605469 23.175781 L 29.234375 23.175781 L 29.234375 23.503906 L 28.253906 23.503906 Z M 30.738281 22.996094 L 30.359375 22.996094 L 30.285156 23.503906 L 29.929688 23.503906 L 30.316406 21.195312 L 30.789062 21.195312 L 31.175781 23.503906 L 30.820312 23.503906 Z M 30.691406 22.65625 L 30.550781 21.691406 L 30.40625 22.65625 Z M 32.972656 21.195312 L 32.5 22.539062 L 32.5 23.503906 L 32.148438 23.503906 L 32.148438 22.539062 L 31.671875 21.195312 L 32.046875 21.195312 L 32.320312 22.078125 L 32.601562 21.195312 C 32.601562 21.195312 32.972656 21.195312 32.972656 21.195312 Z M 32.972656 21.195312 " fill-opacity="1" fill-rule="nonzero"/><g clip-path="url(#15a730fafe)"><path fill="#1f1347" d="M 34.875 19.472656 C 34.871094 19.472656 34.871094 19.472656 34.875 19.472656 L 24.816406 19.472656 C 23.167969 19.472656 21.832031 20.789062 21.808594 22.417969 C 21.808594 22.425781 21.808594 22.429688 21.808594 22.4375 C 21.808594 22.445312 21.808594 22.449219 21.808594 22.457031 C 21.808594 22.539062 21.8125 22.609375 21.816406 22.683594 L 21.808594 22.683594 L 21.808594 23.210938 C 21.808594 23.222656 21.808594 23.226562 21.808594 23.234375 C 21.808594 23.242188 21.808594 23.246094 21.808594 23.253906 C 21.808594 24.898438 23.15625 26.238281 24.816406 26.238281 L 34.871094 26.238281 C 36.535156 26.238281 37.882812 24.902344 37.882812 23.253906 C 37.882812 23.25 37.882812 23.25 37.882812 23.246094 L 37.882812 22.683594 L 37.875 22.683594 C 37.878906 22.609375 37.882812 22.539062 37.882812 22.457031 C 37.882812 22.453125 37.882812 22.453125 37.882812 22.449219 L 37.882812 22.4375 C 37.871094 20.796875 36.527344 19.472656 34.875 19.472656 Z M 22.222656 22.4375 L 22.222656 22.421875 C 22.234375 21.742188 22.511719 21.105469 22.996094 20.628906 C 23.484375 20.148438 24.132812 19.886719 24.816406 19.886719 L 34.875 19.886719 C 35.5625 19.886719 36.210938 20.148438 36.703125 20.632812 C 37.1875 21.113281 37.460938 21.753906 37.464844 22.4375 L 37.464844 22.457031 C 37.464844 23.878906 36.300781 25.03125 34.871094 25.03125 L 24.816406 25.03125 C 23.386719 25.03125 22.222656 23.878906 22.222656 22.457031 Z M 22.222656 22.4375 " fill-opacity="1" fill-rule="nonzero"/></g><g clip-path="url(#263d5e966d)"><path fill="#8492a1" d="M 7.515625 14.824219 L 10.351562 14.824219 L 10.351562 11.78125 C 10.351562 11.667969 10.441406 11.578125 10.554688 11.578125 L 13.597656 11.578125 L 13.597656 8.742188 L 10.554688 8.742188 C 10.441406 8.742188 10.351562 8.648438 10.351562 8.535156 L 10.351562 5.492188 L 7.515625 5.492188 L 7.515625 8.535156 C 7.515625 8.648438 7.421875 8.742188 7.308594 8.742188 L 4.269531 8.742188 L 4.269531 11.578125 L 7.308594 11.578125 C 7.421875 11.578125 7.515625 11.667969 7.515625 11.78125 Z M 10.554688 15.234375 L 7.308594 15.234375 C 7.195312 15.234375 7.105469 15.140625 7.105469 15.027344 L 7.105469 11.988281 L 4.0625 11.988281 C 3.949219 11.988281 3.859375 11.894531 3.859375 11.78125 L 3.859375 8.535156 C 3.859375 8.421875 3.949219 8.328125 4.0625 8.328125 L 7.105469 8.328125 L 7.105469 5.289062 C 7.105469 5.175781 7.195312 5.082031 7.308594 5.082031 L 10.554688 5.082031 C 10.667969 5.082031 10.761719 5.175781 10.761719 5.289062 L 10.761719 8.328125 L 13.804688 8.328125 C 13.917969 8.328125 14.007812 8.421875 14.007812 8.535156 L 14.007812 11.78125 C 14.007812 11.894531 13.917969 11.988281 13.804688 11.988281 L 10.761719 11.988281 L 10.761719 15.027344 C 10.761719 15.140625 10.667969 15.234375 10.554688 15.234375 " fill-opacity="1" fill-rule="nonzero"/></g><path fill="#fcc033" d="M 8.632812 7.277344 L 9.238281 7.277344 L 8.933594 6.753906 Z M 9.59375 7.6875 L 8.277344 7.6875 C 8.203125 7.6875 8.132812 7.648438 8.097656 7.585938 C 8.0625 7.519531 8.0625 7.441406 8.097656 7.378906 L 8.753906 6.238281 C 8.792969 6.175781 8.859375 6.136719 8.933594 6.136719 C 9.007812 6.136719 9.074219 6.175781 9.113281 6.238281 L 9.769531 7.378906 C 9.804688 7.441406 9.804688 7.519531 9.769531 7.585938 C 9.734375 7.648438 9.664062 7.6875 9.59375 7.6875 " fill-opacity="1" fill-rule="nonzero"/><path fill="#3bb0ce" d="M 8.632812 13.039062 L 8.933594 13.5625 L 9.238281 13.039062 Z M 8.933594 14.179688 C 8.859375 14.179688 8.792969 14.140625 8.753906 14.078125 L 8.097656 12.9375 C 8.0625 12.875 8.0625 12.796875 8.097656 12.734375 C 8.132812 12.667969 8.203125 12.628906 8.277344 12.628906 L 9.59375 12.628906 C 9.664062 12.628906 9.734375 12.667969 9.769531 12.734375 C 9.804688 12.796875 9.804688 12.875 9.769531 12.9375 L 9.113281 14.078125 C 9.074219 14.140625 9.007812 14.179688 8.933594 14.179688 " fill-opacity="1" fill-rule="nonzero"/><path fill="#97bf1f" d="M 5.527344 10.160156 L 6.050781 10.460938 L 6.050781 9.855469 Z M 6.257812 11.023438 C 6.222656 11.023438 6.1875 11.011719 6.15625 10.996094 L 5.015625 10.335938 C 4.949219 10.300781 4.910156 10.230469 4.910156 10.160156 C 4.910156 10.085938 4.949219 10.015625 5.015625 9.980469 L 6.15625 9.320312 C 6.21875 9.285156 6.296875 9.285156 6.359375 9.320312 C 6.421875 9.359375 6.460938 9.425781 6.460938 9.5 L 6.460938 10.816406 C 6.460938 10.890625 6.421875 10.957031 6.359375 10.996094 C 6.328125 11.011719 6.292969 11.023438 6.257812 11.023438 " fill-opacity="1" fill-rule="nonzero"/><path fill="#d70c3f" d="M 11.816406 9.855469 L 11.816406 10.460938 L 12.339844 10.160156 Z M 11.609375 11.023438 C 11.574219 11.023438 11.539062 11.011719 11.507812 10.996094 C 11.445312 10.957031 11.40625 10.890625 11.40625 10.816406 L 11.40625 9.5 C 11.40625 9.425781 11.445312 9.359375 11.507812 9.320312 C 11.570312 9.285156 11.648438 9.285156 11.714844 9.320312 L 12.851562 9.980469 C 12.917969 10.015625 12.957031 10.085938 12.957031 10.160156 C 12.957031 10.230469 12.917969 10.300781 12.851562 10.335938 L 11.714844 10.996094 C 11.679688 11.011719 11.644531 11.023438 11.609375 11.023438 " fill-opacity="1" fill-rule="nonzero"/><path fill="#ff00ff" d="M 14.886719 12.621094 L 13.851562 12.621094 L 13.851562 11.585938 L 15.921875 11.585938 L 15.921875 12.621094 L 17.984375 12.621094 L 17.984375 10.558594 L 14.886719 10.558594 L 14.886719 9.523438 L 13.851562 9.523438 L 13.851562 7.453125 L 14.886719 7.453125 L 14.886719 6.417969 L 19.023438 6.417969 L 19.023438 7.453125 L 20.054688 7.453125 L 20.054688 8.484375 L 17.984375 8.484375 L 17.984375 7.453125 L 15.921875 7.453125 L 15.921875 9.523438 L 19.023438 9.523438 L 19.023438 10.558594 L 20.054688 10.558594 L 20.054688 12.621094 L 19.023438 12.621094 L 19.023438 13.65625 L 14.886719 13.65625 Z M 14.886719 12.621094 " fill-opacity="1" fill-rule="nonzero"/><path fill="#ff00ff" d="M 21.8125 6.417969 L 23.882812 6.417969 L 23.882812 9.523438 L 26.984375 9.523438 L 26.984375 6.417969 L 29.050781 6.417969 L 29.050781 13.65625 L 26.984375 13.65625 L 26.984375 10.558594 L 23.882812 10.558594 L 23.882812 13.65625 L 21.8125 13.65625 Z M 21.8125 6.417969 " fill-opacity="1" fill-rule="nonzero"/><path fill="#ff00ff" d="M 31.835938 8.484375 L 31.835938 7.453125 L 32.871094 7.453125 L 32.871094 6.417969 L 37.007812 6.417969 L 37.007812 7.453125 L 38.042969 7.453125 L 38.042969 8.484375 L 39.070312 8.484375 L 39.070312 11.585938 L 38.042969 11.585938 L 38.042969 12.621094 L 37.007812 12.621094 L 37.007812 13.65625 L 32.871094 13.65625 L 32.871094 12.621094 L 31.835938 12.621094 L 31.835938 11.585938 L 30.804688 11.585938 L 30.804688 8.484375 Z M 35.972656 8.484375 L 35.972656 7.453125 L 33.902344 7.453125 L 33.902344 8.476562 L 32.871094 8.476562 L 32.871094 11.597656 L 33.902344 11.597656 L 33.902344 12.621094 L 35.972656 12.621094 L 35.972656 11.585938 L 37.007812 11.585938 L 37.007812 8.484375 Z M 35.972656 8.484375 " fill-opacity="1" fill-rule="nonzero"/><path fill="#ff00ff" d="M 42.894531 9.523438 L 44.96875 9.523438 L 44.96875 7.453125 L 42.894531 7.453125 Z M 46 9.523438 L 46 10.558594 L 42.894531 10.558594 L 42.894531 13.65625 L 40.828125 13.65625 L 40.828125 6.417969 L 46 6.417969 L 46 7.453125 L 47.03125 7.453125 L 47.03125 9.523438 Z M 46 9.523438 " fill-opacity="1" fill-rule="nonzero"/><path fill="#00ffff" d="M 14.5 12.621094 L 13.464844 12.621094 L 13.464844 11.585938 L 15.53125 11.585938 L 15.53125 12.621094 L 17.597656 12.621094 L 17.597656 10.558594 L 14.5 10.558594 L 14.5 9.523438 L 13.464844 9.523438 L 13.464844 7.453125 L 14.5 7.453125 L 14.5 6.417969 L 18.632812 6.417969 L 18.632812 7.453125 L 19.667969 7.453125 L 19.667969 8.484375 L 17.597656 8.484375 L 17.597656 7.453125 L 15.53125 7.453125 L 15.53125 9.523438 L 18.632812 9.523438 L 18.632812 10.558594 L 19.667969 10.558594 L 19.667969 12.621094 L 18.632812 12.621094 L 18.632812 13.65625 L 14.5 13.65625 Z M 14.5 12.621094 " fill-opacity="1" fill-rule="nonzero"/><path fill="#00ffff" d="M 21.425781 6.417969 L 23.492188 6.417969 L 23.492188 9.523438 L 26.59375 9.523438 L 26.59375 6.417969 L 28.664062 6.417969 L 28.664062 13.65625 L 26.59375 13.65625 L 26.59375 10.558594 L 23.492188 10.558594 L 23.492188 13.65625 L 21.425781 13.65625 Z M 21.425781 6.417969 " fill-opacity="1" fill-rule="nonzero"/><path fill="#00ffff" d="M 31.449219 8.484375 L 31.449219 7.453125 L 32.484375 7.453125 L 32.484375 6.417969 L 36.621094 6.417969 L 36.621094 7.453125 L 37.652344 7.453125 L 37.652344 8.484375 L 38.683594 8.484375 L 38.683594 11.585938 L 37.652344 11.585938 L 37.652344 12.621094 L 36.621094 12.621094 L 36.621094 13.65625 L 32.484375 13.65625 L 32.484375 12.621094 L 31.449219 12.621094 L 31.449219 11.585938 L 30.414062 11.585938 L 30.414062 8.484375 Z M 35.585938 8.484375 L 35.585938 7.453125 L 33.515625 7.453125 L 33.515625 8.476562 L 32.484375 8.476562 L 32.484375 11.597656 L 33.515625 11.597656 L 33.515625 12.621094 L 35.585938 12.621094 L 35.585938 11.585938 L 36.621094 11.585938 L 36.621094 8.484375 Z M 35.585938 8.484375 " fill-opacity="1" fill-rule="nonzero"/><path fill="#00ffff" d="M 42.507812 9.523438 L 44.578125 9.523438 L 44.578125 7.453125 L 42.507812 7.453125 Z M 45.609375 9.523438 L 45.609375 10.558594 L 42.507812 10.558594 L 42.507812 13.65625 L 40.441406 13.65625 L 40.441406 6.417969 L 45.609375 6.417969 L 45.609375 7.453125 L 46.644531 7.453125 L 46.644531 9.523438 Z M 45.609375 9.523438 " fill-opacity="1" fill-rule="nonzero"/><path fill="#7ed957" d="M 14.691406 12.621094 L 13.660156 12.621094 L 13.660156 11.585938 L 15.726562 11.585938 L 15.726562 12.621094 L 17.792969 12.621094 L 17.792969 10.558594 L 14.691406 10.558594 L 14.691406 9.523438 L 13.660156 9.523438 L 13.660156 7.453125 L 14.691406 7.453125 L 14.691406 6.417969 L 18.828125 6.417969 L 18.828125 7.453125 L 19.863281 7.453125 L 19.863281 8.484375 L 17.792969 8.484375 L 17.792969 7.453125 L 15.726562 7.453125 L 15.726562 9.523438 L 18.828125 9.523438 L 18.828125 10.558594 L 19.863281 10.558594 L 19.863281 12.621094 L 18.828125 12.621094 L 18.828125 13.65625 L 14.691406 13.65625 Z M 14.691406 12.621094 " fill-opacity="1" fill-rule="nonzero"/><path fill="#7ed957" d="M 21.621094 6.417969 L 23.6875 6.417969 L 23.6875 9.523438 L 26.789062 9.523438 L 26.789062 6.417969 L 28.855469 6.417969 L 28.855469 13.65625 L 26.789062 13.65625 L 26.789062 10.558594 L 23.6875 10.558594 L 23.6875 13.65625 L 21.621094 13.65625 Z M 21.621094 6.417969 " fill-opacity="1" fill-rule="nonzero"/><path fill="#7ed957" d="M 31.644531 8.484375 L 31.644531 7.453125 L 32.679688 7.453125 L 32.679688 6.417969 L 36.8125 6.417969 L 36.8125 7.453125 L 37.847656 7.453125 L 37.847656 8.484375 L 38.878906 8.484375 L 38.878906 11.585938 L 37.847656 11.585938 L 37.847656 12.621094 L 36.8125 12.621094 L 36.8125 13.65625 L 32.679688 13.65625 L 32.679688 12.621094 L 31.644531 12.621094 L 31.644531 11.585938 L 30.609375 11.585938 L 30.609375 8.484375 Z M 35.78125 8.484375 L 35.78125 7.453125 L 33.707031 7.453125 L 33.707031 8.476562 L 32.679688 8.476562 L 32.679688 11.597656 L 33.707031 11.597656 L 33.707031 12.621094 L 35.78125 12.621094 L 35.78125 11.585938 L 36.8125 11.585938 L 36.8125 8.484375 Z M 35.78125 8.484375 " fill-opacity="1" fill-rule="nonzero"/><path fill="#7ed957" d="M 42.703125 9.523438 L 44.773438 9.523438 L 44.773438 7.453125 L 42.703125 7.453125 Z M 45.804688 9.523438 L 45.804688 10.558594 L 42.703125 10.558594 L 42.703125 13.65625 L 40.636719 13.65625 L 40.636719 6.417969 L 45.804688 6.417969 L 45.804688 7.453125 L 46.839844 7.453125 L 46.839844 9.523438 Z M 45.804688 9.523438 " fill-opacity="1" fill-rule="nonzero"/><path fill="#ff00ff" d="M 8.648438 17.464844 L 10.789062 17.464844 L 10.789062 18 L 8.117188 18 L 8.117188 14.257812 L 10.789062 14.257812 L 10.789062 14.789062 L 8.648438 14.789062 L 8.648438 15.863281 L 10.253906 15.863281 L 10.253906 16.394531 L 8.648438 16.394531 Z M 8.648438 17.464844 " fill-opacity="1" fill-rule="nonzero"/><path fill="#ff00ff" d="M 13.996094 17.464844 L 13.996094 18 L 11.859375 18 L 11.859375 14.257812 L 12.390625 14.257812 L 12.390625 17.464844 Z M 13.996094 17.464844 " fill-opacity="1" fill-rule="nonzero"/><path fill="#ff00ff" d="M 15.601562 17.464844 L 17.742188 17.464844 L 17.742188 18 L 15.066406 18 L 15.066406 14.257812 L 17.742188 14.257812 L 17.742188 14.789062 L 15.601562 14.789062 L 15.601562 15.863281 L 17.207031 15.863281 L 17.207031 16.394531 L 15.601562 16.394531 Z M 15.601562 17.464844 " fill-opacity="1" fill-rule="nonzero"/><path fill="#ff00ff" d="M 18.8125 14.257812 L 21.488281 14.257812 L 21.488281 14.789062 L 20.417969 14.789062 L 20.417969 18 L 19.882812 18 L 19.882812 14.789062 L 18.8125 14.789062 Z M 18.8125 14.257812 " fill-opacity="1" fill-rule="nonzero"/><path fill="#ff00ff" d="M 23.089844 16.394531 L 23.089844 18 L 22.554688 18 L 22.554688 14.257812 L 24.695312 14.257812 L 24.695312 14.789062 L 25.230469 14.789062 L 25.230469 15.863281 L 24.695312 15.863281 L 24.695312 16.394531 Z M 23.089844 15.863281 L 24.6875 15.863281 L 24.6875 14.789062 L 23.089844 14.789062 Z M 25.230469 16.394531 L 25.230469 18 L 24.695312 18 L 24.695312 16.394531 Z M 25.230469 16.394531 " fill-opacity="1" fill-rule="nonzero"/><path fill="#ff00ff" d="M 26.832031 16.929688 L 26.300781 16.929688 L 26.300781 15.324219 L 26.832031 15.324219 L 26.832031 14.789062 L 27.371094 14.789062 L 27.371094 14.257812 L 28.976562 14.257812 L 28.976562 14.789062 L 29.507812 14.789062 L 29.507812 15.324219 L 30.042969 15.324219 L 30.042969 16.929688 L 29.507812 16.929688 L 29.507812 17.464844 L 28.976562 17.464844 L 28.976562 18 L 27.371094 18 L 27.371094 17.464844 L 26.832031 17.464844 Z M 27.371094 17.460938 L 28.976562 17.460938 L 28.976562 16.929688 L 29.503906 16.929688 L 29.503906 15.324219 L 28.976562 15.324219 L 28.976562 14.796875 L 27.371094 14.796875 L 27.371094 15.324219 L 26.839844 15.324219 L 26.839844 16.929688 L 27.371094 16.929688 Z M 27.371094 17.460938 " fill-opacity="1" fill-rule="nonzero"/><path fill="#ff00ff" d="M 33.789062 16.394531 L 33.789062 14.257812 L 34.320312 14.257812 L 34.320312 18 L 33.789062 18 L 33.789062 16.929688 L 33.25 16.929688 L 33.25 16.394531 L 32.714844 16.394531 L 32.714844 15.863281 L 32.183594 15.863281 L 32.183594 15.324219 L 31.644531 15.324219 L 31.644531 18 L 31.113281 18 L 31.113281 14.257812 L 31.644531 14.257812 L 31.644531 14.789062 L 32.183594 14.789062 L 32.183594 15.324219 L 32.714844 15.324219 L 32.714844 15.863281 L 33.25 15.863281 L 33.25 16.394531 Z M 33.789062 16.394531 " fill-opacity="1" fill-rule="nonzero"/><path fill="#ff00ff" d="M 35.386719 14.257812 L 35.921875 14.257812 L 35.921875 18 L 35.386719 18 Z M 35.386719 14.257812 " fill-opacity="1" fill-rule="nonzero"/><path fill="#ff00ff" d="M 40.199219 14.789062 L 40.199219 15.324219 L 39.667969 15.324219 L 39.667969 14.789062 L 38.0625 14.789062 L 38.0625 14.257812 L 39.667969 14.257812 L 39.667969 14.789062 Z M 38.0625 16.9375 L 38.0625 17.464844 L 39.667969 17.464844 L 39.667969 18 L 38.0625 18 L 38.0625 17.464844 L 37.527344 17.464844 L 37.527344 16.9375 Z M 37.527344 15.324219 L 37.527344 16.929688 L 36.992188 16.929688 L 36.992188 15.324219 Z M 39.667969 17.464844 L 39.667969 16.929688 L 40.199219 16.929688 L 40.199219 17.464844 Z M 38.0625 15.320312 L 37.527344 15.320312 L 37.527344 14.789062 L 38.0625 14.789062 Z M 38.0625 15.320312 " fill-opacity="1" fill-rule="nonzero"/><path fill="#ff00ff" d="M 41.800781 16.929688 L 41.269531 16.929688 L 41.269531 15.324219 L 41.800781 15.324219 L 41.800781 14.789062 L 42.339844 14.789062 L 42.339844 14.257812 L 43.945312 14.257812 L 43.945312 14.789062 L 44.476562 14.789062 L 44.476562 15.324219 L 45.011719 15.324219 L 45.011719 16.929688 L 44.476562 16.929688 L 44.476562 17.464844 L 43.945312 17.464844 L 43.945312 18 L 42.339844 18 L 42.339844 17.464844 L 41.800781 17.464844 Z M 42.339844 17.460938 L 43.945312 17.460938 L 43.945312 16.929688 L 44.472656 16.929688 L 44.472656 15.324219 L 43.945312 15.324219 L 43.945312 14.796875 L 42.339844 14.796875 L 42.339844 15.324219 L 41.808594 15.324219 L 41.808594 16.929688 L 42.339844 16.929688 Z M 42.339844 17.460938 " fill-opacity="1" fill-rule="nonzero"/><path fill="#ff00ff" d="M 46.613281 15.863281 L 48.21875 15.863281 L 48.21875 16.394531 L 48.753906 16.394531 L 48.753906 17.464844 L 48.21875 17.464844 L 48.21875 16.394531 L 46.613281 16.394531 Z M 46.613281 14.257812 L 48.21875 14.257812 L 48.21875 14.789062 L 48.753906 14.789062 L 48.753906 15.324219 L 48.21875 15.324219 L 48.21875 14.789062 L 46.613281 14.789062 Z M 46.613281 17.464844 L 48.21875 17.464844 L 48.21875 18 L 46.613281 18 Z M 46.613281 15.863281 L 46.082031 15.863281 L 46.082031 14.789062 L 46.613281 14.789062 Z M 46.613281 17.464844 L 46.082031 17.464844 L 46.082031 16.929688 L 46.613281 16.929688 Z M 46.613281 17.464844 " fill-opacity="1" fill-rule="nonzero"/><path fill="#00ffff" d="M 8.449219 17.464844 L 10.589844 17.464844 L 10.589844 18 L 7.914062 18 L 7.914062 14.257812 L 10.589844 14.257812 L 10.589844 14.789062 L 8.449219 14.789062 L 8.449219 15.863281 L 10.054688 15.863281 L 10.054688 16.394531 L 8.449219 16.394531 Z M 8.449219 17.464844 " fill-opacity="1" fill-rule="nonzero"/><path fill="#00ffff" d="M 13.796875 17.464844 L 13.796875 18 L 11.660156 18 L 11.660156 14.257812 L 12.1875 14.257812 L 12.1875 17.464844 Z M 13.796875 17.464844 " fill-opacity="1" fill-rule="nonzero"/><path fill="#00ffff" d="M 15.402344 17.464844 L 17.542969 17.464844 L 17.542969 18 L 14.867188 18 L 14.867188 14.257812 L 17.542969 14.257812 L 17.542969 14.789062 L 15.402344 14.789062 L 15.402344 15.863281 L 17.003906 15.863281 L 17.003906 16.394531 L 15.402344 16.394531 Z M 15.402344 17.464844 " fill-opacity="1" fill-rule="nonzero"/><path fill="#00ffff" d="M 18.613281 14.257812 L 21.285156 14.257812 L 21.285156 14.789062 L 20.214844 14.789062 L 20.214844 18 L 19.683594 18 L 19.683594 14.789062 L 18.613281 14.789062 Z M 18.613281 14.257812 " fill-opacity="1" fill-rule="nonzero"/><path fill="#00ffff" d="M 22.890625 16.394531 L 22.890625 18 L 22.355469 18 L 22.355469 14.257812 L 24.492188 14.257812 L 24.492188 14.789062 L 25.03125 14.789062 L 25.03125 15.863281 L 24.492188 15.863281 L 24.492188 16.394531 Z M 22.890625 15.863281 L 24.488281 15.863281 L 24.488281 14.789062 L 22.890625 14.789062 Z M 25.03125 16.394531 L 25.03125 18 L 24.492188 18 L 24.492188 16.394531 Z M 25.03125 16.394531 " fill-opacity="1" fill-rule="nonzero"/><path fill="#00ffff" d="M 26.632812 16.929688 L 26.101562 16.929688 L 26.101562 15.324219 L 26.632812 15.324219 L 26.632812 14.789062 L 27.171875 14.789062 L 27.171875 14.257812 L 28.773438 14.257812 L 28.773438 14.789062 L 29.308594 14.789062 L 29.308594 15.324219 L 29.84375 15.324219 L 29.84375 16.929688 L 29.308594 16.929688 L 29.308594 17.464844 L 28.773438 17.464844 L 28.773438 18 L 27.171875 18 L 27.171875 17.464844 L 26.632812 17.464844 Z M 27.171875 17.460938 L 28.773438 17.460938 L 28.773438 16.929688 L 29.300781 16.929688 L 29.300781 15.324219 L 28.773438 15.324219 L 28.773438 14.796875 L 27.171875 14.796875 L 27.171875 15.324219 L 26.640625 15.324219 L 26.640625 16.929688 L 27.171875 16.929688 Z M 27.171875 17.460938 " fill-opacity="1" fill-rule="nonzero"/><path fill="#00ffff" d="M 33.585938 16.394531 L 33.585938 14.257812 L 34.121094 14.257812 L 34.121094 18 L 33.585938 18 L 33.585938 16.929688 L 33.050781 16.929688 L 33.050781 16.394531 L 32.515625 16.394531 L 32.515625 15.863281 L 31.980469 15.863281 L 31.980469 15.324219 L 31.445312 15.324219 L 31.445312 18 L 30.910156 18 L 30.910156 14.257812 L 31.445312 14.257812 L 31.445312 14.789062 L 31.980469 14.789062 L 31.980469 15.324219 L 32.515625 15.324219 L 32.515625 15.863281 L 33.050781 15.863281 L 33.050781 16.394531 Z M 33.585938 16.394531 " fill-opacity="1" fill-rule="nonzero"/><path fill="#00ffff" d="M 35.1875 14.257812 L 35.722656 14.257812 L 35.722656 18 L 35.1875 18 Z M 35.1875 14.257812 " fill-opacity="1" fill-rule="nonzero"/><path fill="#00ffff" d="M 40 14.789062 L 40 15.324219 L 39.464844 15.324219 L 39.464844 14.789062 L 37.863281 14.789062 L 37.863281 14.257812 L 39.464844 14.257812 L 39.464844 14.789062 Z M 37.863281 16.9375 L 37.863281 17.464844 L 39.464844 17.464844 L 39.464844 18 L 37.863281 18 L 37.863281 17.464844 L 37.324219 17.464844 L 37.324219 16.9375 Z M 37.324219 15.324219 L 37.324219 16.929688 L 36.792969 16.929688 L 36.792969 15.324219 Z M 39.464844 17.464844 L 39.464844 16.929688 L 40 16.929688 L 40 17.464844 Z M 37.863281 15.320312 L 37.324219 15.320312 L 37.324219 14.789062 L 37.863281 14.789062 Z M 37.863281 15.320312 " fill-opacity="1" fill-rule="nonzero"/><path fill="#00ffff" d="M 41.601562 16.929688 L 41.066406 16.929688 L 41.066406 15.324219 L 41.601562 15.324219 L 41.601562 14.789062 L 42.140625 14.789062 L 42.140625 14.257812 L 43.742188 14.257812 L 43.742188 14.789062 L 44.277344 14.789062 L 44.277344 15.324219 L 44.8125 15.324219 L 44.8125 16.929688 L 44.277344 16.929688 L 44.277344 17.464844 L 43.742188 17.464844 L 43.742188 18 L 42.140625 18 L 42.140625 17.464844 L 41.601562 17.464844 Z M 42.140625 17.460938 L 43.742188 17.460938 L 43.742188 16.929688 L 44.269531 16.929688 L 44.269531 15.324219 L 43.742188 15.324219 L 43.742188 14.796875 L 42.140625 14.796875 L 42.140625 15.324219 L 41.609375 15.324219 L 41.609375 16.929688 L 42.140625 16.929688 Z M 42.140625 17.460938 " fill-opacity="1" fill-rule="nonzero"/><path fill="#00ffff" d="M 46.414062 15.863281 L 48.019531 15.863281 L 48.019531 16.394531 L 48.554688 16.394531 L 48.554688 17.464844 L 48.019531 17.464844 L 48.019531 16.394531 L 46.414062 16.394531 Z M 46.414062 14.257812 L 48.019531 14.257812 L 48.019531 14.789062 L 48.554688 14.789062 L 48.554688 15.324219 L 48.019531 15.324219 L 48.019531 14.789062 L 46.414062 14.789062 Z M 46.414062 17.464844 L 48.019531 17.464844 L 48.019531 18 L 46.414062 18 Z M 46.414062 15.863281 L 45.878906 15.863281 L 45.878906 14.789062 L 46.414062 14.789062 Z M 46.414062 17.464844 L 45.878906 17.464844 L 45.878906 16.929688 L 46.414062 16.929688 Z M 46.414062 17.464844 " fill-opacity="1" fill-rule="nonzero"/><path fill="#7edaf2" d="M 8.546875 17.464844 L 10.691406 17.464844 L 10.691406 18 L 8.015625 18 L 8.015625 14.257812 L 10.691406 14.257812 L 10.691406 14.789062 L 8.546875 14.789062 L 8.546875 15.863281 L 10.152344 15.863281 L 10.152344 16.394531 L 8.546875 16.394531 Z M 8.546875 17.464844 " fill-opacity="1" fill-rule="nonzero"/><path fill="#7edaf2" d="M 13.898438 17.464844 L 13.898438 18 L 11.757812 18 L 11.757812 14.257812 L 12.289062 14.257812 L 12.289062 17.464844 Z M 13.898438 17.464844 " fill-opacity="1" fill-rule="nonzero"/><path fill="#7edaf2" d="M 15.5 17.464844 L 17.644531 17.464844 L 17.644531 18 L 14.96875 18 L 14.96875 14.257812 L 17.644531 14.257812 L 17.644531 14.789062 L 15.5 14.789062 L 15.5 15.863281 L 17.105469 15.863281 L 17.105469 16.394531 L 15.5 16.394531 Z M 15.5 17.464844 " fill-opacity="1" fill-rule="nonzero"/><path fill="#7edaf2" d="M 18.710938 14.257812 L 21.386719 14.257812 L 21.386719 14.789062 L 20.316406 14.789062 L 20.316406 18 L 19.78125 18 L 19.78125 14.789062 L 18.710938 14.789062 Z M 18.710938 14.257812 " fill-opacity="1" fill-rule="nonzero"/><path fill="#7edaf2" d="M 22.988281 16.394531 L 22.988281 18 L 22.457031 18 L 22.457031 14.257812 L 24.59375 14.257812 L 24.59375 14.789062 L 25.132812 14.789062 L 25.132812 15.863281 L 24.59375 15.863281 L 24.59375 16.394531 Z M 22.988281 15.863281 L 24.585938 15.863281 L 24.585938 14.789062 L 22.988281 14.789062 Z M 25.132812 16.394531 L 25.132812 18 L 24.59375 18 L 24.59375 16.394531 Z M 25.132812 16.394531 " fill-opacity="1" fill-rule="nonzero"/><path fill="#7edaf2" d="M 26.734375 16.929688 L 26.199219 16.929688 L 26.199219 15.324219 L 26.734375 15.324219 L 26.734375 14.789062 L 27.269531 14.789062 L 27.269531 14.257812 L 28.875 14.257812 L 28.875 14.789062 L 29.410156 14.789062 L 29.410156 15.324219 L 29.941406 15.324219 L 29.941406 16.929688 L 29.410156 16.929688 L 29.410156 17.464844 L 28.875 17.464844 L 28.875 18 L 27.269531 18 L 27.269531 17.464844 L 26.734375 17.464844 Z M 27.269531 17.460938 L 28.875 17.460938 L 28.875 16.929688 L 29.402344 16.929688 L 29.402344 15.324219 L 28.875 15.324219 L 28.875 14.796875 L 27.269531 14.796875 L 27.269531 15.324219 L 26.742188 15.324219 L 26.742188 16.929688 L 27.269531 16.929688 Z M 27.269531 17.460938 " fill-opacity="1" fill-rule="nonzero"/><path fill="#7edaf2" d="M 33.6875 16.394531 L 33.6875 14.257812 L 34.222656 14.257812 L 34.222656 18 L 33.6875 18 L 33.6875 16.929688 L 33.148438 16.929688 L 33.148438 16.394531 L 32.617188 16.394531 L 32.617188 15.863281 L 32.082031 15.863281 L 32.082031 15.324219 L 31.546875 15.324219 L 31.546875 18 L 31.011719 18 L 31.011719 14.257812 L 31.546875 14.257812 L 31.546875 14.789062 L 32.082031 14.789062 L 32.082031 15.324219 L 32.617188 15.324219 L 32.617188 15.863281 L 33.148438 15.863281 L 33.148438 16.394531 Z M 33.6875 16.394531 " fill-opacity="1" fill-rule="nonzero"/><path fill="#7edaf2" d="M 35.289062 14.257812 L 35.820312 14.257812 L 35.820312 18 L 35.289062 18 Z M 35.289062 14.257812 " fill-opacity="1" fill-rule="nonzero"/><path fill="#7edaf2" d="M 40.101562 14.789062 L 40.101562 15.324219 L 39.566406 15.324219 L 39.566406 14.789062 L 37.960938 14.789062 L 37.960938 14.257812 L 39.566406 14.257812 L 39.566406 14.789062 Z M 37.960938 16.9375 L 37.960938 17.464844 L 39.566406 17.464844 L 39.566406 18 L 37.960938 18 L 37.960938 17.464844 L 37.425781 17.464844 L 37.425781 16.9375 Z M 37.425781 15.324219 L 37.425781 16.929688 L 36.890625 16.929688 L 36.890625 15.324219 Z M 39.566406 17.464844 L 39.566406 16.929688 L 40.101562 16.929688 L 40.101562 17.464844 Z M 37.960938 15.320312 L 37.425781 15.320312 L 37.425781 14.789062 L 37.960938 14.789062 Z M 37.960938 15.320312 " fill-opacity="1" fill-rule="nonzero"/><path fill="#7edaf2" d="M 41.703125 16.929688 L 41.167969 16.929688 L 41.167969 15.324219 L 41.703125 15.324219 L 41.703125 14.789062 L 42.238281 14.789062 L 42.238281 14.257812 L 43.84375 14.257812 L 43.84375 14.789062 L 44.378906 14.789062 L 44.378906 15.324219 L 44.910156 15.324219 L 44.910156 16.929688 L 44.378906 16.929688 L 44.378906 17.464844 L 43.84375 17.464844 L 43.84375 18 L 42.238281 18 L 42.238281 17.464844 L 41.703125 17.464844 Z M 42.238281 17.460938 L 43.84375 17.460938 L 43.84375 16.929688 L 44.371094 16.929688 L 44.371094 15.324219 L 43.84375 15.324219 L 43.84375 14.796875 L 42.238281 14.796875 L 42.238281 15.324219 L 41.707031 15.324219 L 41.707031 16.929688 L 42.238281 16.929688 Z M 42.238281 17.460938 " fill-opacity="1" fill-rule="nonzero"/><path fill="#7edaf2" d="M 46.515625 15.863281 L 48.117188 15.863281 L 48.117188 16.394531 L 48.65625 16.394531 L 48.65625 17.464844 L 48.117188 17.464844 L 48.117188 16.394531 L 46.515625 16.394531 Z M 46.515625 14.257812 L 48.117188 14.257812 L 48.117188 14.789062 L 48.65625 14.789062 L 48.65625 15.324219 L 48.117188 15.324219 L 48.117188 14.789062 L 46.515625 14.789062 Z M 46.515625 17.464844 L 48.117188 17.464844 L 48.117188 18 L 46.515625 18 Z M 46.515625 15.863281 L 45.980469 15.863281 L 45.980469 14.789062 L 46.515625 14.789062 Z M 46.515625 17.464844 L 45.980469 17.464844 L 45.980469 16.929688 L 46.515625 16.929688 Z M 46.515625 17.464844 " fill-opacity="1" fill-rule="nonzero"/></svg>