<svg xmlns="http://www.w3.org/2000/svg" xmlns:xlink="http://www.w3.org/1999/xlink" width="500" zoomAndPan="magnify" viewBox="0 0 375 374.999991" height="500" preserveAspectRatio="xMidYMid meet" version="1.0"><defs><g/><clipPath id="d12b875728"><path d="M 247 136.957031 L 259 136.957031 L 259 141 L 247 141 Z M 247 136.957031 " clip-rule="nonzero"/></clipPath><clipPath id="ff280c1ea1"><path d="M 277 136.957031 L 288 136.957031 L 288 141 L 277 141 Z M 277 136.957031 " clip-rule="nonzero"/></clipPath><clipPath id="8ef138f6aa"><path d="M 133.457031 192.160156 L 208.457031 192.160156 L 208.457031 220 L 133.457031 220 Z M 133.457031 192.160156 " clip-rule="nonzero"/></clipPath><clipPath id="8ad12d3181"><path d="M 133.457031 192.160156 L 208.457031 192.160156 L 208.457031 223.660156 L 133.457031 223.660156 Z M 133.457031 192.160156 " clip-rule="nonzero"/></clipPath><clipPath id="249add87e4"><path d="M 50 125.179688 L 97.25 125.179688 L 97.25 172.429688 L 50 172.429688 Z M 50 125.179688 " clip-rule="nonzero"/></clipPath></defs><path fill="#9e9e9e" d="M 257.441406 139.671875 L 248.152344 139.671875 L 248.152344 138.980469 C 248.152344 138.195312 248.796875 137.546875 249.585938 137.546875 L 256.007812 137.546875 C 256.792969 137.546875 257.441406 138.195312 257.441406 138.980469 Z M 257.441406 139.671875 " fill-opacity="1" fill-rule="nonzero"/><g clip-path="url(#d12b875728)"><path stroke-linecap="round" transform="matrix(0.137855, 0, 0, 0.137858, 238.431829, 136.969575)" fill="none" stroke-linejoin="round" d="M 137.895646 19.602098 L 70.512703 19.602098 L 70.512703 14.586736 C 70.512703 8.891324 75.188138 4.187652 80.912005 4.187652 L 127.496344 4.187652 C 133.191874 4.187652 137.895646 8.891324 137.895646 14.586736 Z M 137.895646 19.602098 " stroke="#000000" stroke-width="8.324" stroke-opacity="1" stroke-miterlimit="10"/></g><path fill="#9e9e9e" d="M 286.984375 139.671875 L 277.691406 139.671875 L 277.691406 138.980469 C 277.691406 138.195312 278.339844 137.546875 279.125 137.546875 L 285.550781 137.546875 C 286.335938 137.546875 286.984375 138.195312 286.984375 138.980469 Z M 286.984375 139.671875 " fill-opacity="1" fill-rule="nonzero"/><g clip-path="url(#ff280c1ea1)"><path stroke-linecap="round" transform="matrix(0.137855, 0, 0, 0.137858, 238.431829, 136.969575)" fill="none" stroke-linejoin="round" d="M 352.200607 19.602098 L 284.789328 19.602098 L 284.789328 14.586736 C 284.789328 8.891324 289.4931 4.187652 295.18863 4.187652 L 341.801305 4.187652 C 347.496836 4.187652 352.200607 8.891324 352.200607 14.586736 Z M 352.200607 19.602098 " stroke="#000000" stroke-width="8.324" stroke-opacity="1" stroke-miterlimit="10"/></g><path fill="#374046" d="M 267.601562 139.410156 L 250.164062 139.410156 L 250.164062 158.449219 L 285.054688 158.449219 L 285.054688 139.410156 Z M 267.601562 139.410156 " fill-opacity="1" fill-rule="nonzero"/><path stroke-linecap="round" transform="matrix(0.137855, 0, 0, 0.137858, 238.431829, 136.969575)" fill="none" stroke-linejoin="round" d="M 327.803335 145.411179 L 95.505031 145.411179 " stroke="#000000" stroke-width="14.566" stroke-opacity="0.15" stroke-miterlimit="10"/><path stroke-linecap="round" transform="matrix(0.137855, 0, 0, 0.137858, 238.431829, 136.969575)" fill="none" stroke-linejoin="round" d="M 211.597511 17.703627 L 85.105729 17.703627 L 85.105729 155.810263 L 338.202637 155.810263 L 338.202637 17.703627 Z M 211.597511 17.703627 " stroke="#000000" stroke-width="8.324" stroke-opacity="1" stroke-miterlimit="10"/><path fill="#374046" d="M 258.601562 147.5 C 258.449219 143.089844 254.851562 139.519531 250.4375 139.410156 C 246.386719 139.300781 242.96875 142.054688 242.058594 145.804688 C 242.058594 145.804688 242.058594 145.804688 242.058594 145.820312 L 241.851562 147.128906 L 239.078125 164.570312 C 238.597656 167.585938 240.582031 170.441406 243.574219 171.046875 C 246.234375 171.585938 248.894531 170.179688 249.941406 167.683594 L 255.609375 154.242188 C 257.511719 152.628906 258.695312 150.203125 258.601562 147.5 Z M 258.601562 147.5 " fill-opacity="1" fill-rule="nonzero"/><path stroke-linecap="round" transform="matrix(0.137855, 0, 0, 0.137858, 238.431829, 136.969575)" fill="none" stroke-linejoin="round" d="M 68.189153 28.896102 C 73.686332 26.997631 79.495206 26.005893 85.58744 26.005893 C 86.097488 26.005893 86.607535 26.005893 87.004239 26.005893 C 114.688484 26.685942 137.102239 48.985885 138.093998 76.697886 C 138.292349 83.186688 137.413934 89.590483 135.288736 95.512577 " stroke="#ffffff" stroke-width="8.324" stroke-opacity="0.2" stroke-miterlimit="10"/><path stroke-linecap="round" transform="matrix(0.137855, 0, 0, 0.137858, 238.431829, 136.969575)" fill="none" stroke-linejoin="round" d="M 69.209248 226.393692 C 63.400374 233.307524 54.786238 237.50116 45.492039 237.50116 C 43.395177 237.50116 41.411659 237.302813 39.399805 236.906117 C 23.10662 233.590878 12.395623 218.204767 15.002532 201.798583 L 17.892801 183.60727 " stroke="#000000" stroke-width="14.566" stroke-opacity="0.15" stroke-miterlimit="10"/><path stroke-linecap="round" transform="matrix(0.137855, 0, 0, 0.137858, 238.431829, 136.969575)" fill="none" stroke-linejoin="round" d="M 146.31143 76.386197 C 145.206327 44.395554 119.108896 18.497018 87.089247 17.703627 C 57.704843 16.910237 32.910867 36.886679 26.308585 64.088642 C 26.308585 64.088642 26.308585 64.088642 26.308585 64.201984 L 24.806779 73.694336 L 4.688238 200.211802 C 1.202914 222.086714 15.597588 242.799876 37.302943 247.19186 C 56.59974 251.102142 75.896538 240.901406 83.490578 222.795099 L 124.606075 125.29306 C 138.405693 113.590549 146.991493 95.994279 146.31143 76.386197 Z M 146.31143 76.386197 " stroke="#000000" stroke-width="8.324" stroke-opacity="1" stroke-miterlimit="10"/><path fill="#374046" d="M 276.617188 147.5 C 276.769531 143.089844 280.367188 139.519531 284.777344 139.410156 C 288.832031 139.300781 292.25 142.054688 293.160156 145.804688 C 293.160156 145.804688 293.160156 145.804688 293.160156 145.820312 L 293.367188 147.128906 L 296.136719 164.570312 C 296.621094 167.585938 294.636719 170.441406 291.644531 171.046875 C 288.984375 171.585938 286.324219 170.179688 285.273438 167.683594 L 279.609375 154.242188 C 277.707031 152.628906 276.519531 150.203125 276.617188 147.5 Z M 276.617188 147.5 " fill-opacity="1" fill-rule="nonzero"/><path stroke-linecap="round" transform="matrix(0.137855, 0, 0, 0.137858, 238.431829, 136.969575)" fill="none" stroke-linejoin="round" d="M 387.592237 111.493731 L 389.094044 120.986083 " stroke="#ffffff" stroke-width="8.324" stroke-opacity="0.45" stroke-miterlimit="10"/><path stroke-linecap="round" transform="matrix(0.137855, 0, 0, 0.137858, 238.431829, 136.969575)" fill="none" stroke-linejoin="round" d="M 380.593252 67.488888 L 385.098672 95.512577 " stroke="#ffffff" stroke-width="8.324" stroke-opacity="0.45" stroke-miterlimit="10"/><path stroke-linecap="round" transform="matrix(0.137855, 0, 0, 0.137858, 238.431829, 136.969575)" fill="none" stroke-linejoin="round" d="M 336.389134 26.005893 C 336.899182 26.005893 337.40923 26.005893 337.805933 26.005893 C 362.004854 26.005893 382.888466 42.298736 388.810684 65.788765 L 406.010619 173.888235 " stroke="#ffffff" stroke-width="8.324" stroke-opacity="0.2" stroke-miterlimit="10"/><path stroke-linecap="round" transform="matrix(0.137855, 0, 0, 0.137858, 238.431829, 136.969575)" fill="none" stroke-linejoin="round" d="M 403.205358 224.296874 C 398.813282 230.587328 392.097657 235.291001 383.908561 236.906117 C 381.896707 237.302813 379.799845 237.50116 377.787991 237.50116 C 365.405171 237.50116 354.212461 230.105626 349.395346 218.601463 L 312.105206 130.110075 " stroke="#000000" stroke-width="14.566" stroke-opacity="0.15" stroke-miterlimit="10"/><path stroke-linecap="round" transform="matrix(0.137855, 0, 0, 0.137858, 238.431829, 136.969575)" fill="none" stroke-linejoin="round" d="M 276.996936 76.386197 C 278.102039 44.395554 304.19947 18.497018 336.190783 17.703627 C 365.603522 16.910237 390.397498 36.886679 396.99978 64.088642 C 396.99978 64.088642 396.99978 64.088642 396.99978 64.201984 L 398.501587 73.694336 L 418.591791 200.211802 C 422.105452 222.086714 407.710778 242.799876 386.005423 247.19186 C 366.708625 251.102142 347.411828 240.901406 339.789451 222.795099 L 298.702291 125.29306 C 284.902672 113.590549 276.288536 95.994279 276.996936 76.386197 Z M 276.996936 76.386197 " stroke="#000000" stroke-width="8.324" stroke-opacity="1" stroke-miterlimit="10"/><path fill="#04a9f4" d="M 273.210938 148.148438 L 261.921875 148.148438 C 261.164062 148.148438 260.558594 147.542969 260.558594 146.785156 L 260.558594 139.960938 C 260.558594 139.203125 261.164062 138.597656 261.921875 138.597656 L 273.210938 138.597656 C 273.972656 138.597656 274.578125 139.203125 274.578125 139.960938 L 274.578125 146.785156 C 274.578125 147.542969 273.957031 148.148438 273.210938 148.148438 Z M 273.210938 148.148438 " fill-opacity="1" fill-rule="nonzero"/><path stroke-linecap="round" transform="matrix(0.137855, 0, 0, 0.137858, 238.431829, 136.969575)" fill="none" stroke-linejoin="round" d="M 211.314151 28.499407 L 217.888097 28.499407 " stroke="#ffffff" stroke-width="8.324" stroke-opacity="0.45" stroke-miterlimit="10"/><path stroke-linecap="round" transform="matrix(0.137855, 0, 0, 0.137858, 238.431829, 136.969575)" fill="none" stroke-linejoin="round" d="M 232.509459 28.499407 L 245.487334 28.499407 L 245.487334 32.806384 " stroke="#ffffff" stroke-width="8.324" stroke-opacity="0.45" stroke-miterlimit="10"/><path stroke-linecap="round" transform="matrix(0.137855, 0, 0, 0.137858, 238.431829, 136.969575)" fill="none" stroke-linejoin="round" d="M 206.61038 20.112134 L 252.287968 20.112134 C 253.194719 20.112134 253.903118 20.792184 253.903118 21.698916 L 253.903118 38.190106 " stroke="#ffffff" stroke-width="8.324" stroke-opacity="0.2" stroke-miterlimit="10"/><path stroke-linecap="round" transform="matrix(0.137855, 0, 0, 0.137858, 238.431829, 136.969575)" fill="none" stroke-linejoin="round" d="M 217.888097 70.690786 L 170.907054 70.690786 L 170.907054 46.407366 " stroke="#000000" stroke-width="14.566" stroke-opacity="0.15" stroke-miterlimit="10"/><path stroke-linecap="round" transform="matrix(0.137855, 0, 0, 0.137858, 238.431829, 136.969575)" fill="none" stroke-linejoin="round" d="M 252.287968 81.08987 L 170.397006 81.08987 C 164.899828 81.08987 160.507752 76.697886 160.507752 71.200822 L 160.507752 21.698916 C 160.507752 16.201852 164.899828 11.809868 170.397006 11.809868 L 252.287968 11.809868 C 257.813482 11.809868 262.205558 16.201852 262.205558 21.698916 L 262.205558 71.200822 C 262.205558 76.697886 257.700138 81.08987 252.287968 81.08987 Z M 252.287968 81.08987 " stroke="#000000" stroke-width="8.324" stroke-opacity="1" stroke-miterlimit="10"/><path stroke-linecap="round" transform="matrix(0.137855, 0, 0, 0.137858, 238.431829, 136.969575)" fill-opacity="1" fill="#9e9e9e" fill-rule="nonzero" stroke-linejoin="round" d="M 167.903441 148.896431 C 167.903441 151.361609 167.648417 153.798451 167.166706 156.206959 C 166.684994 158.643801 165.976595 160.967302 165.041508 163.262468 C 164.106421 165.529298 162.944646 167.682787 161.584519 169.722934 C 160.224392 171.791417 158.665914 173.661552 156.909083 175.418345 C 155.180589 177.146803 153.282079 178.705249 151.241889 180.093683 C 149.173363 181.453781 147.019829 182.615532 144.752951 183.550599 C 142.486073 184.485667 140.134188 185.194051 137.72563 185.675752 C 135.288736 186.157454 132.851843 186.412472 130.386613 186.412472 C 127.949719 186.412472 125.512826 186.157454 123.075932 185.675752 C 120.667374 185.194051 118.315489 184.485667 116.048611 183.550599 C 113.781733 182.615532 111.599863 181.453781 109.559673 180.093683 C 107.519483 178.705249 105.620973 177.146803 103.892479 175.418345 C 102.135648 173.661552 100.57717 171.791417 99.217043 169.722934 C 97.856916 167.682787 96.695141 165.529298 95.760054 163.262468 C 94.824967 160.967302 94.088232 158.643801 93.60652 156.206959 C 93.153145 153.798451 92.898121 151.361609 92.898121 148.896431 C 92.898121 146.431253 93.153145 143.99441 93.60652 141.585903 C 94.088232 139.177396 94.824967 136.82556 95.760054 134.558729 C 96.695141 132.263564 97.856916 130.110075 99.217043 128.069927 C 100.57717 126.02978 102.135648 124.13131 103.892479 122.374516 C 105.620973 120.646058 107.519483 119.087612 109.559673 117.727514 C 111.599863 116.339081 113.781733 115.205666 116.048611 114.242263 C 118.315489 113.307195 120.667374 112.598811 123.075932 112.117109 C 125.512826 111.635408 127.949719 111.408725 130.386613 111.408725 C 132.851843 111.408725 135.288736 111.635408 137.72563 112.117109 C 140.134188 112.598811 142.486073 113.307195 144.752951 114.242263 C 147.019829 115.205666 149.173363 116.339081 151.241889 117.727514 C 153.282079 119.087612 155.180589 120.646058 156.909083 122.374516 C 158.665914 124.13131 160.224392 126.02978 161.584519 128.069927 C 162.944646 130.110075 164.106421 132.263564 165.041508 134.558729 C 165.976595 136.82556 166.684994 139.177396 167.166706 141.585903 C 167.648417 143.99441 167.903441 146.431253 167.903441 148.896431 Z M 167.903441 148.896431 " stroke="#000000" stroke-width="8.324" stroke-opacity="1" stroke-miterlimit="10"/><path fill="#374046" d="M 259.453125 157.496094 C 259.453125 157.902344 259.378906 158.289062 259.222656 158.664062 C 259.066406 159.035156 258.847656 159.363281 258.5625 159.652344 C 258.277344 159.9375 257.945312 160.15625 257.574219 160.3125 C 257.199219 160.464844 256.8125 160.542969 256.40625 160.542969 C 256.003906 160.542969 255.617188 160.464844 255.242188 160.3125 C 254.867188 160.15625 254.539062 159.9375 254.253906 159.652344 C 253.96875 159.363281 253.746094 159.035156 253.59375 158.664062 C 253.4375 158.289062 253.363281 157.902344 253.363281 157.496094 C 253.363281 157.09375 253.4375 156.703125 253.59375 156.332031 C 253.746094 155.957031 253.96875 155.628906 254.253906 155.34375 C 254.539062 155.054688 254.867188 154.835938 255.242188 154.683594 C 255.617188 154.527344 256.003906 154.449219 256.40625 154.449219 C 256.8125 154.449219 257.199219 154.527344 257.574219 154.683594 C 257.945312 154.835938 258.277344 155.054688 258.5625 155.34375 C 258.847656 155.628906 259.066406 155.957031 259.222656 156.332031 C 259.378906 156.703125 259.453125 157.09375 259.453125 157.496094 Z M 259.453125 157.496094 " fill-opacity="1" fill-rule="nonzero"/><path stroke-linecap="round" transform="matrix(0.137855, 0, 0, 0.137858, 238.431829, 136.969575)" fill="none" stroke-linejoin="round" d="M 135.798784 136.287187 C 138.292349 137.307261 140.389211 139.09239 141.891018 141.302549 " stroke="#ffffff" stroke-width="8.324" stroke-opacity="0.2" stroke-miterlimit="10"/><path stroke-linecap="round" transform="matrix(0.137855, 0, 0, 0.137858, 238.431829, 136.969575)" fill="none" stroke-linejoin="round" d="M 126.702937 160.088905 C 124.407723 159.295515 122.395869 157.79374 120.894062 155.895269 " stroke="#000000" stroke-width="14.566" stroke-opacity="0.15" stroke-miterlimit="10"/><path stroke-linecap="round" transform="matrix(0.137855, 0, 0, 0.137858, 238.431829, 136.969575)" fill="none" stroke-linejoin="round" d="M 152.488672 148.896431 C 152.488672 151.84331 151.950288 154.648513 150.816849 157.368709 C 149.68341 160.06057 148.096596 162.440742 146.02807 164.53756 C 143.959544 166.606043 141.550986 168.192824 138.859069 169.326239 C 136.138815 170.431319 133.333554 170.998026 130.386613 170.998026 C 127.468008 170.998026 124.662747 170.431319 121.942493 169.326239 C 119.22224 168.192824 116.842018 166.606043 114.773492 164.53756 C 112.704966 162.440742 111.089816 160.06057 109.984713 157.368709 C 108.851274 154.648513 108.31289 151.84331 108.31289 148.896431 C 108.31289 145.977887 108.851274 143.144349 109.984713 140.452488 C 111.089816 137.732292 112.704966 135.35212 114.773492 133.283637 C 116.842018 131.186819 119.22224 129.600038 121.942493 128.494958 C 124.662747 127.361543 127.468008 126.794835 130.386613 126.794835 C 133.333554 126.794835 136.138815 127.361543 138.859069 128.494958 C 141.550986 129.600038 143.959544 131.186819 146.02807 133.283637 C 148.096596 135.35212 149.68341 137.732292 150.816849 140.452488 C 151.950288 143.144349 152.488672 145.977887 152.488672 148.896431 Z M 152.488672 148.896431 " stroke="#000000" stroke-width="8.324" stroke-opacity="1" stroke-miterlimit="10"/><path stroke-linecap="round" transform="matrix(0.137855, 0, 0, 0.137858, 238.431829, 136.969575)" fill-opacity="1" fill="#9e9e9e" fill-rule="nonzero" stroke-linejoin="round" d="M 329.701845 148.896431 C 329.701845 151.361609 329.446821 153.798451 328.993446 156.206959 C 328.511734 158.643801 327.774999 160.967302 326.839912 163.262468 C 325.904825 165.529298 324.74305 167.682787 323.382923 169.722934 C 322.022796 171.791417 320.464318 173.661552 318.707488 175.418345 C 316.978993 177.146803 315.080483 178.705249 313.040293 180.093683 C 311.000103 181.453781 308.818233 182.615532 306.551355 183.550599 C 304.284477 184.485667 301.932592 185.194051 299.524034 185.675752 C 297.08714 186.157454 294.650247 186.412472 292.213353 186.412472 C 289.748123 186.412472 287.31123 186.157454 284.874336 185.675752 C 282.465778 185.194051 280.113893 184.485667 277.847015 183.550599 C 275.580137 182.615532 273.426603 181.453781 271.358077 180.093683 C 269.317887 178.705249 267.419377 177.146803 265.690883 175.418345 C 263.934052 173.661552 262.375574 171.791417 261.015447 169.722934 C 259.65532 167.682787 258.493546 165.529298 257.558458 163.262468 C 256.623371 160.967302 255.914972 158.643801 255.433261 156.206959 C 254.951549 153.798451 254.696525 151.361609 254.696525 148.896431 C 254.696525 146.431253 254.951549 143.99441 255.433261 141.585903 C 255.914972 139.177396 256.623371 136.82556 257.558458 134.558729 C 258.493546 132.263564 259.65532 130.110075 261.015447 128.069927 C 262.375574 126.02978 263.934052 124.13131 265.690883 122.374516 C 267.419377 120.646058 269.317887 119.087612 271.358077 117.727514 C 273.426603 116.339081 275.580137 115.205666 277.847015 114.242263 C 280.113893 113.307195 282.465778 112.598811 284.874336 112.117109 C 287.31123 111.635408 289.748123 111.408725 292.213353 111.408725 C 294.650247 111.408725 297.08714 111.635408 299.524034 112.117109 C 301.932592 112.598811 304.284477 113.307195 306.551355 114.242263 C 308.818233 115.205666 311.000103 116.339081 313.040293 117.727514 C 315.080483 119.087612 316.978993 120.646058 318.707488 122.374516 C 320.464318 124.13131 322.022796 126.02978 323.382923 128.069927 C 324.74305 130.110075 325.904825 132.263564 326.839912 134.558729 C 327.774999 136.82556 328.511734 139.177396 328.993446 141.585903 C 329.446821 143.99441 329.701845 146.431253 329.701845 148.896431 Z M 329.701845 148.896431 " stroke="#000000" stroke-width="8.324" stroke-opacity="1" stroke-miterlimit="10"/><path fill="#374046" d="M 281.757812 157.496094 C 281.757812 157.902344 281.683594 158.289062 281.527344 158.664062 C 281.375 159.035156 281.152344 159.363281 280.867188 159.652344 C 280.582031 159.9375 280.253906 160.15625 279.878906 160.3125 C 279.503906 160.464844 279.117188 160.542969 278.714844 160.542969 C 278.308594 160.542969 277.921875 160.464844 277.546875 160.3125 C 277.175781 160.15625 276.84375 159.9375 276.558594 159.652344 C 276.273438 159.363281 276.054688 159.035156 275.898438 158.664062 C 275.742188 158.289062 275.667969 157.902344 275.667969 157.496094 C 275.667969 157.09375 275.742188 156.703125 275.898438 156.332031 C 276.054688 155.957031 276.273438 155.628906 276.558594 155.34375 C 276.84375 155.054688 277.175781 154.835938 277.546875 154.683594 C 277.921875 154.527344 278.308594 154.449219 278.714844 154.449219 C 279.117188 154.449219 279.503906 154.527344 279.878906 154.683594 C 280.253906 154.835938 280.582031 155.054688 280.867188 155.34375 C 281.152344 155.628906 281.375 155.957031 281.527344 156.332031 C 281.683594 156.703125 281.757812 157.09375 281.757812 157.496094 Z M 281.757812 157.496094 " fill-opacity="1" fill-rule="nonzero"/><path stroke-linecap="round" transform="matrix(0.137855, 0, 0, 0.137858, 238.431829, 136.969575)" fill="none" stroke-linejoin="round" d="M 299.212338 137.108913 C 300.997505 138.100652 302.499311 139.602427 303.689422 141.302549 " stroke="#ffffff" stroke-width="8.324" stroke-opacity="0.2" stroke-miterlimit="10"/><path stroke-linecap="round" transform="matrix(0.137855, 0, 0, 0.137858, 238.431829, 136.969575)" fill="none" stroke-linejoin="round" d="M 287.112878 159.408856 C 284.98768 158.388783 283.287522 156.68866 282.097411 154.705184 " stroke="#000000" stroke-width="14.566" stroke-opacity="0.15" stroke-miterlimit="10"/><path stroke-linecap="round" transform="matrix(0.137855, 0, 0, 0.137858, 238.431829, 136.969575)" fill="none" stroke-linejoin="round" d="M 314.287076 148.896431 C 314.287076 151.84331 313.748692 154.648513 312.615253 157.368709 C 311.51015 160.06057 309.895 162.440742 307.826474 164.53756 C 305.757948 166.606043 303.377726 168.192824 300.657473 169.326239 C 297.93722 170.431319 295.131958 170.998026 292.213353 170.998026 C 289.266412 170.998026 286.461151 170.431319 283.740897 169.326239 C 281.04898 168.192824 278.640422 166.606043 276.571896 164.53756 C 274.50337 162.440742 272.916556 160.06057 271.783117 157.368709 C 270.649678 154.648513 270.111294 151.84331 270.111294 148.896431 C 270.111294 145.977887 270.649678 143.144349 271.783117 140.452488 C 272.916556 137.732292 274.50337 135.35212 276.571896 133.283637 C 278.640422 131.186819 281.04898 129.600038 283.740897 128.494958 C 286.461151 127.361543 289.266412 126.794835 292.213353 126.794835 C 295.131958 126.794835 297.93722 127.361543 300.657473 128.494958 C 303.377726 129.600038 305.757948 131.186819 307.826474 133.283637 C 309.895 135.35212 311.51015 137.732292 312.615253 140.452488 C 313.748692 143.144349 314.287076 145.977887 314.287076 148.896431 Z M 314.287076 148.896431 " stroke="#000000" stroke-width="8.324" stroke-opacity="1" stroke-miterlimit="10"/><path stroke-linecap="round" transform="matrix(0.137855, 0, 0, 0.137858, 238.431829, 136.969575)" fill-opacity="1" fill="#9e9e9e" fill-rule="nonzero" stroke-linejoin="round" d="M 116.813682 63.805288 L 94.994983 63.805288 L 94.994983 41.987047 L 76.491593 41.987047 L 76.491593 63.805288 L 54.70123 63.805288 L 54.70123 82.194949 L 76.491593 82.194949 L 76.491593 104.013191 L 94.994983 104.013191 L 94.994983 82.194949 L 116.813682 82.194949 Z M 116.813682 63.805288 " stroke="#000000" stroke-width="8.324" stroke-opacity="1" stroke-miterlimit="10"/><path stroke-linecap="round" transform="matrix(0.137855, 0, 0, 0.137858, 238.431829, 136.969575)" fill-opacity="1" fill="#04a9f4" fill-rule="nonzero" stroke-linejoin="round" d="M 320.209294 76.811227 C 320.209294 78.313002 319.897598 79.786442 319.330879 81.203211 C 318.735824 82.61998 317.91408 83.866737 316.837313 84.943481 C 315.760546 86.020225 314.513764 86.841951 313.096965 87.436994 C 311.680166 88.003702 310.235032 88.287056 308.704889 88.287056 C 307.174747 88.287056 305.701276 88.003702 304.312813 87.436994 C 302.896015 86.841951 301.649232 86.020225 300.572465 84.943481 C 299.495698 83.866737 298.645619 82.61998 298.078899 81.203211 C 297.483844 79.786442 297.200484 78.313002 297.200484 76.811227 C 297.200484 75.281117 297.483844 73.807677 298.078899 72.390908 C 298.645619 71.002475 299.495698 69.755718 300.572465 68.678974 C 301.649232 67.602229 302.896015 66.752168 304.312813 66.18546 C 305.701276 65.590417 307.174747 65.307064 308.704889 65.307064 C 310.235032 65.307064 311.680166 65.590417 313.096965 66.18546 C 314.513764 66.752168 315.760546 67.602229 316.837313 68.678974 C 317.91408 69.755718 318.735824 71.002475 319.330879 72.390908 C 319.897598 73.807677 320.209294 75.281117 320.209294 76.811227 Z M 320.209294 76.811227 " stroke="#000000" stroke-width="8.324" stroke-opacity="1" stroke-miterlimit="10"/><path stroke-linecap="round" transform="matrix(0.137855, 0, 0, 0.137858, 238.431829, 136.969575)" fill-opacity="1" fill="#8bc34a" fill-rule="nonzero" stroke-linejoin="round" d="M 345.088278 49.69427 C 345.088278 51.22438 344.804918 52.69782 344.238199 54.114589 C 343.643144 55.503022 342.8214 56.749779 341.744633 57.826524 C 340.63953 58.903268 339.421084 59.753329 338.004285 60.320037 C 336.587486 60.91508 335.114016 61.198434 333.612209 61.198434 C 332.082067 61.198434 330.608596 60.91508 329.191797 60.320037 C 327.803335 59.753329 326.556552 58.903268 325.479785 57.826524 C 324.403018 56.749779 323.552939 55.503022 322.986219 54.114589 C 322.391164 52.69782 322.107804 51.22438 322.107804 49.69427 C 322.107804 48.164159 322.391164 46.719055 322.986219 45.302286 C 323.552939 43.885517 324.403018 42.638761 325.479785 41.562016 C 326.556552 40.485272 327.803335 39.663546 329.191797 39.068503 C 330.608596 38.501795 332.082067 38.190106 333.612209 38.190106 C 335.114016 38.190106 336.587486 38.501795 338.004285 39.068503 C 339.421084 39.663546 340.63953 40.485272 341.744633 41.562016 C 342.8214 42.638761 343.643144 43.885517 344.238199 45.302286 C 344.804918 46.719055 345.088278 48.164159 345.088278 49.69427 Z M 345.088278 49.69427 " stroke="#000000" stroke-width="8.324" stroke-opacity="1" stroke-miterlimit="10"/><path stroke-linecap="round" transform="matrix(0.137855, 0, 0, 0.137858, 238.431829, 136.969575)" fill-opacity="1" fill="#8bc34a" fill-rule="nonzero" stroke-linejoin="round" d="M 351.4072 95.512577 C 351.4072 97.014352 351.095504 98.487792 350.528785 99.904561 C 349.933729 101.32133 349.111986 102.539751 348.035219 103.644831 C 346.958452 104.721575 345.71167 105.543301 344.294871 106.138344 C 342.878072 106.705052 341.432938 106.988406 339.902795 106.988406 C 338.372653 106.988406 336.899182 106.705052 335.510719 106.138344 C 334.093921 105.543301 332.847138 104.721575 331.770371 103.644831 C 330.693604 102.539751 329.871861 101.32133 329.276805 99.904561 C 328.68175 98.487792 328.39839 97.014352 328.39839 95.512577 C 328.39839 93.982467 328.68175 92.509027 329.276805 91.092258 C 329.871861 89.703825 330.693604 88.457068 331.770371 87.380324 C 332.847138 86.303579 334.093921 85.453518 335.510719 84.88681 C 336.899182 84.291767 338.372653 84.008414 339.902795 84.008414 C 341.432938 84.008414 342.878072 84.291767 344.294871 84.88681 C 345.71167 85.453518 346.958452 86.303579 348.035219 87.380324 C 349.111986 88.457068 349.933729 89.703825 350.528785 91.092258 C 351.095504 92.509027 351.4072 93.982467 351.4072 95.512577 Z M 351.4072 95.512577 " stroke="#000000" stroke-width="8.324" stroke-opacity="1" stroke-miterlimit="10"/><path stroke-linecap="round" transform="matrix(0.137855, 0, 0, 0.137858, 238.431829, 136.969575)" fill-opacity="1" fill="#f44336" fill-rule="nonzero" stroke-linejoin="round" d="M 376.286184 68.508961 C 376.286184 70.039072 376.002824 71.484176 375.436105 72.900945 C 374.841049 74.317714 374.019306 75.564471 372.942539 76.641215 C 371.865772 77.717959 370.61899 78.539685 369.202191 79.134728 C 367.785392 79.701436 366.311922 80.013125 364.810115 80.013125 C 363.279973 80.013125 361.806502 79.701436 360.389703 79.134728 C 359.001241 78.539685 357.754458 77.717959 356.677691 76.641215 C 355.600924 75.564471 354.750845 74.317714 354.184125 72.900945 C 353.58907 71.484176 353.30571 70.039072 353.30571 68.508961 C 353.30571 66.978851 353.58907 65.505411 354.184125 64.088642 C 354.750845 62.700209 355.600924 61.453452 356.677691 60.376708 C 357.754458 59.299963 359.001241 58.449902 360.389703 57.883194 C 361.806502 57.288151 363.279973 57.004798 364.810115 57.004798 C 366.311922 57.004798 367.785392 57.288151 369.202191 57.883194 C 370.61899 58.449902 371.865772 59.299963 372.942539 60.376708 C 374.019306 61.453452 374.841049 62.700209 375.436105 64.088642 C 376.002824 65.505411 376.286184 66.978851 376.286184 68.508961 Z M 376.286184 68.508961 " stroke="#000000" stroke-width="8.324" stroke-opacity="1" stroke-miterlimit="10"/><path stroke-linecap="round" transform="matrix(0.137855, 0, 0, 0.137858, 238.431829, 136.969575)" fill="none" stroke-linejoin="round" d="M 221.911805 116.509093 L 242.993768 116.509093 " stroke="#000000" stroke-width="8.324" stroke-opacity="1" stroke-miterlimit="10"/><path stroke-linecap="round" transform="matrix(0.137855, 0, 0, 0.137858, 238.431829, 136.969575)" fill="none" stroke-linejoin="round" d="M 180.286261 116.509093 L 201.311553 116.509093 " stroke="#000000" stroke-width="8.324" stroke-opacity="1" stroke-miterlimit="10"/><g clip-path="url(#8ef138f6aa)"><path fill="#fc5658" d="M 208.367188 205.964844 L 208.367188 206.019531 C 208.367188 206.039062 208.367188 206.039062 208.367188 206.058594 C 208.367188 213.738281 202.097656 219.957031 194.351562 219.957031 L 147.558594 219.957031 C 139.816406 219.957031 133.542969 213.71875 133.542969 206.058594 C 133.542969 206.019531 133.542969 206 133.542969 205.964844 C 133.542969 205.925781 133.542969 205.90625 133.542969 205.867188 C 133.660156 198.285156 139.875 192.160156 147.558594 192.160156 L 194.351562 192.160156 C 194.351562 192.160156 194.351562 192.160156 194.371094 192.160156 C 202.058594 192.160156 208.3125 198.324219 208.367188 205.964844 Z M 208.367188 205.964844 L 208.367188 206.019531 C 208.367188 206.039062 208.367188 206.039062 208.367188 206.058594 C 208.367188 213.738281 202.097656 219.957031 194.351562 219.957031 L 147.558594 219.957031 C 139.816406 219.957031 133.542969 213.71875 133.542969 206.058594 C 133.542969 206.019531 133.542969 206 133.542969 205.964844 C 133.542969 205.925781 133.542969 205.90625 133.542969 205.867188 C 133.660156 198.285156 139.875 192.160156 147.558594 192.160156 L 194.351562 192.160156 C 194.351562 192.160156 194.351562 192.160156 194.371094 192.160156 C 202.058594 192.160156 208.3125 198.324219 208.367188 205.964844 Z M 208.367188 205.964844 " fill-opacity="1" fill-rule="nonzero"/></g><path fill="#1f1347" d="M 154.722656 200.1875 L 157.296875 200.1875 C 158.089844 200.1875 158.710938 200.414062 159.175781 200.875 C 159.640625 201.335938 159.871094 201.972656 159.871094 202.738281 L 159.871094 204.003906 C 159.871094 204.792969 159.640625 205.40625 159.175781 205.867188 C 158.710938 206.328125 158.089844 206.558594 157.296875 206.558594 L 156.367188 206.558594 L 156.367188 210.914062 L 154.722656 210.914062 C 154.722656 210.914062 154.722656 200.1875 154.722656 200.1875 Z M 157.199219 205.042969 C 157.53125 205.042969 157.761719 204.945312 157.9375 204.773438 C 158.109375 204.601562 158.207031 204.351562 158.207031 204.042969 L 158.207031 202.71875 C 158.207031 202.394531 158.109375 202.164062 157.9375 201.988281 C 157.761719 201.816406 157.511719 201.722656 157.199219 201.722656 L 156.347656 201.722656 L 156.347656 205.042969 Z M 163.550781 200.1875 L 165.195312 200.1875 L 165.195312 209.398438 L 168.121094 209.398438 L 168.121094 210.933594 L 163.550781 210.933594 Z M 175.109375 208.554688 L 173.347656 208.554688 L 173 210.933594 L 171.351562 210.933594 L 173.152344 200.1875 L 175.359375 200.1875 L 177.160156 210.933594 L 175.496094 210.933594 Z M 174.894531 206.980469 L 174.238281 202.488281 L 173.578125 206.980469 Z M 185.523438 200.1875 L 183.316406 206.441406 L 183.316406 210.933594 L 181.671875 210.933594 L 181.671875 206.441406 L 179.464844 200.1875 L 181.207031 200.1875 L 182.484375 204.292969 L 183.78125 200.1875 C 183.78125 200.1875 185.523438 200.1875 185.523438 200.1875 Z M 185.523438 200.1875 " fill-opacity="1" fill-rule="nonzero"/><g clip-path="url(#8ad12d3181)"><path fill="#1f1347" d="M 194.371094 192.160156 C 194.351562 192.160156 194.351562 192.160156 194.371094 192.160156 L 147.558594 192.160156 C 139.875 192.160156 133.660156 198.285156 133.542969 205.867188 C 133.542969 205.90625 133.542969 205.925781 133.542969 205.964844 C 133.542969 206 133.542969 206.019531 133.542969 206.058594 C 133.542969 206.425781 133.5625 206.769531 133.582031 207.113281 L 133.542969 207.113281 L 133.542969 209.570312 C 133.542969 209.609375 133.542969 209.628906 133.542969 209.667969 C 133.542969 209.707031 133.542969 209.726562 133.542969 209.765625 C 133.542969 217.421875 139.816406 223.660156 147.558594 223.660156 L 194.351562 223.660156 C 202.097656 223.660156 208.367188 217.441406 208.367188 209.765625 C 208.367188 209.746094 208.367188 209.746094 208.367188 209.726562 L 208.367188 207.113281 L 208.332031 207.113281 C 208.347656 206.769531 208.367188 206.425781 208.367188 206.058594 C 208.367188 206.039062 208.367188 206.039062 208.367188 206.019531 L 208.367188 205.964844 C 208.3125 198.324219 202.058594 192.160156 194.371094 192.160156 Z M 135.480469 205.964844 L 135.480469 205.886719 C 135.535156 202.71875 136.816406 199.761719 139.078125 197.535156 C 141.34375 195.308594 144.363281 194.082031 147.558594 194.082031 L 194.371094 194.082031 C 197.566406 194.082031 200.585938 195.308594 202.871094 197.554688 C 205.136719 199.800781 206.414062 202.777344 206.433594 205.964844 L 206.433594 206.058594 C 206.433594 212.664062 201.011719 218.039062 194.351562 218.039062 L 147.558594 218.039062 C 140.898438 218.039062 135.480469 212.664062 135.480469 206.058594 Z M 135.480469 205.964844 " fill-opacity="1" fill-rule="nonzero"/></g><g clip-path="url(#249add87e4)"><path fill="#8492a1" d="M 67.019531 170.519531 L 80.21875 170.519531 L 80.21875 156.363281 C 80.21875 155.835938 80.648438 155.40625 81.175781 155.40625 L 95.332031 155.40625 L 95.332031 142.207031 L 81.175781 142.207031 C 80.648438 142.207031 80.21875 141.777344 80.21875 141.25 L 80.21875 127.09375 L 67.019531 127.09375 L 67.019531 141.25 C 67.019531 141.777344 66.589844 142.207031 66.0625 142.207031 L 51.914062 142.207031 L 51.914062 155.40625 L 66.0625 155.40625 C 66.589844 155.40625 67.019531 155.835938 67.019531 156.363281 Z M 81.175781 172.429688 L 66.0625 172.429688 C 65.535156 172.429688 65.105469 172.003906 65.105469 171.476562 L 65.105469 157.320312 L 50.957031 157.320312 C 50.429688 157.320312 50 156.890625 50 156.363281 L 50 141.25 C 50 140.722656 50.429688 140.292969 50.957031 140.292969 L 65.105469 140.292969 L 65.105469 126.136719 C 65.105469 125.609375 65.535156 125.179688 66.0625 125.179688 L 81.175781 125.179688 C 81.703125 125.179688 82.132812 125.609375 82.132812 126.136719 L 82.132812 140.292969 L 96.289062 140.292969 C 96.816406 140.292969 97.246094 140.722656 97.246094 141.25 L 97.246094 156.363281 C 97.246094 156.890625 96.816406 157.320312 96.289062 157.320312 L 82.132812 157.320312 L 82.132812 171.476562 C 82.132812 172.003906 81.703125 172.429688 81.175781 172.429688 " fill-opacity="1" fill-rule="nonzero"/></g><path fill="#fcc033" d="M 72.214844 135.390625 L 75.03125 135.390625 L 73.621094 132.953125 Z M 76.6875 137.304688 L 70.558594 137.304688 C 70.214844 137.304688 69.902344 137.121094 69.730469 136.828125 C 69.558594 136.53125 69.558594 136.167969 69.730469 135.871094 L 72.792969 130.5625 C 72.964844 130.265625 73.28125 130.085938 73.621094 130.085938 C 73.964844 130.085938 74.28125 130.269531 74.449219 130.5625 L 77.515625 135.871094 C 77.683594 136.167969 77.683594 136.53125 77.515625 136.828125 C 77.34375 137.121094 77.027344 137.304688 76.6875 137.304688 " fill-opacity="1" fill-rule="nonzero"/><path fill="#3bb0ce" d="M 72.214844 162.222656 L 73.621094 164.660156 L 75.03125 162.222656 Z M 73.621094 167.527344 C 73.28125 167.527344 72.964844 167.347656 72.792969 167.050781 L 69.730469 161.742188 C 69.558594 161.449219 69.558594 161.082031 69.730469 160.789062 C 69.902344 160.492188 70.214844 160.308594 70.558594 160.308594 L 76.6875 160.308594 C 77.027344 160.308594 77.34375 160.492188 77.515625 160.789062 C 77.683594 161.082031 77.683594 161.449219 77.515625 161.742188 L 74.449219 167.050781 C 74.28125 167.347656 73.964844 167.527344 73.621094 167.527344 " fill-opacity="1" fill-rule="nonzero"/><path fill="#97bf1f" d="M 57.769531 148.808594 L 60.207031 150.214844 L 60.207031 147.398438 Z M 61.164062 152.828125 C 61 152.828125 60.832031 152.785156 60.6875 152.699219 L 55.378906 149.636719 C 55.082031 149.464844 54.898438 149.148438 54.898438 148.808594 C 54.898438 148.464844 55.082031 148.148438 55.378906 147.980469 L 60.6875 144.914062 C 60.980469 144.742188 61.347656 144.742188 61.640625 144.914062 C 61.9375 145.085938 62.121094 145.402344 62.121094 145.742188 L 62.121094 151.871094 C 62.121094 152.214844 61.9375 152.527344 61.640625 152.699219 C 61.492188 152.785156 61.328125 152.828125 61.164062 152.828125 " fill-opacity="1" fill-rule="nonzero"/><path fill="#d70c3f" d="M 87.035156 147.398438 L 87.035156 150.214844 L 89.476562 148.808594 Z M 86.082031 152.828125 C 85.914062 152.828125 85.75 152.785156 85.601562 152.699219 C 85.308594 152.527344 85.125 152.214844 85.125 151.871094 L 85.125 145.742188 C 85.125 145.402344 85.308594 145.085938 85.601562 144.914062 C 85.898438 144.742188 86.261719 144.742188 86.558594 144.914062 L 91.867188 147.980469 C 92.164062 148.148438 92.34375 148.464844 92.34375 148.808594 C 92.34375 149.148438 92.160156 149.464844 91.867188 149.636719 L 86.558594 152.699219 C 86.410156 152.785156 86.246094 152.828125 86.082031 152.828125 " fill-opacity="1" fill-rule="nonzero"/><g fill="#ff00ff" fill-opacity="1"><g transform="translate(96.518809, 165.084374)"><g><path d="M 4.8125 -4.8125 L 0 -4.8125 L 0 -9.625 L 9.625 -9.625 L 9.625 -4.8125 L 19.234375 -4.8125 L 19.234375 -14.421875 L 4.8125 -14.421875 L 4.8125 -19.234375 L 0 -19.234375 L 0 -28.875 L 4.8125 -28.875 L 4.8125 -33.6875 L 24.0625 -33.6875 L 24.0625 -28.875 L 28.875 -28.875 L 28.875 -24.0625 L 19.234375 -24.0625 L 19.234375 -28.875 L 9.625 -28.875 L 9.625 -19.234375 L 24.0625 -19.234375 L 24.0625 -14.421875 L 28.875 -14.421875 L 28.875 -4.8125 L 24.0625 -4.8125 L 24.0625 0 L 4.8125 0 Z M 4.8125 -4.8125 "/></g></g></g><g fill="#ff00ff" fill-opacity="1"><g transform="translate(133.573235, 165.084374)"><g><path d="M 0 -33.6875 L 9.625 -33.6875 L 9.625 -19.234375 L 24.0625 -19.234375 L 24.0625 -33.6875 L 33.6875 -33.6875 L 33.6875 0 L 24.0625 0 L 24.0625 -14.421875 L 9.625 -14.421875 L 9.625 0 L 0 0 Z M 0 -33.6875 "/></g></g></g><g fill="#ff00ff" fill-opacity="1"><g transform="translate(175.419847, 165.084374)"><g><path d="M 4.8125 -24.0625 L 4.8125 -28.875 L 9.625 -28.875 L 9.625 -33.6875 L 28.875 -33.6875 L 28.875 -28.875 L 33.6875 -28.875 L 33.6875 -24.0625 L 38.484375 -24.0625 L 38.484375 -9.625 L 33.6875 -9.625 L 33.6875 -4.8125 L 28.875 -4.8125 L 28.875 0 L 9.625 0 L 9.625 -4.8125 L 4.8125 -4.8125 L 4.8125 -9.625 L 0 -9.625 L 0 -24.0625 Z M 24.0625 -24.0625 L 24.0625 -28.875 L 14.421875 -28.875 L 14.421875 -24.109375 L 9.625 -24.109375 L 9.625 -9.578125 L 14.421875 -9.578125 L 14.421875 -4.8125 L 24.0625 -4.8125 L 24.0625 -9.625 L 28.875 -9.625 L 28.875 -24.0625 Z M 24.0625 -24.0625 "/></g></g></g><g fill="#ff00ff" fill-opacity="1"><g transform="translate(222.082136, 165.084374)"><g><path d="M 9.625 -19.234375 L 19.265625 -19.234375 L 19.265625 -28.875 L 9.625 -28.875 Z M 24.0625 -19.234375 L 24.0625 -14.421875 L 9.625 -14.421875 L 9.625 0 L 0 0 L 0 -33.6875 L 24.0625 -33.6875 L 24.0625 -28.875 L 28.875 -28.875 L 28.875 -19.234375 Z M 24.0625 -19.234375 "/></g></g></g><g fill="#00ffff" fill-opacity="1"><g transform="translate(94.714429, 165.084374)"><g><path d="M 4.8125 -4.8125 L 0 -4.8125 L 0 -9.625 L 9.625 -9.625 L 9.625 -4.8125 L 19.234375 -4.8125 L 19.234375 -14.421875 L 4.8125 -14.421875 L 4.8125 -19.234375 L 0 -19.234375 L 0 -28.875 L 4.8125 -28.875 L 4.8125 -33.6875 L 24.0625 -33.6875 L 24.0625 -28.875 L 28.875 -28.875 L 28.875 -24.0625 L 19.234375 -24.0625 L 19.234375 -28.875 L 9.625 -28.875 L 9.625 -19.234375 L 24.0625 -19.234375 L 24.0625 -14.421875 L 28.875 -14.421875 L 28.875 -4.8125 L 24.0625 -4.8125 L 24.0625 0 L 4.8125 0 Z M 4.8125 -4.8125 "/></g></g></g><g fill="#00ffff" fill-opacity="1"><g transform="translate(131.768855, 165.084374)"><g><path d="M 0 -33.6875 L 9.625 -33.6875 L 9.625 -19.234375 L 24.0625 -19.234375 L 24.0625 -33.6875 L 33.6875 -33.6875 L 33.6875 0 L 24.0625 0 L 24.0625 -14.421875 L 9.625 -14.421875 L 9.625 0 L 0 0 Z M 0 -33.6875 "/></g></g></g><g fill="#00ffff" fill-opacity="1"><g transform="translate(173.615467, 165.084374)"><g><path d="M 4.8125 -24.0625 L 4.8125 -28.875 L 9.625 -28.875 L 9.625 -33.6875 L 28.875 -33.6875 L 28.875 -28.875 L 33.6875 -28.875 L 33.6875 -24.0625 L 38.484375 -24.0625 L 38.484375 -9.625 L 33.6875 -9.625 L 33.6875 -4.8125 L 28.875 -4.8125 L 28.875 0 L 9.625 0 L 9.625 -4.8125 L 4.8125 -4.8125 L 4.8125 -9.625 L 0 -9.625 L 0 -24.0625 Z M 24.0625 -24.0625 L 24.0625 -28.875 L 14.421875 -28.875 L 14.421875 -24.109375 L 9.625 -24.109375 L 9.625 -9.578125 L 14.421875 -9.578125 L 14.421875 -4.8125 L 24.0625 -4.8125 L 24.0625 -9.625 L 28.875 -9.625 L 28.875 -24.0625 Z M 24.0625 -24.0625 "/></g></g></g><g fill="#00ffff" fill-opacity="1"><g transform="translate(220.277756, 165.084374)"><g><path d="M 9.625 -19.234375 L 19.265625 -19.234375 L 19.265625 -28.875 L 9.625 -28.875 Z M 24.0625 -19.234375 L 24.0625 -14.421875 L 9.625 -14.421875 L 9.625 0 L 0 0 L 0 -33.6875 L 24.0625 -33.6875 L 24.0625 -28.875 L 28.875 -28.875 L 28.875 -19.234375 Z M 24.0625 -19.234375 "/></g></g></g><g fill="#7ed957" fill-opacity="1"><g transform="translate(95.616618, 165.084374)"><g><path d="M 4.8125 -4.8125 L 0 -4.8125 L 0 -9.625 L 9.625 -9.625 L 9.625 -4.8125 L 19.234375 -4.8125 L 19.234375 -14.421875 L 4.8125 -14.421875 L 4.8125 -19.234375 L 0 -19.234375 L 0 -28.875 L 4.8125 -28.875 L 4.8125 -33.6875 L 24.0625 -33.6875 L 24.0625 -28.875 L 28.875 -28.875 L 28.875 -24.0625 L 19.234375 -24.0625 L 19.234375 -28.875 L 9.625 -28.875 L 9.625 -19.234375 L 24.0625 -19.234375 L 24.0625 -14.421875 L 28.875 -14.421875 L 28.875 -4.8125 L 24.0625 -4.8125 L 24.0625 0 L 4.8125 0 Z M 4.8125 -4.8125 "/></g></g></g><g fill="#7ed957" fill-opacity="1"><g transform="translate(132.671044, 165.084374)"><g><path d="M 0 -33.6875 L 9.625 -33.6875 L 9.625 -19.234375 L 24.0625 -19.234375 L 24.0625 -33.6875 L 33.6875 -33.6875 L 33.6875 0 L 24.0625 0 L 24.0625 -14.421875 L 9.625 -14.421875 L 9.625 0 L 0 0 Z M 0 -33.6875 "/></g></g></g><g fill="#7ed957" fill-opacity="1"><g transform="translate(174.517656, 165.084374)"><g><path d="M 4.8125 -24.0625 L 4.8125 -28.875 L 9.625 -28.875 L 9.625 -33.6875 L 28.875 -33.6875 L 28.875 -28.875 L 33.6875 -28.875 L 33.6875 -24.0625 L 38.484375 -24.0625 L 38.484375 -9.625 L 33.6875 -9.625 L 33.6875 -4.8125 L 28.875 -4.8125 L 28.875 0 L 9.625 0 L 9.625 -4.8125 L 4.8125 -4.8125 L 4.8125 -9.625 L 0 -9.625 L 0 -24.0625 Z M 24.0625 -24.0625 L 24.0625 -28.875 L 14.421875 -28.875 L 14.421875 -24.109375 L 9.625 -24.109375 L 9.625 -9.578125 L 14.421875 -9.578125 L 14.421875 -4.8125 L 24.0625 -4.8125 L 24.0625 -9.625 L 28.875 -9.625 L 28.875 -24.0625 Z M 24.0625 -24.0625 "/></g></g></g><g fill="#7ed957" fill-opacity="1"><g transform="translate(221.179945, 165.084374)"><g><path d="M 9.625 -19.234375 L 19.265625 -19.234375 L 19.265625 -28.875 L 9.625 -28.875 Z M 24.0625 -19.234375 L 24.0625 -14.421875 L 9.625 -14.421875 L 9.625 0 L 0 0 L 0 -33.6875 L 24.0625 -33.6875 L 24.0625 -28.875 L 28.875 -28.875 L 28.875 -19.234375 Z M 24.0625 -19.234375 "/></g></g></g><g fill="#ff00ff" fill-opacity="1"><g transform="translate(69.812945, 185.305518)"><g><path d="M 2.484375 -2.484375 L 12.453125 -2.484375 L 12.453125 0 L 0 0 L 0 -17.421875 L 12.453125 -17.421875 L 12.453125 -14.9375 L 2.484375 -14.9375 L 2.484375 -9.953125 L 9.953125 -9.953125 L 9.953125 -7.46875 L 2.484375 -7.46875 Z M 2.484375 -2.484375 "/></g></g></g><g fill="#ff00ff" fill-opacity="1"><g transform="translate(87.240045, 185.305518)"><g><path d="M 9.953125 -2.484375 L 9.953125 0 L 0 0 L 0 -17.421875 L 2.46875 -17.421875 L 2.46875 -2.484375 Z M 9.953125 -2.484375 "/></g></g></g><g fill="#ff00ff" fill-opacity="1"><g transform="translate(102.175828, 185.305518)"><g><path d="M 2.484375 -2.484375 L 12.453125 -2.484375 L 12.453125 0 L 0 0 L 0 -17.421875 L 12.453125 -17.421875 L 12.453125 -14.9375 L 2.484375 -14.9375 L 2.484375 -9.953125 L 9.953125 -9.953125 L 9.953125 -7.46875 L 2.484375 -7.46875 Z M 2.484375 -2.484375 "/></g></g></g><g fill="#ff00ff" fill-opacity="1"><g transform="translate(119.602928, 185.305518)"><g><path d="M 0 -17.421875 L 12.453125 -17.421875 L 12.453125 -14.9375 L 7.46875 -14.9375 L 7.46875 0 L 4.984375 0 L 4.984375 -14.9375 L 0 -14.9375 Z M 0 -17.421875 "/></g></g></g><g fill="#ff00ff" fill-opacity="1"><g transform="translate(137.030029, 185.305518)"><g><path d="M 2.484375 -7.46875 L 2.484375 0 L 0 0 L 0 -17.421875 L 9.953125 -17.421875 L 9.953125 -14.9375 L 12.453125 -14.9375 L 12.453125 -9.953125 L 9.953125 -9.953125 L 9.953125 -7.46875 Z M 2.484375 -9.953125 L 9.921875 -9.953125 L 9.921875 -14.9375 L 2.484375 -14.9375 Z M 12.453125 -7.46875 L 12.453125 0 L 9.953125 0 L 9.953125 -7.46875 Z M 12.453125 -7.46875 "/></g></g></g><g fill="#ff00ff" fill-opacity="1"><g transform="translate(154.457129, 185.305518)"><g><path d="M 2.484375 -4.984375 L 0 -4.984375 L 0 -12.453125 L 2.484375 -12.453125 L 2.484375 -14.9375 L 4.984375 -14.9375 L 4.984375 -17.421875 L 12.453125 -17.421875 L 12.453125 -14.9375 L 14.9375 -14.9375 L 14.9375 -12.453125 L 17.421875 -12.453125 L 17.421875 -4.984375 L 14.9375 -4.984375 L 14.9375 -2.484375 L 12.453125 -2.484375 L 12.453125 0 L 4.984375 0 L 4.984375 -2.484375 L 2.484375 -2.484375 Z M 4.984375 -2.515625 L 12.453125 -2.515625 L 12.453125 -4.984375 L 14.90625 -4.984375 L 14.90625 -12.453125 L 12.453125 -12.453125 L 12.453125 -14.90625 L 4.984375 -14.90625 L 4.984375 -12.453125 L 2.515625 -12.453125 L 2.515625 -4.984375 L 4.984375 -4.984375 Z M 4.984375 -2.515625 "/></g></g></g><g fill="#ff00ff" fill-opacity="1"><g transform="translate(176.854725, 185.305518)"><g><path d="M 12.453125 -7.46875 L 12.453125 -17.421875 L 14.9375 -17.421875 L 14.9375 0 L 12.453125 0 L 12.453125 -4.984375 L 9.953125 -4.984375 L 9.953125 -7.46875 L 7.46875 -7.46875 L 7.46875 -9.953125 L 4.984375 -9.953125 L 4.984375 -12.453125 L 2.484375 -12.453125 L 2.484375 0 L 0 0 L 0 -17.421875 L 2.484375 -17.421875 L 2.484375 -14.9375 L 4.984375 -14.9375 L 4.984375 -12.453125 L 7.46875 -12.453125 L 7.46875 -9.953125 L 9.953125 -9.953125 L 9.953125 -7.46875 Z M 12.453125 -7.46875 "/></g></g></g><g fill="#ff00ff" fill-opacity="1"><g transform="translate(196.760994, 185.305518)"><g><path d="M 0 -17.421875 L 2.484375 -17.421875 L 2.484375 0 L 0 0 Z M 0 -17.421875 "/></g></g></g><g fill="#ff00ff" fill-opacity="1"><g transform="translate(204.222807, 185.305518)"><g><path d="M 14.9375 -14.9375 L 14.9375 -12.453125 L 12.453125 -12.453125 L 12.453125 -14.9375 L 4.984375 -14.9375 L 4.984375 -17.421875 L 12.453125 -17.421875 L 12.453125 -14.9375 Z M 4.984375 -4.953125 L 4.984375 -2.484375 L 12.453125 -2.484375 L 12.453125 0 L 4.984375 0 L 4.984375 -2.484375 L 2.484375 -2.484375 L 2.484375 -4.953125 Z M 2.484375 -12.453125 L 2.484375 -4.984375 L 0 -4.984375 L 0 -12.453125 Z M 12.453125 -2.484375 L 12.453125 -4.984375 L 14.9375 -4.984375 L 14.9375 -2.484375 Z M 4.984375 -12.46875 L 2.484375 -12.46875 L 2.484375 -14.9375 L 4.984375 -14.9375 Z M 4.984375 -12.46875 "/></g></g></g><g fill="#ff00ff" fill-opacity="1"><g transform="translate(224.129076, 185.305518)"><g><path d="M 2.484375 -4.984375 L 0 -4.984375 L 0 -12.453125 L 2.484375 -12.453125 L 2.484375 -14.9375 L 4.984375 -14.9375 L 4.984375 -17.421875 L 12.453125 -17.421875 L 12.453125 -14.9375 L 14.9375 -14.9375 L 14.9375 -12.453125 L 17.421875 -12.453125 L 17.421875 -4.984375 L 14.9375 -4.984375 L 14.9375 -2.484375 L 12.453125 -2.484375 L 12.453125 0 L 4.984375 0 L 4.984375 -2.484375 L 2.484375 -2.484375 Z M 4.984375 -2.515625 L 12.453125 -2.515625 L 12.453125 -4.984375 L 14.90625 -4.984375 L 14.90625 -12.453125 L 12.453125 -12.453125 L 12.453125 -14.90625 L 4.984375 -14.90625 L 4.984375 -12.453125 L 2.515625 -12.453125 L 2.515625 -4.984375 L 4.984375 -4.984375 Z M 4.984375 -2.515625 "/></g></g></g><g fill="#ff00ff" fill-opacity="1"><g transform="translate(246.526664, 185.305518)"><g><path d="M 2.484375 -9.953125 L 9.953125 -9.953125 L 9.953125 -7.46875 L 12.453125 -7.46875 L 12.453125 -2.484375 L 9.953125 -2.484375 L 9.953125 -7.46875 L 2.484375 -7.46875 Z M 2.484375 -17.421875 L 9.953125 -17.421875 L 9.953125 -14.9375 L 12.453125 -14.9375 L 12.453125 -12.453125 L 9.953125 -12.453125 L 9.953125 -14.9375 L 2.484375 -14.9375 Z M 2.484375 -2.484375 L 9.953125 -2.484375 L 9.953125 0 L 2.484375 0 Z M 2.484375 -9.953125 L 0 -9.953125 L 0 -14.9375 L 2.484375 -14.9375 Z M 2.484375 -2.484375 L 0 -2.484375 L 0 -4.984375 L 2.484375 -4.984375 Z M 2.484375 -2.484375 "/></g></g></g><g fill="#00ffff" fill-opacity="1"><g transform="translate(68.879436, 185.305518)"><g><path d="M 2.484375 -2.484375 L 12.453125 -2.484375 L 12.453125 0 L 0 0 L 0 -17.421875 L 12.453125 -17.421875 L 12.453125 -14.9375 L 2.484375 -14.9375 L 2.484375 -9.953125 L 9.953125 -9.953125 L 9.953125 -7.46875 L 2.484375 -7.46875 Z M 2.484375 -2.484375 "/></g></g></g><g fill="#00ffff" fill-opacity="1"><g transform="translate(86.306536, 185.305518)"><g><path d="M 9.953125 -2.484375 L 9.953125 0 L 0 0 L 0 -17.421875 L 2.46875 -17.421875 L 2.46875 -2.484375 Z M 9.953125 -2.484375 "/></g></g></g><g fill="#00ffff" fill-opacity="1"><g transform="translate(101.242319, 185.305518)"><g><path d="M 2.484375 -2.484375 L 12.453125 -2.484375 L 12.453125 0 L 0 0 L 0 -17.421875 L 12.453125 -17.421875 L 12.453125 -14.9375 L 2.484375 -14.9375 L 2.484375 -9.953125 L 9.953125 -9.953125 L 9.953125 -7.46875 L 2.484375 -7.46875 Z M 2.484375 -2.484375 "/></g></g></g><g fill="#00ffff" fill-opacity="1"><g transform="translate(118.669419, 185.305518)"><g><path d="M 0 -17.421875 L 12.453125 -17.421875 L 12.453125 -14.9375 L 7.46875 -14.9375 L 7.46875 0 L 4.984375 0 L 4.984375 -14.9375 L 0 -14.9375 Z M 0 -17.421875 "/></g></g></g><g fill="#00ffff" fill-opacity="1"><g transform="translate(136.09652, 185.305518)"><g><path d="M 2.484375 -7.46875 L 2.484375 0 L 0 0 L 0 -17.421875 L 9.953125 -17.421875 L 9.953125 -14.9375 L 12.453125 -14.9375 L 12.453125 -9.953125 L 9.953125 -9.953125 L 9.953125 -7.46875 Z M 2.484375 -9.953125 L 9.921875 -9.953125 L 9.921875 -14.9375 L 2.484375 -14.9375 Z M 12.453125 -7.46875 L 12.453125 0 L 9.953125 0 L 9.953125 -7.46875 Z M 12.453125 -7.46875 "/></g></g></g><g fill="#00ffff" fill-opacity="1"><g transform="translate(153.52362, 185.305518)"><g><path d="M 2.484375 -4.984375 L 0 -4.984375 L 0 -12.453125 L 2.484375 -12.453125 L 2.484375 -14.9375 L 4.984375 -14.9375 L 4.984375 -17.421875 L 12.453125 -17.421875 L 12.453125 -14.9375 L 14.9375 -14.9375 L 14.9375 -12.453125 L 17.421875 -12.453125 L 17.421875 -4.984375 L 14.9375 -4.984375 L 14.9375 -2.484375 L 12.453125 -2.484375 L 12.453125 0 L 4.984375 0 L 4.984375 -2.484375 L 2.484375 -2.484375 Z M 4.984375 -2.515625 L 12.453125 -2.515625 L 12.453125 -4.984375 L 14.90625 -4.984375 L 14.90625 -12.453125 L 12.453125 -12.453125 L 12.453125 -14.90625 L 4.984375 -14.90625 L 4.984375 -12.453125 L 2.515625 -12.453125 L 2.515625 -4.984375 L 4.984375 -4.984375 Z M 4.984375 -2.515625 "/></g></g></g><g fill="#00ffff" fill-opacity="1"><g transform="translate(175.921216, 185.305518)"><g><path d="M 12.453125 -7.46875 L 12.453125 -17.421875 L 14.9375 -17.421875 L 14.9375 0 L 12.453125 0 L 12.453125 -4.984375 L 9.953125 -4.984375 L 9.953125 -7.46875 L 7.46875 -7.46875 L 7.46875 -9.953125 L 4.984375 -9.953125 L 4.984375 -12.453125 L 2.484375 -12.453125 L 2.484375 0 L 0 0 L 0 -17.421875 L 2.484375 -17.421875 L 2.484375 -14.9375 L 4.984375 -14.9375 L 4.984375 -12.453125 L 7.46875 -12.453125 L 7.46875 -9.953125 L 9.953125 -9.953125 L 9.953125 -7.46875 Z M 12.453125 -7.46875 "/></g></g></g><g fill="#00ffff" fill-opacity="1"><g transform="translate(195.827485, 185.305518)"><g><path d="M 0 -17.421875 L 2.484375 -17.421875 L 2.484375 0 L 0 0 Z M 0 -17.421875 "/></g></g></g><g fill="#00ffff" fill-opacity="1"><g transform="translate(203.289298, 185.305518)"><g><path d="M 14.9375 -14.9375 L 14.9375 -12.453125 L 12.453125 -12.453125 L 12.453125 -14.9375 L 4.984375 -14.9375 L 4.984375 -17.421875 L 12.453125 -17.421875 L 12.453125 -14.9375 Z M 4.984375 -4.953125 L 4.984375 -2.484375 L 12.453125 -2.484375 L 12.453125 0 L 4.984375 0 L 4.984375 -2.484375 L 2.484375 -2.484375 L 2.484375 -4.953125 Z M 2.484375 -12.453125 L 2.484375 -4.984375 L 0 -4.984375 L 0 -12.453125 Z M 12.453125 -2.484375 L 12.453125 -4.984375 L 14.9375 -4.984375 L 14.9375 -2.484375 Z M 4.984375 -12.46875 L 2.484375 -12.46875 L 2.484375 -14.9375 L 4.984375 -14.9375 Z M 4.984375 -12.46875 "/></g></g></g><g fill="#00ffff" fill-opacity="1"><g transform="translate(223.195568, 185.305518)"><g><path d="M 2.484375 -4.984375 L 0 -4.984375 L 0 -12.453125 L 2.484375 -12.453125 L 2.484375 -14.9375 L 4.984375 -14.9375 L 4.984375 -17.421875 L 12.453125 -17.421875 L 12.453125 -14.9375 L 14.9375 -14.9375 L 14.9375 -12.453125 L 17.421875 -12.453125 L 17.421875 -4.984375 L 14.9375 -4.984375 L 14.9375 -2.484375 L 12.453125 -2.484375 L 12.453125 0 L 4.984375 0 L 4.984375 -2.484375 L 2.484375 -2.484375 Z M 4.984375 -2.515625 L 12.453125 -2.515625 L 12.453125 -4.984375 L 14.90625 -4.984375 L 14.90625 -12.453125 L 12.453125 -12.453125 L 12.453125 -14.90625 L 4.984375 -14.90625 L 4.984375 -12.453125 L 2.515625 -12.453125 L 2.515625 -4.984375 L 4.984375 -4.984375 Z M 4.984375 -2.515625 "/></g></g></g><g fill="#00ffff" fill-opacity="1"><g transform="translate(245.593155, 185.305518)"><g><path d="M 2.484375 -9.953125 L 9.953125 -9.953125 L 9.953125 -7.46875 L 12.453125 -7.46875 L 12.453125 -2.484375 L 9.953125 -2.484375 L 9.953125 -7.46875 L 2.484375 -7.46875 Z M 2.484375 -17.421875 L 9.953125 -17.421875 L 9.953125 -14.9375 L 12.453125 -14.9375 L 12.453125 -12.453125 L 9.953125 -12.453125 L 9.953125 -14.9375 L 2.484375 -14.9375 Z M 2.484375 -2.484375 L 9.953125 -2.484375 L 9.953125 0 L 2.484375 0 Z M 2.484375 -9.953125 L 0 -9.953125 L 0 -14.9375 L 2.484375 -14.9375 Z M 2.484375 -2.484375 L 0 -2.484375 L 0 -4.984375 L 2.484375 -4.984375 Z M 2.484375 -2.484375 "/></g></g></g><g fill="#7edaf2" fill-opacity="1"><g transform="translate(69.34619, 185.305518)"><g><path d="M 2.484375 -2.484375 L 12.453125 -2.484375 L 12.453125 0 L 0 0 L 0 -17.421875 L 12.453125 -17.421875 L 12.453125 -14.9375 L 2.484375 -14.9375 L 2.484375 -9.953125 L 9.953125 -9.953125 L 9.953125 -7.46875 L 2.484375 -7.46875 Z M 2.484375 -2.484375 "/></g></g></g><g fill="#7edaf2" fill-opacity="1"><g transform="translate(86.773291, 185.305518)"><g><path d="M 9.953125 -2.484375 L 9.953125 0 L 0 0 L 0 -17.421875 L 2.46875 -17.421875 L 2.46875 -2.484375 Z M 9.953125 -2.484375 "/></g></g></g><g fill="#7edaf2" fill-opacity="1"><g transform="translate(101.709073, 185.305518)"><g><path d="M 2.484375 -2.484375 L 12.453125 -2.484375 L 12.453125 0 L 0 0 L 0 -17.421875 L 12.453125 -17.421875 L 12.453125 -14.9375 L 2.484375 -14.9375 L 2.484375 -9.953125 L 9.953125 -9.953125 L 9.953125 -7.46875 L 2.484375 -7.46875 Z M 2.484375 -2.484375 "/></g></g></g><g fill="#7edaf2" fill-opacity="1"><g transform="translate(119.136174, 185.305518)"><g><path d="M 0 -17.421875 L 12.453125 -17.421875 L 12.453125 -14.9375 L 7.46875 -14.9375 L 7.46875 0 L 4.984375 0 L 4.984375 -14.9375 L 0 -14.9375 Z M 0 -17.421875 "/></g></g></g><g fill="#7edaf2" fill-opacity="1"><g transform="translate(136.563274, 185.305518)"><g><path d="M 2.484375 -7.46875 L 2.484375 0 L 0 0 L 0 -17.421875 L 9.953125 -17.421875 L 9.953125 -14.9375 L 12.453125 -14.9375 L 12.453125 -9.953125 L 9.953125 -9.953125 L 9.953125 -7.46875 Z M 2.484375 -9.953125 L 9.921875 -9.953125 L 9.921875 -14.9375 L 2.484375 -14.9375 Z M 12.453125 -7.46875 L 12.453125 0 L 9.953125 0 L 9.953125 -7.46875 Z M 12.453125 -7.46875 "/></g></g></g><g fill="#7edaf2" fill-opacity="1"><g transform="translate(153.990375, 185.305518)"><g><path d="M 2.484375 -4.984375 L 0 -4.984375 L 0 -12.453125 L 2.484375 -12.453125 L 2.484375 -14.9375 L 4.984375 -14.9375 L 4.984375 -17.421875 L 12.453125 -17.421875 L 12.453125 -14.9375 L 14.9375 -14.9375 L 14.9375 -12.453125 L 17.421875 -12.453125 L 17.421875 -4.984375 L 14.9375 -4.984375 L 14.9375 -2.484375 L 12.453125 -2.484375 L 12.453125 0 L 4.984375 0 L 4.984375 -2.484375 L 2.484375 -2.484375 Z M 4.984375 -2.515625 L 12.453125 -2.515625 L 12.453125 -4.984375 L 14.90625 -4.984375 L 14.90625 -12.453125 L 12.453125 -12.453125 L 12.453125 -14.90625 L 4.984375 -14.90625 L 4.984375 -12.453125 L 2.515625 -12.453125 L 2.515625 -4.984375 L 4.984375 -4.984375 Z M 4.984375 -2.515625 "/></g></g></g><g fill="#7edaf2" fill-opacity="1"><g transform="translate(176.38797, 185.305518)"><g><path d="M 12.453125 -7.46875 L 12.453125 -17.421875 L 14.9375 -17.421875 L 14.9375 0 L 12.453125 0 L 12.453125 -4.984375 L 9.953125 -4.984375 L 9.953125 -7.46875 L 7.46875 -7.46875 L 7.46875 -9.953125 L 4.984375 -9.953125 L 4.984375 -12.453125 L 2.484375 -12.453125 L 2.484375 0 L 0 0 L 0 -17.421875 L 2.484375 -17.421875 L 2.484375 -14.9375 L 4.984375 -14.9375 L 4.984375 -12.453125 L 7.46875 -12.453125 L 7.46875 -9.953125 L 9.953125 -9.953125 L 9.953125 -7.46875 Z M 12.453125 -7.46875 "/></g></g></g><g fill="#7edaf2" fill-opacity="1"><g transform="translate(196.29424, 185.305518)"><g><path d="M 0 -17.421875 L 2.484375 -17.421875 L 2.484375 0 L 0 0 Z M 0 -17.421875 "/></g></g></g><g fill="#7edaf2" fill-opacity="1"><g transform="translate(203.756053, 185.305518)"><g><path d="M 14.9375 -14.9375 L 14.9375 -12.453125 L 12.453125 -12.453125 L 12.453125 -14.9375 L 4.984375 -14.9375 L 4.984375 -17.421875 L 12.453125 -17.421875 L 12.453125 -14.9375 Z M 4.984375 -4.953125 L 4.984375 -2.484375 L 12.453125 -2.484375 L 12.453125 0 L 4.984375 0 L 4.984375 -2.484375 L 2.484375 -2.484375 L 2.484375 -4.953125 Z M 2.484375 -12.453125 L 2.484375 -4.984375 L 0 -4.984375 L 0 -12.453125 Z M 12.453125 -2.484375 L 12.453125 -4.984375 L 14.9375 -4.984375 L 14.9375 -2.484375 Z M 4.984375 -12.46875 L 2.484375 -12.46875 L 2.484375 -14.9375 L 4.984375 -14.9375 Z M 4.984375 -12.46875 "/></g></g></g><g fill="#7edaf2" fill-opacity="1"><g transform="translate(223.662322, 185.305518)"><g><path d="M 2.484375 -4.984375 L 0 -4.984375 L 0 -12.453125 L 2.484375 -12.453125 L 2.484375 -14.9375 L 4.984375 -14.9375 L 4.984375 -17.421875 L 12.453125 -17.421875 L 12.453125 -14.9375 L 14.9375 -14.9375 L 14.9375 -12.453125 L 17.421875 -12.453125 L 17.421875 -4.984375 L 14.9375 -4.984375 L 14.9375 -2.484375 L 12.453125 -2.484375 L 12.453125 0 L 4.984375 0 L 4.984375 -2.484375 L 2.484375 -2.484375 Z M 4.984375 -2.515625 L 12.453125 -2.515625 L 12.453125 -4.984375 L 14.90625 -4.984375 L 14.90625 -12.453125 L 12.453125 -12.453125 L 12.453125 -14.90625 L 4.984375 -14.90625 L 4.984375 -12.453125 L 2.515625 -12.453125 L 2.515625 -4.984375 L 4.984375 -4.984375 Z M 4.984375 -2.515625 "/></g></g></g><g fill="#7edaf2" fill-opacity="1"><g transform="translate(246.059909, 185.305518)"><g><path d="M 2.484375 -9.953125 L 9.953125 -9.953125 L 9.953125 -7.46875 L 12.453125 -7.46875 L 12.453125 -2.484375 L 9.953125 -2.484375 L 9.953125 -7.46875 L 2.484375 -7.46875 Z M 2.484375 -17.421875 L 9.953125 -17.421875 L 9.953125 -14.9375 L 12.453125 -14.9375 L 12.453125 -12.453125 L 9.953125 -12.453125 L 9.953125 -14.9375 L 2.484375 -14.9375 Z M 2.484375 -2.484375 L 9.953125 -2.484375 L 9.953125 0 L 2.484375 0 Z M 2.484375 -9.953125 L 0 -9.953125 L 0 -14.9375 L 2.484375 -14.9375 Z M 2.484375 -2.484375 L 0 -2.484375 L 0 -4.984375 L 2.484375 -4.984375 Z M 2.484375 -2.484375 "/></g></g></g></svg>